{"glyphs":{"0":{"ha":718,"x_min":50,"x_max":696,"o":"m 438 963 q 218 869 306 963 q 90 626 131 775 q 50 310 50 476 q 115 58 50 142 q 308 -25 181 -25 q 526 69 439 -25 q 655 311 614 163 q 696 625 696 460 q 630 876 696 790 q 438 963 564 963 m 426 789 q 461 768 450 789 q 472 697 472 747 q 453 459 472 589 q 400 238 435 329 q 319 147 365 147 q 285 168 296 147 q 274 239 274 189 q 292 473 274 343 q 346 696 311 603 q 426 789 381 789 z "},"1":{"ha":560,"x_min":40,"x_max":550,"o":"m 550 942 l 418 0 l 194 0 l 289 699 l 121 588 l 40 746 l 342 942 l 550 942 z "},"2":{"ha":600,"x_min":-32,"x_max":606,"o":"m 347 963 q 539 895 472 963 q 606 724 606 828 q 565 562 606 642 q 448 397 524 482 q 238 179 372 313 l 547 181 l 497 0 l -32 0 l -11 167 q 209 407 138 325 q 324 565 281 489 q 368 707 368 640 q 351 763 368 744 q 304 782 335 782 q 239 760 271 782 q 164 693 207 739 l 44 799 q 180 920 106 878 q 347 963 254 963 z "},"3":{"ha":606,"x_min":-69,"x_max":596,"o":"m 342 963 q 528 900 461 963 q 596 742 596 838 q 538 583 596 644 q 371 496 481 521 q 508 440 461 483 q 556 314 556 396 q 510 144 556 221 q 384 21 465 67 q 201 -25 303 -25 q 44 12 108 -25 q -69 121 -21 49 l 67 233 q 130 172 100 190 q 197 153 160 153 q 285 197 250 153 q 319 318 319 242 q 221 411 319 411 l 157 411 l 206 571 l 247 571 q 333 610 300 571 q 365 711 365 649 q 294 789 365 789 q 144 711 222 789 l 46 833 q 342 963 179 963 z "},"4":{"ha":672,"x_min":-4,"x_max":657,"o":"m 657 374 l 632 197 l 554 197 l 526 0 l 306 0 l 332 197 l -4 197 l 18 354 l 315 968 l 503 897 l 260 374 l 358 374 l 417 590 l 610 590 l 579 374 l 657 374 z "},"5":{"ha":636,"x_min":-29,"x_max":646,"o":"m 599 774 l 331 774 l 304 588 q 365 613 338 606 q 422 621 392 621 q 554 560 504 621 q 604 386 604 500 q 558 177 604 271 q 427 29 513 83 q 228 -25 342 -25 q 74 14 135 -25 q -29 122 13 53 l 110 232 q 165 171 138 192 q 233 150 193 150 q 335 217 303 150 q 368 375 368 285 q 352 440 368 421 q 306 460 336 460 q 264 452 285 460 q 215 425 243 444 l 65 426 l 138 942 l 646 942 l 599 774 z "},"6":{"ha":681,"x_min":43,"x_max":671,"o":"m 474 636 q 610 574 561 636 q 658 399 658 513 q 617 184 658 281 q 497 31 575 88 q 310 -25 418 -25 q 109 55 175 -25 q 43 288 43 135 q 97 611 43 456 q 253 865 151 767 q 492 963 356 963 q 671 899 597 963 l 574 767 q 488 796 528 796 q 385 736 432 796 q 311 557 339 676 q 474 636 382 636 m 319 142 q 381 187 356 142 q 419 294 407 232 q 431 410 431 357 q 419 463 431 449 q 388 478 408 478 q 288 404 344 478 q 272 232 272 297 q 283 163 272 183 q 319 142 294 142 z "},"7":{"ha":546,"x_min":18,"x_max":618,"o":"m 618 940 l 594 782 l 213 -24 l 18 47 l 356 764 l 63 764 l 88 940 l 618 940 z "},"8":{"ha":683,"x_min":6,"x_max":686,"o":"m 522 503 q 617 410 588 460 q 647 297 647 361 q 601 126 647 199 q 474 14 556 53 q 290 -25 393 -25 q 79 44 153 -25 q 6 217 6 113 q 189 483 6 394 q 100 664 100 557 q 141 821 100 753 q 255 926 182 889 q 421 963 328 963 q 615 905 544 963 q 686 749 686 847 q 649 615 686 676 q 522 503 611 554 m 407 804 q 339 763 360 804 q 318 664 318 721 q 331 610 318 632 q 378 571 344 589 l 389 564 q 446 640 428 599 q 464 733 464 682 q 450 787 464 769 q 407 804 436 804 m 308 142 q 392 183 363 142 q 421 290 421 225 q 403 355 421 331 q 338 406 386 379 l 317 417 q 252 331 274 381 q 231 231 231 282 q 308 142 231 142 z "},"9":{"ha":676,"x_min":29,"x_max":682,"o":"m 411 963 q 613 887 544 963 q 682 675 682 811 q 525 210 682 396 q 60 -40 368 24 l 29 119 q 273 227 188 164 q 410 406 358 290 q 331 344 369 364 q 246 324 293 324 q 106 390 160 324 q 53 568 53 456 q 97 768 53 678 q 222 910 140 858 q 411 963 303 963 m 438 560 q 449 715 449 640 q 436 781 449 761 q 396 800 424 800 q 315 728 343 800 q 286 574 286 656 q 338 485 286 485 q 438 560 386 485 z "},"\r":{"ha":231,"x_min":0,"x_max":0,"o":""}," ":{"ha":231,"x_min":0,"x_max":0,"o":""},"A":{"ha":696,"x_min":-72,"x_max":664,"o":"m 417 0 l 413 201 l 235 201 l 178 0 l -72 0 l 286 965 l 575 965 l 664 0 l 417 0 m 283 376 l 410 376 l 403 803 l 283 376 z "},"Á":{"ha":696,"x_min":-72,"x_max":664,"o":"m 417 0 l 413 201 l 235 201 l 178 0 l -72 0 l 286 965 l 575 965 l 664 0 l 417 0 m 283 376 l 410 376 l 403 803 l 283 376 m 574 1319 l 651 1154 l 347 1035 l 293 1144 l 574 1319 z "},"Ă":{"ha":696,"x_min":-72,"x_max":682,"o":"m 417 0 l 413 201 l 235 201 l 178 0 l -72 0 l 286 965 l 575 965 l 664 0 l 417 0 m 283 376 l 410 376 l 403 803 l 283 376 m 446 1040 q 308 1099 354 1040 q 263 1249 263 1158 q 264 1278 263 1268 l 382 1297 q 403 1228 385 1254 q 458 1203 421 1203 q 561 1300 528 1203 l 682 1274 q 603 1106 663 1171 q 446 1040 544 1040 z "},"Ắ":{"ha":696,"x_min":-72,"x_max":701,"o":"m 701 1461 l 471 1256 l 392 1326 l 590 1579 l 701 1461 m 456 1185 q 558 1282 525 1185 l 679 1256 q 601 1088 660 1153 q 443 1022 542 1022 q 306 1081 351 1022 q 260 1231 260 1140 q 261 1260 260 1250 l 379 1279 q 400 1210 382 1236 q 456 1185 418 1185 m 286 965 l 575 965 l 664 0 l 417 0 l 413 201 l 235 201 l 178 0 l -72 0 l 286 965 m 283 376 l 410 376 l 403 803 l 283 376 z "},"Ặ":{"ha":696,"x_min":-72,"x_max":682,"o":"m 417 0 l 413 201 l 235 201 l 178 0 l -72 0 l 286 965 l 575 965 l 664 0 l 417 0 m 283 376 l 410 376 l 403 803 l 283 376 m 446 1040 q 308 1099 354 1040 q 263 1249 263 1158 q 264 1278 263 1268 l 382 1297 q 403 1228 385 1254 q 458 1203 421 1203 q 561 1300 528 1203 l 682 1274 q 603 1106 663 1171 q 446 1040 544 1040 m 276 -81 q 363 -111 332 -81 q 394 -193 394 -142 q 352 -301 394 -258 q 247 -343 310 -343 q 160 -312 192 -343 q 129 -231 129 -282 q 172 -123 129 -165 q 276 -81 214 -81 z "},"Ằ":{"ha":696,"x_min":-72,"x_max":681,"o":"m 547 1321 l 449 1256 l 278 1471 l 419 1575 l 547 1321 m 444 1022 q 307 1081 353 1022 q 261 1231 261 1140 q 263 1260 261 1250 l 381 1279 q 401 1210 383 1236 q 457 1185 419 1185 q 560 1282 526 1185 l 681 1256 q 602 1088 661 1153 q 444 1022 543 1022 m 286 965 l 575 965 l 664 0 l 417 0 l 413 201 l 235 201 l 178 0 l -72 0 l 286 965 m 283 376 l 410 376 l 403 803 l 283 376 z "},"Ẳ":{"ha":696,"x_min":-72,"x_max":686,"o":"m 417 0 l 413 201 l 235 201 l 178 0 l -72 0 l 286 965 l 575 965 l 664 0 l 417 0 m 283 376 l 410 376 l 403 803 l 283 376 m 450 1022 q 313 1081 358 1022 q 267 1231 267 1140 q 268 1260 267 1250 l 386 1279 q 407 1210 389 1236 q 463 1185 425 1185 q 565 1282 532 1185 l 686 1256 q 608 1088 667 1153 q 450 1022 549 1022 m 425 1394 q 492 1411 472 1397 q 513 1454 513 1425 q 475 1489 513 1489 q 443 1485 458 1489 q 407 1471 428 1481 l 386 1567 q 517 1601 444 1601 q 623 1565 585 1601 q 661 1471 661 1529 q 629 1376 661 1413 q 543 1328 597 1340 l 536 1269 l 410 1269 l 425 1394 z "},"Ẵ":{"ha":696,"x_min":-72,"x_max":722,"o":"m 418 1376 q 385 1363 400 1376 q 351 1321 371 1350 l 257 1375 q 336 1486 289 1442 q 432 1531 383 1531 q 477 1522 458 1531 q 517 1496 496 1513 q 540 1481 528 1488 q 564 1474 551 1474 q 593 1486 579 1474 q 624 1528 607 1499 l 722 1476 q 642 1365 690 1408 q 544 1321 594 1321 q 506 1329 524 1321 q 467 1353 489 1338 q 441 1369 454 1363 q 418 1376 428 1376 m 453 1185 q 556 1282 522 1185 l 676 1256 q 598 1088 657 1153 q 440 1022 539 1022 q 303 1081 349 1022 q 257 1231 257 1140 q 258 1260 257 1250 l 376 1279 q 397 1210 379 1236 q 453 1185 415 1185 m 286 965 l 575 965 l 664 0 l 417 0 l 413 201 l 235 201 l 178 0 l -72 0 l 286 965 m 283 376 l 410 376 l 403 803 l 283 376 z "},"Ǎ":{"ha":696,"x_min":-72,"x_max":706,"o":"m 417 0 l 413 201 l 235 201 l 178 0 l -72 0 l 286 965 l 575 965 l 664 0 l 417 0 m 283 376 l 410 376 l 403 803 l 283 376 m 622 1317 l 706 1225 l 511 1040 l 374 1040 l 225 1238 l 317 1317 l 457 1197 l 622 1317 z "},"Â":{"ha":696,"x_min":-72,"x_max":688,"o":"m 417 0 l 413 201 l 235 201 l 178 0 l -72 0 l 286 965 l 575 965 l 664 0 l 417 0 m 283 376 l 410 376 l 403 803 l 283 376 m 290 1051 l 207 1142 l 401 1328 l 539 1328 l 688 1131 l 596 1051 l 456 1169 l 290 1051 z "},"Ấ":{"ha":696,"x_min":-72,"x_max":886,"o":"m 886 1421 l 656 1215 l 576 1286 l 775 1539 l 886 1421 m 396 1285 l 533 1285 l 682 1088 l 590 1008 l 450 1126 l 285 1008 l 201 1099 l 396 1285 m 286 965 l 575 965 l 664 0 l 417 0 l 413 201 l 235 201 l 178 0 l -72 0 l 286 965 m 283 376 l 410 376 l 403 803 l 283 376 z "},"Ậ":{"ha":696,"x_min":-72,"x_max":688,"o":"m 417 0 l 413 201 l 235 201 l 178 0 l -72 0 l 286 965 l 575 965 l 664 0 l 417 0 m 283 376 l 410 376 l 403 803 l 283 376 m 290 1051 l 207 1142 l 401 1328 l 539 1328 l 688 1131 l 596 1051 l 456 1169 l 290 1051 m 276 -81 q 363 -111 332 -81 q 394 -193 394 -142 q 352 -301 394 -258 q 247 -343 310 -343 q 160 -312 192 -343 q 129 -231 129 -282 q 172 -123 129 -165 q 276 -81 214 -81 z "},"Ầ":{"ha":696,"x_min":-72,"x_max":686,"o":"m 356 1281 l 257 1215 l 86 1431 l 228 1535 l 356 1281 m 289 1008 l 206 1099 l 400 1285 l 538 1285 l 686 1088 l 594 1008 l 454 1126 l 289 1008 m 286 965 l 575 965 l 664 0 l 417 0 l 413 201 l 235 201 l 178 0 l -72 0 l 286 965 m 283 376 l 410 376 l 403 803 l 283 376 z "},"Ẩ":{"ha":696,"x_min":-72,"x_max":854,"o":"m 417 0 l 413 201 l 235 201 l 178 0 l -72 0 l 286 965 l 575 965 l 664 0 l 417 0 m 283 376 l 410 376 l 403 803 l 283 376 m 283 1008 l 200 1099 l 394 1285 l 532 1285 l 681 1088 l 589 1008 l 449 1126 l 283 1008 m 618 1325 q 685 1342 665 1328 q 706 1385 706 1356 q 668 1419 706 1419 q 636 1415 651 1419 q 600 1401 621 1411 l 579 1497 q 710 1532 638 1532 q 816 1496 778 1532 q 854 1401 854 1460 q 822 1307 854 1343 q 736 1258 790 1271 l 729 1200 l 603 1200 l 618 1325 z "},"Ẫ":{"ha":696,"x_min":-72,"x_max":728,"o":"m 424 1378 q 391 1365 406 1378 q 357 1322 376 1351 l 263 1376 q 342 1488 294 1443 q 438 1532 389 1532 q 483 1523 464 1532 q 522 1497 501 1514 q 545 1482 533 1489 q 569 1475 557 1475 q 599 1488 585 1475 q 629 1529 613 1500 l 728 1478 q 648 1366 696 1410 q 550 1322 600 1322 q 512 1331 529 1322 q 472 1354 494 1339 q 447 1371 460 1364 q 424 1378 433 1378 m 400 1285 l 538 1285 l 686 1088 l 594 1008 l 454 1126 l 289 1008 l 206 1099 l 400 1285 m 286 965 l 575 965 l 664 0 l 417 0 l 413 201 l 235 201 l 178 0 l -72 0 l 286 965 m 283 376 l 410 376 l 403 803 l 283 376 z "},"Ȁ":{"ha":696,"x_min":-72,"x_max":664,"o":"m 417 0 l 413 201 l 235 201 l 178 0 l -72 0 l 286 965 l 575 965 l 664 0 l 417 0 m 283 376 l 410 376 l 403 803 l 283 376 m 333 1378 l 415 1092 l 289 1042 l 168 1310 l 333 1378 m 547 1376 l 621 1090 l 496 1047 l 383 1315 l 547 1376 z "},"Ä":{"ha":696,"x_min":-72,"x_max":714,"o":"m 417 0 l 413 201 l 235 201 l 178 0 l -72 0 l 286 965 l 575 965 l 664 0 l 417 0 m 283 376 l 410 376 l 403 803 l 283 376 m 303 1063 q 229 1090 256 1063 q 203 1161 203 1117 q 240 1254 203 1217 q 329 1292 276 1292 q 403 1265 376 1292 q 431 1193 431 1239 q 394 1100 431 1138 q 303 1063 357 1063 m 586 1063 q 513 1090 540 1063 q 486 1161 486 1117 q 523 1254 486 1217 q 613 1292 560 1292 q 687 1265 660 1292 q 714 1193 714 1238 q 677 1100 714 1138 q 586 1063 640 1063 z "},"Ǟ":{"ha":696,"x_min":-72,"x_max":713,"o":"m 417 0 l 413 201 l 235 201 l 178 0 l -72 0 l 286 965 l 575 965 l 664 0 l 417 0 m 283 376 l 410 376 l 403 803 l 283 376 m 301 1035 q 228 1062 254 1035 q 201 1133 201 1089 q 238 1226 201 1189 q 328 1264 275 1264 q 402 1238 375 1264 q 429 1165 429 1211 q 392 1072 429 1110 q 301 1035 356 1035 m 585 1035 q 512 1062 539 1035 q 485 1133 485 1089 q 522 1226 485 1189 q 611 1264 558 1264 q 685 1237 658 1264 q 713 1165 713 1210 q 676 1072 713 1110 q 585 1035 639 1035 m 656 1324 l 289 1324 l 314 1486 l 681 1486 l 656 1324 z "},"Ȧ":{"ha":696,"x_min":-72,"x_max":664,"o":"m 417 0 l 413 201 l 235 201 l 178 0 l -72 0 l 286 965 l 575 965 l 664 0 l 417 0 m 283 376 l 410 376 l 403 803 l 283 376 m 451 1046 q 365 1076 396 1046 q 333 1158 333 1107 q 376 1266 333 1224 q 481 1308 418 1308 q 567 1278 536 1308 q 599 1196 599 1247 q 556 1088 599 1131 q 451 1046 514 1046 z "},"Ạ":{"ha":696,"x_min":-72,"x_max":664,"o":"m 417 0 l 413 201 l 235 201 l 178 0 l -72 0 l 286 965 l 575 965 l 664 0 l 417 0 m 283 376 l 410 376 l 403 803 l 283 376 m 276 -81 q 363 -111 332 -81 q 394 -193 394 -142 q 352 -301 394 -258 q 247 -343 310 -343 q 160 -312 192 -343 q 129 -231 129 -282 q 172 -123 129 -165 q 276 -81 214 -81 z "},"Ǡ":{"ha":696,"x_min":-72,"x_max":690,"o":"m 417 0 l 413 201 l 235 201 l 178 0 l -72 0 l 286 965 l 575 965 l 664 0 l 417 0 m 283 376 l 410 376 l 403 803 l 283 376 m 442 1021 q 355 1051 386 1021 q 324 1133 324 1082 q 366 1241 324 1199 q 471 1283 408 1283 q 558 1253 526 1283 q 589 1171 589 1222 q 547 1063 589 1106 q 442 1021 504 1021 m 665 1324 l 299 1324 l 324 1486 l 690 1486 l 665 1324 z "},"À":{"ha":696,"x_min":-72,"x_max":664,"o":"m 417 0 l 413 201 l 235 201 l 178 0 l -72 0 l 286 965 l 575 965 l 664 0 l 417 0 m 283 376 l 410 376 l 403 803 l 283 376 m 400 1315 l 644 1139 l 576 1036 l 303 1153 l 400 1315 z "},"Ả":{"ha":696,"x_min":-72,"x_max":664,"o":"m 417 0 l 413 201 l 235 201 l 178 0 l -72 0 l 286 965 l 575 965 l 664 0 l 417 0 m 283 376 l 410 376 l 403 803 l 283 376 m 397 1186 q 465 1203 444 1189 q 485 1246 485 1217 q 447 1281 485 1281 q 415 1276 431 1281 q 379 1263 400 1272 l 358 1358 q 489 1393 417 1393 q 595 1357 557 1393 q 633 1263 633 1321 q 601 1168 633 1204 q 515 1119 569 1132 l 508 1061 l 382 1061 l 397 1186 z "},"Ȃ":{"ha":696,"x_min":-72,"x_max":664,"o":"m 417 0 l 413 201 l 235 201 l 178 0 l -72 0 l 286 965 l 575 965 l 664 0 l 417 0 m 283 376 l 410 376 l 403 803 l 283 376 m 235 1081 q 320 1259 258 1190 q 479 1328 382 1328 q 618 1267 572 1328 q 664 1108 664 1206 q 663 1078 664 1089 l 538 1060 q 463 1165 533 1165 q 397 1136 425 1165 q 353 1056 369 1107 l 235 1081 z "},"Ɑ":{"ha":796,"x_min":38,"x_max":819,"o":"m 714 210 q 713 182 713 199 q 718 151 713 163 q 738 132 724 140 l 667 -21 q 501 76 551 -11 q 415 1 461 26 q 306 -25 368 -25 q 106 68 175 -25 q 38 326 38 161 q 88 658 38 506 q 228 900 138 810 q 433 990 318 990 q 527 965 490 990 q 592 894 564 940 l 615 965 l 819 965 l 714 210 m 371 149 q 472 207 426 149 l 549 756 q 513 798 531 783 q 471 813 494 813 q 370 741 413 813 q 306 556 328 669 q 285 319 285 443 q 306 188 285 228 q 371 149 328 149 z "},"Ā":{"ha":696,"x_min":-72,"x_max":664,"o":"m 417 0 l 413 201 l 235 201 l 178 0 l -72 0 l 286 965 l 575 965 l 664 0 l 417 0 m 283 376 l 410 376 l 403 803 l 283 376 m 626 1082 l 260 1082 l 285 1244 l 651 1244 l 626 1082 z "},"Ą":{"ha":696,"x_min":-72,"x_max":664,"o":"m 547 0 q 397 -156 397 -67 q 450 -201 397 -201 q 514 -194 475 -201 l 482 -333 q 397 -344 442 -344 q 280 -303 325 -344 q 235 -189 235 -261 q 279 -63 235 -118 q 417 35 324 -8 l 413 201 l 235 201 l 178 0 l -72 0 l 286 965 l 575 965 l 664 0 l 547 0 m 283 376 l 410 376 l 403 803 l 283 376 z "},"Å":{"ha":696,"x_min":-72,"x_max":664,"o":"m 417 0 l 413 201 l 235 201 l 178 0 l -72 0 l 286 965 l 575 965 l 664 0 l 417 0 m 283 376 l 410 376 l 403 803 l 283 376 m 488 1386 q 603 1340 561 1386 q 644 1221 644 1294 q 589 1073 644 1132 q 443 1014 533 1014 q 327 1059 368 1014 q 286 1178 286 1104 q 342 1326 286 1265 q 488 1386 397 1386 m 476 1271 q 431 1245 447 1271 q 415 1185 415 1219 q 454 1129 415 1129 q 499 1155 482 1129 q 515 1215 515 1181 q 505 1257 515 1243 q 476 1271 494 1271 z "},"Ǻ":{"ha":696,"x_min":-72,"x_max":664,"o":"m 417 0 l 413 201 l 235 201 l 178 0 l -72 0 l 286 965 l 575 965 l 664 0 l 417 0 m 283 376 l 410 376 l 403 803 l 283 376 m 482 1382 q 597 1336 556 1382 q 639 1217 639 1290 q 583 1069 639 1128 q 438 1010 528 1010 q 322 1055 363 1010 q 281 1174 281 1100 q 336 1322 281 1261 q 482 1382 392 1382 m 471 1267 q 426 1241 442 1267 q 410 1181 410 1215 q 449 1125 410 1125 q 493 1151 476 1125 q 510 1211 510 1176 q 499 1253 510 1239 q 471 1267 489 1267 m 583 1674 l 661 1508 l 357 1389 l 303 1499 l 583 1674 z "},"Ⱥ":{"ha":696,"x_min":-72,"x_max":664,"o":"m 449 0 l 438 201 l 329 201 l 221 -104 l 151 -85 l 253 201 l 217 201 l 156 0 l -72 0 l 286 965 l 524 965 l 554 1050 l 624 1032 l 581 910 l 664 0 l 449 0 m 267 365 l 311 365 l 414 657 l 406 826 l 267 365 m 388 365 l 429 365 l 424 469 l 388 365 z "},"Ã":{"ha":696,"x_min":-72,"x_max":699,"o":"m 417 0 l 413 201 l 235 201 l 178 0 l -72 0 l 286 965 l 575 965 l 664 0 l 417 0 m 283 376 l 410 376 l 403 803 l 283 376 m 518 1051 q 480 1060 497 1051 q 439 1088 463 1069 q 425 1098 436 1090 q 406 1109 414 1106 q 389 1113 397 1113 q 356 1098 371 1113 q 322 1051 342 1083 l 225 1110 q 306 1231 258 1183 q 403 1279 354 1279 q 449 1269 429 1279 q 490 1242 468 1260 q 538 1218 519 1218 q 567 1232 553 1218 q 599 1276 581 1246 l 699 1221 q 617 1099 665 1146 q 518 1051 568 1051 z "},"Æ":{"ha":981,"x_min":-74,"x_max":1006,"o":"m 954 792 l 683 792 l 682 572 l 942 572 l 915 403 l 679 403 l 678 175 l 938 175 l 910 0 l 456 0 l 461 201 l 261 201 l 188 0 l -74 0 l 351 965 l 1006 965 l 954 792 m 465 376 l 476 788 l 325 376 l 465 376 z "},"Ǽ":{"ha":981,"x_min":-74,"x_max":1006,"o":"m 954 792 l 683 792 l 682 572 l 942 572 l 915 403 l 679 403 l 678 175 l 938 175 l 910 0 l 456 0 l 461 201 l 261 201 l 188 0 l -74 0 l 351 965 l 1006 965 l 954 792 m 465 376 l 476 788 l 325 376 l 465 376 m 783 1319 l 861 1154 l 557 1035 l 503 1144 l 783 1319 z "},"Ǣ":{"ha":981,"x_min":-74,"x_max":1006,"o":"m 954 792 l 683 792 l 682 572 l 942 572 l 915 403 l 679 403 l 678 175 l 938 175 l 910 0 l 456 0 l 461 201 l 261 201 l 188 0 l -74 0 l 351 965 l 1006 965 l 954 792 m 465 376 l 476 788 l 325 376 l 465 376 m 836 1082 l 469 1082 l 494 1244 l 861 1244 l 836 1082 z "},"B":{"ha":710,"x_min":-1,"x_max":715,"o":"m 517 510 q 685 319 685 474 q 575 83 685 165 q 279 0 465 0 l -1 0 l 135 965 l 390 965 q 628 909 542 965 q 715 747 715 853 q 660 592 715 653 q 517 510 604 532 m 356 582 q 442 619 414 582 q 469 721 469 657 q 392 793 469 793 l 351 793 l 322 582 l 356 582 m 304 176 q 407 221 374 176 q 440 333 440 265 q 418 401 440 379 q 347 422 396 422 l 300 422 l 267 176 l 304 176 z "},"Ḃ":{"ha":710,"x_min":-1,"x_max":715,"o":"m 517 510 q 685 319 685 474 q 575 83 685 165 q 279 0 465 0 l -1 0 l 135 965 l 390 965 q 628 909 542 965 q 715 747 715 853 q 660 592 715 653 q 517 510 604 532 m 356 582 q 442 619 414 582 q 469 721 469 657 q 392 793 469 793 l 351 793 l 322 582 l 356 582 m 304 176 q 407 221 374 176 q 440 333 440 265 q 418 401 440 379 q 347 422 396 422 l 300 422 l 267 176 l 304 176 m 433 1046 q 347 1076 378 1046 q 315 1158 315 1107 q 358 1266 315 1224 q 463 1308 400 1308 q 549 1278 518 1308 q 581 1196 581 1247 q 538 1088 581 1131 q 433 1046 496 1046 z "},"Ḅ":{"ha":710,"x_min":-1,"x_max":715,"o":"m 517 510 q 685 319 685 474 q 575 83 685 165 q 279 0 465 0 l -1 0 l 135 965 l 390 965 q 628 909 542 965 q 715 747 715 853 q 660 592 715 653 q 517 510 604 532 m 356 582 q 442 619 414 582 q 469 721 469 657 q 392 793 469 793 l 351 793 l 322 582 l 356 582 m 304 176 q 407 221 374 176 q 440 333 440 265 q 418 401 440 379 q 347 422 396 422 l 300 422 l 267 176 l 304 176 m 285 -81 q 372 -111 340 -81 q 403 -193 403 -142 q 360 -301 403 -258 q 256 -343 318 -343 q 169 -312 200 -343 q 138 -231 138 -282 q 180 -123 138 -165 q 285 -81 222 -81 z "},"Ꞵ":{"ha":710,"x_min":-42,"x_max":704,"o":"m 517 510 q 639 450 593 497 q 685 319 685 403 q 637 147 685 219 q 511 37 589 74 q 343 0 433 0 q 243 10 299 0 l 200 -296 l -42 -296 l 136 965 l 379 965 q 618 908 532 965 q 704 742 704 850 q 650 588 704 647 q 517 510 596 528 m 331 422 l 367 582 l 375 582 q 435 618 413 582 q 458 718 458 654 q 388 793 458 793 l 353 793 l 267 181 q 317 176 292 176 q 408 220 376 176 q 440 333 440 264 q 419 400 440 378 q 356 422 399 422 l 331 422 z "},"Ɓ":{"ha":921,"x_min":57,"x_max":926,"o":"m 728 510 q 896 319 896 474 q 786 83 896 165 q 490 0 676 0 l 210 0 l 321 790 l 289 790 q 248 771 263 790 q 233 714 233 751 q 238 667 233 690 q 243 638 242 643 l 85 582 q 57 721 57 650 q 126 899 57 832 q 306 965 194 965 l 601 965 q 840 909 753 965 q 926 747 926 853 q 871 592 926 653 q 728 510 815 532 m 567 582 q 653 619 625 582 q 681 721 681 657 q 603 793 681 793 l 563 793 l 533 582 l 567 582 m 515 176 q 618 221 585 176 q 651 333 651 265 q 629 401 651 379 q 558 422 607 422 l 511 422 l 478 176 l 515 176 z "},"Ƀ":{"ha":718,"x_min":-7,"x_max":724,"o":"m 525 510 q 693 319 693 474 q 583 83 693 165 q 288 0 474 0 l 7 0 l 42 246 l -7 246 l 8 360 l 58 360 l 143 965 l 399 965 q 637 909 550 965 q 724 747 724 853 q 668 592 724 653 q 525 510 613 532 m 364 582 q 450 619 422 582 q 478 721 478 657 q 400 793 478 793 l 360 793 l 331 582 l 364 582 m 313 176 q 415 221 382 176 q 449 333 449 265 q 426 401 449 379 q 356 422 404 422 l 308 422 l 300 360 l 394 360 l 379 246 l 285 246 l 275 176 l 313 176 z "},"Ƃ":{"ha":697,"x_min":0,"x_max":681,"o":"m 381 625 q 600 558 519 625 q 681 364 681 490 q 642 188 681 271 q 522 53 604 106 q 311 0 439 0 l 0 0 l 135 965 l 667 965 l 615 779 l 350 779 l 329 625 l 381 625 m 304 176 q 398 228 368 176 q 428 357 428 281 q 409 431 428 407 q 349 456 390 456 l 306 456 l 267 176 l 304 176 z "},"C":{"ha":672,"x_min":39,"x_max":738,"o":"m 494 990 q 738 879 642 990 l 614 754 q 492 810 556 810 q 375 736 421 810 q 309 553 329 663 q 289 332 289 443 q 315 203 289 243 q 393 163 342 163 q 464 180 431 163 q 546 233 497 197 l 633 100 q 343 -25 503 -25 q 121 69 203 -25 q 39 347 39 164 q 90 668 39 522 q 243 902 140 814 q 494 990 346 990 z "},"Ć":{"ha":672,"x_min":39,"x_max":738,"o":"m 494 990 q 738 879 642 990 l 614 754 q 492 810 556 810 q 375 736 421 810 q 309 553 329 663 q 289 332 289 443 q 315 203 289 243 q 393 163 342 163 q 464 180 431 163 q 546 233 497 197 l 633 100 q 343 -25 503 -25 q 121 69 203 -25 q 39 347 39 164 q 90 668 39 522 q 243 902 140 814 q 494 990 346 990 m 631 1319 l 708 1154 l 404 1035 l 350 1144 l 631 1319 z "},"Č":{"ha":672,"x_min":39,"x_max":763,"o":"m 494 990 q 738 879 642 990 l 614 754 q 492 810 556 810 q 375 736 421 810 q 309 553 329 663 q 289 332 289 443 q 315 203 289 243 q 393 163 342 163 q 464 180 431 163 q 546 233 497 197 l 633 100 q 343 -25 503 -25 q 121 69 203 -25 q 39 347 39 164 q 90 668 39 522 q 243 902 140 814 q 494 990 346 990 m 679 1317 l 763 1225 l 568 1040 l 431 1040 l 282 1238 l 374 1317 l 514 1197 l 679 1317 z "},"Ç":{"ha":672,"x_min":39,"x_max":738,"o":"m 633 100 q 390 -22 525 -6 l 383 -71 q 465 -109 436 -79 q 493 -189 493 -139 q 473 -272 493 -231 q 405 -342 453 -314 q 281 -369 357 -369 q 202 -357 238 -369 q 143 -324 167 -344 l 208 -225 q 276 -244 243 -244 q 317 -233 301 -244 q 332 -200 332 -222 q 309 -168 332 -178 q 232 -158 286 -158 l 267 -17 q 99 99 160 7 q 39 347 39 190 q 90 668 39 522 q 243 902 140 814 q 494 990 346 990 q 738 879 642 990 l 614 754 q 492 810 556 810 q 375 736 421 810 q 309 553 329 663 q 289 332 289 443 q 315 203 289 243 q 393 163 342 163 q 464 180 431 163 q 546 233 497 197 l 633 100 z "},"Ĉ":{"ha":672,"x_min":39,"x_max":744,"o":"m 494 990 q 738 879 642 990 l 614 754 q 492 810 556 810 q 375 736 421 810 q 309 553 329 663 q 289 332 289 443 q 315 203 289 243 q 393 163 342 163 q 464 180 431 163 q 546 233 497 197 l 633 100 q 343 -25 503 -25 q 121 69 203 -25 q 39 347 39 164 q 90 668 39 522 q 243 902 140 814 q 494 990 346 990 m 347 1051 l 264 1142 l 458 1328 l 596 1328 l 744 1131 l 653 1051 l 513 1169 l 347 1051 z "},"Ċ":{"ha":672,"x_min":39,"x_max":738,"o":"m 494 990 q 738 879 642 990 l 614 754 q 492 810 556 810 q 375 736 421 810 q 309 553 329 663 q 289 332 289 443 q 315 203 289 243 q 393 163 342 163 q 464 180 431 163 q 546 233 497 197 l 633 100 q 343 -25 503 -25 q 121 69 203 -25 q 39 347 39 164 q 90 668 39 522 q 243 902 140 814 q 494 990 346 990 m 508 1046 q 422 1076 453 1046 q 390 1158 390 1107 q 433 1266 390 1224 q 538 1308 475 1308 q 624 1278 593 1308 q 656 1196 656 1247 q 613 1088 656 1131 q 508 1046 571 1046 z "},"Ꭓ":{"ha":671,"x_min":-97,"x_max":756,"o":"m 756 965 l 478 400 l 600 -232 l 350 -232 l 308 235 l 165 -232 l -97 -232 l 190 397 l 88 965 l 338 965 l 361 550 l 501 965 l 756 965 z "},"Ƈ":{"ha":672,"x_min":39,"x_max":950,"o":"m 788 1188 q 950 1135 881 1188 l 869 993 q 803 1015 835 1015 q 744 933 756 1015 l 738 879 l 619 760 q 556 797 586 785 q 492 810 525 810 q 375 736 421 810 q 309 553 329 663 q 289 332 289 443 q 315 203 289 243 q 393 163 342 163 q 464 180 431 163 q 546 233 497 197 l 633 100 q 343 -25 503 -25 q 121 69 203 -25 q 39 347 39 164 q 90 665 39 518 q 236 901 142 813 q 456 990 331 990 q 554 971 507 990 l 557 992 q 628 1133 571 1079 q 788 1188 686 1188 z "},"Ȼ":{"ha":672,"x_min":39,"x_max":738,"o":"m 393 163 q 464 180 431 163 q 546 233 497 197 l 633 100 q 343 -25 503 -25 q 275 -19 304 -25 l 244 -104 l 168 -83 l 200 6 q 81 131 122 46 q 39 347 39 217 q 90 668 39 522 q 243 902 140 814 q 494 990 346 990 q 554 985 531 990 l 578 1050 l 651 1029 l 628 964 q 738 879 689 936 l 614 754 q 565 790 590 778 l 344 174 q 393 163 367 163 m 289 332 q 294 264 289 290 l 490 810 q 375 735 421 810 q 309 552 329 661 q 289 332 289 443 z "},"D":{"ha":763,"x_min":-1,"x_max":754,"o":"m 393 965 q 657 890 560 965 q 754 621 754 815 q 637 167 754 335 q 271 0 519 0 l -1 0 l 135 965 l 393 965 m 351 789 l 267 176 l 308 176 q 427 247 382 176 q 491 420 472 317 q 510 629 510 524 q 483 752 510 715 q 400 789 456 789 l 351 789 z "},"Ǳ":{"ha":1354,"x_min":-1,"x_max":1410,"o":"m 393 965 q 657 890 560 965 q 754 621 754 815 q 637 167 754 335 q 271 0 519 0 l -1 0 l 135 965 l 393 965 m 351 789 l 267 176 l 308 176 q 427 247 382 176 q 491 420 472 317 q 510 629 510 524 q 483 752 510 715 q 400 789 456 789 l 351 789 m 685 0 l 711 182 l 1118 776 l 819 776 l 849 965 l 1410 965 l 1381 781 l 975 194 l 1318 194 l 1264 0 l 685 0 z "},"Ǆ":{"ha":1354,"x_min":-1,"x_max":1410,"o":"m 393 965 q 657 890 560 965 q 754 621 754 815 q 637 167 754 335 q 271 0 519 0 l -1 0 l 135 965 l 393 965 m 351 789 l 267 176 l 308 176 q 427 247 382 176 q 491 420 472 317 q 510 629 510 524 q 483 752 510 715 q 400 789 456 789 l 351 789 m 685 0 l 711 182 l 1118 776 l 819 776 l 849 965 l 1410 965 l 1381 781 l 975 194 l 1318 194 l 1264 0 l 685 0 m 1314 1317 l 1397 1225 l 1203 1040 l 1065 1040 l 917 1238 l 1008 1317 l 1149 1197 l 1314 1317 z "},"Ɖ":{"ha":774,"x_min":10,"x_max":765,"o":"m 404 965 q 668 890 571 965 q 765 621 765 815 q 648 167 765 335 q 282 0 531 0 l 10 0 l 68 418 l 17 418 l 39 563 l 89 563 l 146 965 l 404 965 m 319 176 q 438 247 393 176 q 502 420 483 317 q 521 629 521 524 q 494 752 521 715 q 411 789 467 789 l 363 789 l 331 563 l 461 563 l 438 418 l 311 418 l 278 176 l 319 176 z "},"Ð":{"ha":774,"x_min":10,"x_max":765,"o":"m 404 965 q 668 890 571 965 q 765 621 765 815 q 648 167 765 335 q 282 0 531 0 l 10 0 l 68 418 l 17 418 l 39 563 l 89 563 l 146 965 l 404 965 m 319 176 q 438 247 393 176 q 502 420 483 317 q 521 629 521 524 q 494 752 521 715 q 411 789 467 789 l 363 789 l 331 563 l 461 563 l 438 418 l 311 418 l 278 176 l 319 176 z "},"Ď":{"ha":763,"x_min":-1,"x_max":754,"o":"m 393 965 q 657 890 560 965 q 754 621 754 815 q 637 167 754 335 q 271 0 519 0 l -1 0 l 135 965 l 393 965 m 351 789 l 267 176 l 308 176 q 427 247 382 176 q 491 420 472 317 q 510 629 510 524 q 483 752 510 715 q 400 789 456 789 l 351 789 m 613 1317 l 696 1225 l 501 1040 l 364 1040 l 215 1238 l 307 1317 l 447 1197 l 613 1317 z "},"Ḓ":{"ha":763,"x_min":-1,"x_max":754,"o":"m 393 965 q 657 890 560 965 q 754 621 754 815 q 637 167 754 335 q 271 0 519 0 l -1 0 l 135 965 l 393 965 m 351 789 l 267 176 l 308 176 q 427 247 382 176 q 491 420 472 317 q 510 629 510 524 q 483 752 510 715 q 400 789 456 789 l 351 789 m 90 -374 l 14 -283 l 207 -86 l 346 -86 l 493 -294 l 397 -374 l 263 -244 l 90 -374 z "},"Đ":{"ha":774,"x_min":10,"x_max":765,"o":"m 404 965 q 668 890 571 965 q 765 621 765 815 q 648 167 765 335 q 282 0 531 0 l 10 0 l 68 418 l 17 418 l 39 563 l 89 563 l 146 965 l 404 965 m 319 176 q 438 247 393 176 q 502 420 483 317 q 521 629 521 524 q 494 752 521 715 q 411 789 467 789 l 363 789 l 331 563 l 461 563 l 438 418 l 311 418 l 278 176 l 319 176 z "},"Ḋ":{"ha":763,"x_min":-1,"x_max":754,"o":"m 393 965 q 657 890 560 965 q 754 621 754 815 q 637 167 754 335 q 271 0 519 0 l -1 0 l 135 965 l 393 965 m 351 789 l 267 176 l 308 176 q 427 247 382 176 q 491 420 472 317 q 510 629 510 524 q 483 752 510 715 q 400 789 456 789 l 351 789 m 442 1046 q 355 1076 386 1046 q 324 1158 324 1107 q 366 1266 324 1224 q 471 1308 408 1308 q 558 1278 526 1308 q 589 1196 589 1247 q 547 1088 589 1131 q 442 1046 504 1046 z "},"Ḍ":{"ha":763,"x_min":-1,"x_max":754,"o":"m 393 965 q 657 890 560 965 q 754 621 754 815 q 637 167 754 335 q 271 0 519 0 l -1 0 l 135 965 l 393 965 m 351 789 l 267 176 l 308 176 q 427 247 382 176 q 491 420 472 317 q 510 629 510 524 q 483 752 510 715 q 400 789 456 789 l 351 789 m 276 -81 q 363 -111 332 -81 q 394 -193 394 -142 q 352 -301 394 -258 q 247 -343 310 -343 q 160 -312 192 -343 q 129 -231 129 -282 q 172 -123 129 -165 q 276 -81 214 -81 z "},"Ɗ":{"ha":972,"x_min":57,"x_max":964,"o":"m 603 965 q 867 890 769 965 q 964 621 964 815 q 847 167 964 335 q 481 0 729 0 l 208 0 l 319 790 l 289 790 q 248 771 263 790 q 233 714 233 751 q 238 667 233 690 q 243 638 242 643 l 85 582 q 57 721 57 650 q 126 899 57 832 q 306 965 194 965 l 603 965 m 518 176 q 637 247 592 176 q 701 420 682 317 q 719 629 719 524 q 692 752 719 715 q 610 789 665 789 l 561 789 l 476 176 l 518 176 z "},"Ḏ":{"ha":763,"x_min":-1,"x_max":754,"o":"m 393 965 q 657 890 560 965 q 754 621 754 815 q 637 167 754 335 q 271 0 519 0 l -1 0 l 135 965 l 393 965 m 351 789 l 267 176 l 308 176 q 427 247 382 176 q 491 420 472 317 q 510 629 510 524 q 483 752 510 715 q 400 789 456 789 l 351 789 m 107 -107 l 474 -107 l 449 -269 l 82 -269 l 107 -107 z "},"Ƌ":{"ha":694,"x_min":1,"x_max":725,"o":"m 590 0 l 308 0 q 81 72 160 0 q 1 274 1 143 q 48 465 1 386 q 177 583 94 543 q 367 624 260 624 l 436 624 l 457 779 l 172 779 l 199 965 l 725 965 l 590 0 m 374 176 l 413 456 l 369 456 q 284 410 313 456 q 256 285 256 364 q 278 203 256 229 q 347 176 300 176 l 374 176 z "},"ǲ":{"ha":1286,"x_min":-1,"x_max":1317,"o":"m 393 965 q 657 890 560 965 q 754 621 754 815 q 637 167 754 335 q 271 0 519 0 l -1 0 l 135 965 l 393 965 m 351 789 l 267 176 l 308 176 q 427 247 382 176 q 491 420 472 317 q 510 629 510 524 q 483 752 510 715 q 400 789 456 789 l 351 789 m 1317 740 l 1293 575 l 1001 178 l 1250 178 l 1203 0 l 704 0 l 728 167 l 1019 564 l 803 564 l 829 740 l 1317 740 z "},"ǅ":{"ha":1286,"x_min":-1,"x_max":1350,"o":"m 393 965 q 657 890 560 965 q 754 621 754 815 q 637 167 754 335 q 271 0 519 0 l -1 0 l 135 965 l 393 965 m 351 789 l 267 176 l 308 176 q 427 247 382 176 q 491 420 472 317 q 510 629 510 524 q 483 752 510 715 q 400 789 456 789 l 351 789 m 1317 740 l 1293 575 l 1001 178 l 1250 178 l 1203 0 l 704 0 l 728 167 l 1019 564 l 803 564 l 829 740 l 1317 740 m 1274 1132 l 1350 1042 l 1157 846 l 1018 846 l 882 1042 l 967 1132 l 1101 1003 l 1274 1132 z "},"E":{"ha":588,"x_min":-1,"x_max":654,"o":"m 654 965 l 601 792 l 353 792 l 322 575 l 544 575 l 518 404 l 297 404 l 267 175 l 538 175 l 513 0 l -1 0 l 135 965 l 654 965 z "},"É":{"ha":588,"x_min":-1,"x_max":654,"o":"m 654 965 l 601 792 l 353 792 l 322 575 l 544 575 l 518 404 l 297 404 l 267 175 l 538 175 l 513 0 l -1 0 l 135 965 l 654 965 m 536 1319 l 614 1154 l 310 1035 l 256 1144 l 536 1319 z "},"Ĕ":{"ha":588,"x_min":-1,"x_max":654,"o":"m 654 965 l 601 792 l 353 792 l 322 575 l 544 575 l 518 404 l 297 404 l 267 175 l 538 175 l 513 0 l -1 0 l 135 965 l 654 965 m 408 1040 q 271 1099 317 1040 q 225 1249 225 1158 q 226 1278 225 1268 l 344 1297 q 365 1228 347 1254 q 421 1203 383 1203 q 524 1300 490 1203 l 644 1274 q 566 1106 625 1171 q 408 1040 507 1040 z "},"Ě":{"ha":588,"x_min":-1,"x_max":668,"o":"m 654 965 l 601 792 l 353 792 l 322 575 l 544 575 l 518 404 l 297 404 l 267 175 l 538 175 l 513 0 l -1 0 l 135 965 l 654 965 m 585 1317 l 668 1225 l 474 1040 l 336 1040 l 188 1238 l 279 1317 l 419 1197 l 585 1317 z "},"Ȩ":{"ha":588,"x_min":-1,"x_max":654,"o":"m 353 792 l 322 575 l 544 575 l 518 404 l 297 404 l 267 175 l 538 175 l 513 0 l 317 0 l 306 -71 q 387 -109 358 -79 q 415 -189 415 -139 q 395 -272 415 -231 q 327 -342 375 -314 q 203 -369 279 -369 q 124 -357 160 -369 q 65 -324 89 -344 l 131 -225 q 199 -244 165 -244 q 239 -233 224 -244 q 254 -200 254 -222 q 231 -168 254 -178 q 154 -158 208 -158 l 193 0 l -1 0 l 135 965 l 654 965 l 601 792 l 353 792 z "},"Ê":{"ha":588,"x_min":-1,"x_max":654,"o":"m 654 965 l 601 792 l 353 792 l 322 575 l 544 575 l 518 404 l 297 404 l 267 175 l 538 175 l 513 0 l -1 0 l 135 965 l 654 965 m 253 1051 l 169 1142 l 364 1328 l 501 1328 l 650 1131 l 558 1051 l 418 1169 l 253 1051 z "},"Ế":{"ha":588,"x_min":-1,"x_max":849,"o":"m 738 1539 l 849 1421 l 618 1215 l 539 1286 l 738 1539 m 247 1008 l 164 1099 l 358 1285 l 496 1285 l 644 1088 l 553 1008 l 413 1126 l 247 1008 m 654 965 l 601 792 l 353 792 l 322 575 l 544 575 l 518 404 l 297 404 l 267 175 l 538 175 l 513 0 l -1 0 l 135 965 l 654 965 z "},"Ệ":{"ha":588,"x_min":-1,"x_max":654,"o":"m 654 965 l 601 792 l 353 792 l 322 575 l 544 575 l 518 404 l 297 404 l 267 175 l 538 175 l 513 0 l -1 0 l 135 965 l 654 965 m 253 1051 l 169 1142 l 364 1328 l 501 1328 l 650 1131 l 558 1051 l 418 1169 l 253 1051 m 239 -81 q 326 -111 294 -81 q 357 -193 357 -142 q 315 -301 357 -258 q 210 -343 272 -343 q 123 -312 154 -343 q 92 -231 92 -282 q 134 -123 92 -165 q 239 -81 176 -81 z "},"Ề":{"ha":588,"x_min":-1,"x_max":654,"o":"m 190 1535 l 318 1281 l 219 1215 l 49 1431 l 190 1535 m 251 1008 l 168 1099 l 363 1285 l 500 1285 l 649 1088 l 557 1008 l 417 1126 l 251 1008 m 654 965 l 601 792 l 353 792 l 322 575 l 544 575 l 518 404 l 297 404 l 267 175 l 538 175 l 513 0 l -1 0 l 135 965 l 654 965 z "},"Ể":{"ha":588,"x_min":-1,"x_max":817,"o":"m 654 965 l 601 792 l 353 792 l 322 575 l 544 575 l 518 404 l 297 404 l 267 175 l 538 175 l 513 0 l -1 0 l 135 965 l 654 965 m 246 1008 l 163 1099 l 357 1285 l 494 1285 l 643 1088 l 551 1008 l 411 1126 l 246 1008 m 581 1325 q 648 1342 628 1328 q 668 1385 668 1356 q 631 1419 668 1419 q 599 1415 614 1419 q 563 1401 583 1411 l 542 1497 q 672 1532 600 1532 q 778 1496 740 1532 q 817 1401 817 1460 q 785 1307 817 1343 q 699 1258 753 1271 l 692 1200 l 565 1200 l 581 1325 z "},"Ễ":{"ha":588,"x_min":-1,"x_max":690,"o":"m 513 1322 q 474 1331 492 1322 q 435 1354 457 1339 q 409 1371 422 1364 q 386 1378 396 1378 q 353 1365 368 1378 q 319 1322 339 1351 l 225 1376 q 304 1488 257 1443 q 400 1532 351 1532 q 445 1523 426 1532 q 485 1497 464 1514 q 508 1482 496 1489 q 532 1475 519 1475 q 561 1488 547 1475 q 592 1529 575 1500 l 690 1478 q 610 1366 658 1410 q 513 1322 563 1322 m 251 1008 l 168 1099 l 363 1285 l 500 1285 l 649 1088 l 557 1008 l 417 1126 l 251 1008 m 654 965 l 601 792 l 353 792 l 322 575 l 544 575 l 518 404 l 297 404 l 267 175 l 538 175 l 513 0 l -1 0 l 135 965 l 654 965 z "},"Ȅ":{"ha":588,"x_min":-1,"x_max":654,"o":"m 654 965 l 601 792 l 353 792 l 322 575 l 544 575 l 518 404 l 297 404 l 267 175 l 538 175 l 513 0 l -1 0 l 135 965 l 654 965 m 296 1378 l 378 1092 l 251 1042 l 131 1310 l 296 1378 m 510 1376 l 583 1090 l 458 1047 l 346 1315 l 510 1376 z "},"Ë":{"ha":588,"x_min":-1,"x_max":676,"o":"m 654 965 l 601 792 l 353 792 l 322 575 l 544 575 l 518 404 l 297 404 l 267 175 l 538 175 l 513 0 l -1 0 l 135 965 l 654 965 m 265 1063 q 192 1090 218 1063 q 165 1161 165 1117 q 202 1254 165 1217 q 292 1292 239 1292 q 366 1265 339 1292 q 393 1193 393 1239 q 356 1100 393 1138 q 265 1063 319 1063 m 549 1063 q 476 1090 503 1063 q 449 1161 449 1117 q 485 1254 449 1217 q 575 1292 522 1292 q 649 1265 622 1292 q 676 1193 676 1238 q 640 1100 676 1138 q 549 1063 603 1063 z "},"Ė":{"ha":588,"x_min":-1,"x_max":654,"o":"m 654 965 l 601 792 l 353 792 l 322 575 l 544 575 l 518 404 l 297 404 l 267 175 l 538 175 l 513 0 l -1 0 l 135 965 l 654 965 m 414 1046 q 327 1076 358 1046 q 296 1158 296 1107 q 338 1266 296 1224 q 443 1308 381 1308 q 530 1278 499 1308 q 561 1196 561 1247 q 519 1088 561 1131 q 414 1046 476 1046 z "},"Ẹ":{"ha":588,"x_min":-1,"x_max":654,"o":"m 654 965 l 601 792 l 353 792 l 322 575 l 544 575 l 518 404 l 297 404 l 267 175 l 538 175 l 513 0 l -1 0 l 135 965 l 654 965 m 239 -81 q 326 -111 294 -81 q 357 -193 357 -142 q 315 -301 357 -258 q 210 -343 272 -343 q 123 -312 154 -343 q 92 -231 92 -282 q 134 -123 92 -165 q 239 -81 176 -81 z "},"È":{"ha":588,"x_min":-1,"x_max":654,"o":"m 654 965 l 601 792 l 353 792 l 322 575 l 544 575 l 518 404 l 297 404 l 267 175 l 538 175 l 513 0 l -1 0 l 135 965 l 654 965 m 363 1315 l 607 1139 l 539 1036 l 265 1153 l 363 1315 z "},"Ẻ":{"ha":588,"x_min":-1,"x_max":654,"o":"m 654 965 l 601 792 l 353 792 l 322 575 l 544 575 l 518 404 l 297 404 l 267 175 l 538 175 l 513 0 l -1 0 l 135 965 l 654 965 m 360 1186 q 427 1203 407 1189 q 447 1246 447 1217 q 410 1281 447 1281 q 378 1276 393 1281 q 342 1263 363 1272 l 321 1358 q 451 1393 379 1393 q 558 1357 519 1393 q 596 1263 596 1321 q 564 1168 596 1204 q 478 1119 532 1132 l 471 1061 l 344 1061 l 360 1186 z "},"Ȇ":{"ha":588,"x_min":-1,"x_max":654,"o":"m 654 965 l 601 792 l 353 792 l 322 575 l 544 575 l 518 404 l 297 404 l 267 175 l 538 175 l 513 0 l -1 0 l 135 965 l 654 965 m 197 1081 q 283 1259 221 1190 q 442 1328 344 1328 q 581 1267 535 1328 q 626 1108 626 1206 q 625 1078 626 1089 l 500 1060 q 425 1165 496 1165 q 360 1136 388 1165 q 315 1056 332 1107 l 197 1081 z "},"Ē":{"ha":588,"x_min":-1,"x_max":654,"o":"m 654 965 l 601 792 l 353 792 l 322 575 l 544 575 l 518 404 l 297 404 l 267 175 l 538 175 l 513 0 l -1 0 l 135 965 l 654 965 m 589 1082 l 222 1082 l 247 1244 l 614 1244 l 589 1082 z "},"Ę":{"ha":588,"x_min":-1,"x_max":654,"o":"m 353 792 l 322 575 l 544 575 l 518 404 l 297 404 l 267 175 l 538 175 l 513 0 l 468 0 q 318 -156 318 -67 q 371 -201 318 -201 q 435 -194 396 -201 l 403 -333 q 318 -344 363 -344 q 201 -303 246 -344 q 156 -189 156 -261 q 272 0 156 -76 l -1 0 l 135 965 l 654 965 l 601 792 l 353 792 z "},"Ɛ":{"ha":625,"x_min":-1,"x_max":690,"o":"m 424 989 q 579 957 517 989 q 690 858 642 925 l 564 742 q 503 796 532 778 q 439 814 474 814 q 366 776 393 814 q 339 681 339 739 q 429 594 339 594 l 503 594 l 451 421 l 403 421 q 288 378 329 421 q 247 258 247 336 q 269 179 247 204 q 335 154 290 154 q 410 173 374 154 q 492 232 446 192 l 597 110 q 290 -25 474 -25 q 77 44 156 -25 q -1 229 -1 113 q 68 428 -1 357 q 265 511 138 499 q 96 697 96 547 q 142 850 96 783 q 265 953 189 917 q 424 989 340 989 z "},"Ǝ":{"ha":581,"x_min":-36,"x_max":611,"o":"m 101 965 l 611 965 l 476 0 l -36 0 l -11 175 l 258 175 l 292 404 l 68 404 l 93 575 l 315 575 l 346 792 l 76 792 l 101 965 z "},"Ʃ":{"ha":579,"x_min":-33,"x_max":643,"o":"m 643 965 l 618 789 l 318 789 l 457 514 l 446 422 l 249 181 l 538 181 l 511 0 l -33 0 l -7 176 l 238 485 l 74 789 l 100 965 l 643 965 z "},"Ɇ":{"ha":588,"x_min":-1,"x_max":654,"o":"m 601 792 l 561 792 l 483 575 l 544 575 l 518 404 l 422 404 l 339 175 l 538 175 l 513 0 l 276 0 l 239 -104 l 165 -83 l 196 0 l -1 0 l 135 965 l 542 965 l 572 1050 l 647 1029 l 624 965 l 654 965 l 601 792 m 401 575 l 479 792 l 353 792 l 322 575 l 401 575 m 272 214 l 340 404 l 297 404 l 272 214 z "},"Ẽ":{"ha":588,"x_min":-1,"x_max":661,"o":"m 654 965 l 601 792 l 353 792 l 322 575 l 544 575 l 518 404 l 297 404 l 267 175 l 538 175 l 513 0 l -1 0 l 135 965 l 654 965 m 481 1051 q 442 1060 460 1051 q 401 1088 425 1069 q 388 1098 399 1090 q 368 1109 376 1106 q 351 1113 360 1113 q 319 1098 333 1113 q 285 1051 304 1083 l 188 1110 q 269 1231 221 1183 q 365 1279 317 1279 q 411 1269 392 1279 q 453 1242 431 1260 q 500 1218 482 1218 q 529 1232 515 1218 q 561 1276 543 1246 l 661 1221 q 579 1099 628 1146 q 481 1051 531 1051 z "},"Ʒ":{"ha":640,"x_min":-29,"x_max":661,"o":"m 635 794 l 418 560 q 569 494 517 551 q 621 336 621 436 q 571 143 621 225 q 437 18 521 61 q 251 -25 353 -25 q 81 13 147 -25 q -29 122 15 50 l 110 235 q 175 173 144 192 q 249 154 206 154 q 338 201 301 154 q 374 322 374 247 q 275 422 374 422 l 154 422 l 174 557 l 381 789 l 111 789 l 139 965 l 661 965 l 635 794 z "},"Ǯ":{"ha":640,"x_min":-29,"x_max":674,"o":"m 635 794 l 418 560 q 569 494 517 551 q 621 336 621 436 q 571 143 621 225 q 437 18 521 61 q 251 -25 353 -25 q 81 13 147 -25 q -29 122 15 50 l 110 235 q 175 173 144 192 q 249 154 206 154 q 338 201 301 154 q 374 322 374 247 q 275 422 374 422 l 154 422 l 174 557 l 381 789 l 111 789 l 139 965 l 661 965 l 635 794 m 590 1317 l 674 1225 l 479 1040 l 342 1040 l 193 1238 l 285 1317 l 425 1197 l 590 1317 z "},"Ƹ":{"ha":644,"x_min":-3,"x_max":667,"o":"m 639 789 l 354 789 l 519 554 l 497 424 l 499 422 l 389 422 q 283 380 318 422 q 249 258 249 338 q 331 154 249 154 q 409 175 371 154 q 494 240 447 196 l 603 119 q 469 12 543 49 q 294 -25 394 -25 q 76 49 154 -25 q -3 250 -3 124 q 35 406 -3 338 q 138 515 72 475 q 288 560 204 554 l 118 794 l 146 965 l 667 965 l 639 789 z "},"F":{"ha":551,"x_min":-1,"x_max":636,"o":"m 636 965 l 582 792 l 353 792 l 319 549 l 526 549 l 499 374 l 294 374 l 240 0 l -1 0 l 135 965 l 636 965 z "},"Ḟ":{"ha":551,"x_min":-1,"x_max":636,"o":"m 636 965 l 582 792 l 353 792 l 319 549 l 526 549 l 499 374 l 294 374 l 240 0 l -1 0 l 135 965 l 636 965 m 404 1046 q 317 1076 349 1046 q 286 1158 286 1107 q 328 1266 286 1224 q 433 1308 371 1308 q 520 1278 489 1308 q 551 1196 551 1247 q 509 1088 551 1131 q 404 1046 467 1046 z "},"Ƒ":{"ha":551,"x_min":-242,"x_max":636,"o":"m 353 792 l 319 549 l 526 549 l 499 374 l 294 374 l 240 0 l 233 -54 q 135 -245 215 -179 q -64 -311 54 -311 q -242 -249 -176 -311 l -144 -110 q -110 -128 -125 -122 q -76 -133 -96 -133 q -31 -115 -49 -133 q -10 -64 -14 -97 l -1 0 l 135 965 l 636 965 l 582 792 l 353 792 z "},"G":{"ha":754,"x_min":36,"x_max":783,"o":"m 518 990 q 783 868 681 990 l 654 750 q 587 799 619 783 q 514 814 554 814 q 379 736 432 814 q 303 541 326 658 q 281 299 281 424 q 302 187 281 221 q 365 153 324 153 q 457 183 414 153 l 486 389 l 407 389 l 410 558 l 736 558 l 669 79 q 513 2 597 29 q 353 -25 429 -25 q 36 335 36 -25 q 92 660 36 511 q 258 900 149 810 q 518 990 367 990 z "},"Ǵ":{"ha":754,"x_min":36,"x_max":783,"o":"m 518 990 q 783 868 681 990 l 654 750 q 587 799 619 783 q 514 814 554 814 q 379 736 432 814 q 303 541 326 658 q 281 299 281 424 q 302 187 281 221 q 365 153 324 153 q 457 183 414 153 l 486 389 l 407 389 l 410 558 l 736 558 l 669 79 q 513 2 597 29 q 353 -25 429 -25 q 36 335 36 -25 q 92 660 36 511 q 258 900 149 810 q 518 990 367 990 m 642 1319 l 719 1154 l 415 1035 l 361 1144 l 642 1319 z "},"Ɣ":{"ha":672,"x_min":63,"x_max":776,"o":"m 418 125 q 458 5 446 50 q 471 -87 471 -40 q 413 -253 471 -196 q 249 -310 354 -310 q 119 -267 163 -310 q 75 -149 75 -224 q 103 -14 75 -81 q 189 133 132 53 l 63 965 l 308 965 l 332 292 l 529 965 l 776 965 l 418 125 m 304 -93 q 290 11 304 -46 q 242 -128 242 -78 q 265 -160 242 -160 q 304 -93 304 -160 z "},"Ğ":{"ha":754,"x_min":36,"x_max":783,"o":"m 518 990 q 783 868 681 990 l 654 750 q 587 799 619 783 q 514 814 554 814 q 379 736 432 814 q 303 541 326 658 q 281 299 281 424 q 302 187 281 221 q 365 153 324 153 q 457 183 414 153 l 486 389 l 407 389 l 410 558 l 736 558 l 669 79 q 513 2 597 29 q 353 -25 429 -25 q 36 335 36 -25 q 92 660 36 511 q 258 900 149 810 q 518 990 367 990 m 514 1040 q 376 1099 422 1040 q 331 1249 331 1158 q 332 1278 331 1268 l 450 1297 q 471 1228 453 1254 q 526 1203 489 1203 q 629 1300 596 1203 l 750 1274 q 672 1106 731 1171 q 514 1040 613 1040 z "},"Ǧ":{"ha":754,"x_min":36,"x_max":783,"o":"m 518 990 q 783 868 681 990 l 654 750 q 587 799 619 783 q 514 814 554 814 q 379 736 432 814 q 303 541 326 658 q 281 299 281 424 q 302 187 281 221 q 365 153 324 153 q 457 183 414 153 l 486 389 l 407 389 l 410 558 l 736 558 l 669 79 q 513 2 597 29 q 353 -25 429 -25 q 36 335 36 -25 q 92 660 36 511 q 258 900 149 810 q 518 990 367 990 m 690 1317 l 774 1225 l 579 1040 l 442 1040 l 293 1238 l 385 1317 l 525 1197 l 690 1317 z "},"Ĝ":{"ha":754,"x_min":36,"x_max":783,"o":"m 518 990 q 783 868 681 990 l 654 750 q 587 799 619 783 q 514 814 554 814 q 379 736 432 814 q 303 541 326 658 q 281 299 281 424 q 302 187 281 221 q 365 153 324 153 q 457 183 414 153 l 486 389 l 407 389 l 410 558 l 736 558 l 669 79 q 513 2 597 29 q 353 -25 429 -25 q 36 335 36 -25 q 92 660 36 511 q 258 900 149 810 q 518 990 367 990 m 358 1051 l 275 1142 l 469 1328 l 607 1328 l 756 1131 l 664 1051 l 524 1169 l 358 1051 z "},"Ģ":{"ha":754,"x_min":36,"x_max":783,"o":"m 518 990 q 783 868 681 990 l 654 750 q 587 799 619 783 q 514 814 554 814 q 379 736 432 814 q 303 541 326 658 q 281 299 281 424 q 302 187 281 221 q 365 153 324 153 q 457 183 414 153 l 486 389 l 407 389 l 410 558 l 736 558 l 669 79 q 513 2 597 29 q 353 -25 429 -25 q 36 335 36 -25 q 92 660 36 511 q 258 900 149 810 q 518 990 367 990 m 343 -92 q 415 -119 388 -92 q 443 -190 443 -147 q 432 -251 443 -222 q 393 -328 421 -279 l 318 -458 l 208 -458 l 263 -296 q 224 -221 224 -269 q 258 -128 224 -164 q 343 -92 292 -92 z "},"Ġ":{"ha":754,"x_min":36,"x_max":783,"o":"m 518 990 q 783 868 681 990 l 654 750 q 587 799 619 783 q 514 814 554 814 q 379 736 432 814 q 303 541 326 658 q 281 299 281 424 q 302 187 281 221 q 365 153 324 153 q 457 183 414 153 l 486 389 l 407 389 l 410 558 l 736 558 l 669 79 q 513 2 597 29 q 353 -25 429 -25 q 36 335 36 -25 q 92 660 36 511 q 258 900 149 810 q 518 990 367 990 m 519 1046 q 433 1076 464 1046 q 401 1158 401 1107 q 444 1266 401 1224 q 549 1308 486 1308 q 635 1278 604 1308 q 667 1196 667 1247 q 624 1088 667 1131 q 519 1046 582 1046 z "},"Ɠ":{"ha":721,"x_min":36,"x_max":999,"o":"m 836 1188 q 999 1135 929 1188 l 917 993 q 851 1015 885 1015 q 813 995 826 1015 q 792 933 799 975 l 783 868 l 667 757 q 593 801 629 788 q 514 814 557 814 q 379 736 432 814 q 303 541 326 658 q 281 299 281 424 q 302 187 281 221 q 367 153 324 153 q 457 183 414 153 l 486 389 l 408 389 l 410 558 l 736 558 l 669 79 q 513 2 597 29 q 353 -25 429 -25 q 36 335 36 -25 q 91 660 36 510 q 249 900 146 810 q 490 990 351 990 q 601 965 556 990 l 606 992 q 678 1133 621 1079 q 836 1188 735 1188 z "},"Ɂ":{"ha":619,"x_min":78,"x_max":642,"o":"m 186 463 l 238 482 q 354 564 315 511 q 393 706 393 617 q 317 814 393 814 q 248 796 281 814 q 172 740 215 778 l 78 861 q 214 958 146 926 q 368 989 282 989 q 567 917 493 989 q 642 722 642 846 q 595 526 642 601 q 453 410 549 451 l 418 394 l 363 0 l 121 0 l 186 463 z "},"Ǥ":{"ha":786,"x_min":36,"x_max":786,"o":"m 768 240 l 690 240 l 669 79 q 513 2 597 29 q 353 -25 429 -25 q 36 335 36 -25 q 92 660 36 511 q 258 900 149 810 q 518 990 367 990 q 783 868 681 990 l 654 750 q 587 799 619 783 q 514 814 554 814 q 379 736 432 814 q 303 541 326 658 q 281 299 281 424 q 302 187 281 221 q 365 153 324 153 q 468 185 415 153 l 475 240 l 388 240 l 404 372 l 493 372 l 501 442 l 413 442 l 408 583 l 735 583 l 707 372 l 786 372 l 768 240 z "},"Ȝ":{"ha":593,"x_min":-11,"x_max":614,"o":"m 358 990 q 544 926 475 990 q 614 760 614 863 q 555 590 614 656 q 374 496 496 525 q 520 447 472 492 q 568 315 568 401 q 404 12 568 131 q -11 -161 240 -107 l 3 15 q 174 88 108 51 q 278 178 240 124 q 315 314 315 233 q 290 385 315 364 q 207 407 265 407 l 131 407 l 181 581 l 239 581 q 333 621 303 581 q 364 729 364 661 q 301 814 364 814 q 232 796 268 814 q 150 739 196 778 l 61 863 q 358 990 193 990 z "},"H":{"ha":749,"x_min":-1,"x_max":779,"o":"m 240 0 l -1 0 l 135 965 l 376 965 l 324 596 l 486 596 l 538 965 l 779 965 l 644 0 l 403 0 l 460 406 l 299 406 l 240 0 z "},"Ħ":{"ha":767,"x_min":10,"x_max":825,"o":"m 825 825 l 806 692 l 753 692 l 656 0 l 414 0 l 471 406 l 310 406 l 251 0 l 10 0 l 107 692 l 53 692 l 71 825 l 126 825 l 146 965 l 388 965 l 368 825 l 529 825 l 549 965 l 790 965 l 771 825 l 825 825 m 497 596 l 511 692 l 349 692 l 335 596 l 497 596 z "},"Ȟ":{"ha":749,"x_min":-1,"x_max":779,"o":"m 240 0 l -1 0 l 135 965 l 376 965 l 324 596 l 486 596 l 538 965 l 779 965 l 644 0 l 403 0 l 460 406 l 299 406 l 240 0 m 649 1317 l 732 1225 l 538 1040 l 400 1040 l 251 1238 l 343 1317 l 483 1197 l 649 1317 z "},"Ĥ":{"ha":749,"x_min":-1,"x_max":779,"o":"m 240 0 l -1 0 l 135 965 l 376 965 l 324 596 l 486 596 l 538 965 l 779 965 l 644 0 l 403 0 l 460 406 l 299 406 l 240 0 m 317 1051 l 233 1142 l 428 1328 l 565 1328 l 714 1131 l 622 1051 l 482 1169 l 317 1051 z "},"Ḥ":{"ha":749,"x_min":-1,"x_max":779,"o":"m 240 0 l -1 0 l 135 965 l 376 965 l 324 596 l 486 596 l 538 965 l 779 965 l 644 0 l 403 0 l 460 406 l 299 406 l 240 0 m 303 -81 q 390 -111 358 -81 q 421 -193 421 -142 q 378 -301 421 -258 q 274 -343 336 -343 q 187 -312 218 -343 q 156 -231 156 -282 q 198 -123 156 -165 q 303 -81 240 -81 z "},"Ɦ":{"ha":958,"x_min":57,"x_max":989,"o":"m 989 965 l 854 0 l 613 0 l 669 406 l 508 406 l 450 0 l 208 0 l 319 790 l 289 790 q 248 771 263 790 q 233 714 233 751 q 238 667 233 690 q 243 638 242 643 l 85 582 q 57 721 57 650 q 126 899 57 832 q 306 965 194 965 l 586 965 l 533 596 l 696 596 l 747 965 l 989 965 z "},"Ɥ":{"ha":715,"x_min":43,"x_max":746,"o":"m 746 965 l 611 0 l 369 0 l 417 342 q 338 294 378 310 q 249 279 297 279 q 96 344 149 279 q 43 515 43 408 q 47 579 43 546 l 100 965 l 336 965 l 285 572 q 282 535 282 544 q 346 458 282 458 q 440 504 399 458 l 504 965 l 746 965 z "},"Ƕ":{"ha":1068,"x_min":-1,"x_max":1050,"o":"m 678 -25 q 495 39 557 -25 q 433 193 433 103 q 436 228 433 206 l 460 406 l 299 406 l 240 0 l -1 0 l 135 965 l 376 965 l 324 596 l 486 596 l 538 965 l 779 965 l 675 217 q 672 189 672 197 q 707 147 672 147 q 800 297 772 147 q 828 614 828 446 q 825 740 828 663 l 1043 740 q 1050 614 1050 664 q 1021 278 1050 417 q 910 58 992 140 q 678 -25 829 -25 z "},"I":{"ha":344,"x_min":-1,"x_max":376,"o":"m 376 965 l 240 0 l -1 0 l 135 965 l 376 965 z "},"Ĳ":{"ha":725,"x_min":-1,"x_max":758,"o":"m 376 965 l 240 0 l -1 0 l 135 965 l 376 965 m 643 140 q 576 -57 625 18 q 462 -172 528 -132 q 301 -244 396 -211 l 260 -75 q 361 10 332 -40 q 404 158 390 60 l 517 965 l 758 965 l 643 140 z "},"Í":{"ha":344,"x_min":-1,"x_max":475,"o":"m 376 965 l 240 0 l -1 0 l 135 965 l 376 965 m 397 1319 l 475 1154 l 171 1035 l 117 1144 l 397 1319 z "},"Ĭ":{"ha":344,"x_min":-1,"x_max":506,"o":"m 376 965 l 240 0 l -1 0 l 135 965 l 376 965 m 269 1040 q 132 1099 178 1040 q 86 1249 86 1158 q 88 1278 86 1268 l 206 1297 q 226 1228 208 1254 q 282 1203 244 1203 q 385 1300 351 1203 l 506 1274 q 427 1106 486 1171 q 269 1040 368 1040 z "},"Ǐ":{"ha":344,"x_min":-1,"x_max":529,"o":"m 376 965 l 240 0 l -1 0 l 135 965 l 376 965 m 446 1317 l 529 1225 l 335 1040 l 197 1040 l 49 1238 l 140 1317 l 281 1197 l 446 1317 z "},"Î":{"ha":344,"x_min":-1,"x_max":511,"o":"m 376 965 l 240 0 l -1 0 l 135 965 l 376 965 m 114 1051 l 31 1142 l 225 1328 l 363 1328 l 511 1131 l 419 1051 l 279 1169 l 114 1051 z "},"Ȉ":{"ha":344,"x_min":-8,"x_max":444,"o":"m 376 965 l 240 0 l -1 0 l 135 965 l 376 965 m 157 1378 l 239 1092 l 113 1042 l -8 1310 l 157 1378 m 371 1376 l 444 1090 l 319 1047 l 207 1315 l 371 1376 z "},"Ï":{"ha":344,"x_min":-1,"x_max":538,"o":"m 376 965 l 240 0 l -1 0 l 135 965 l 376 965 m 126 1063 q 53 1090 79 1063 q 26 1161 26 1117 q 63 1254 26 1217 q 153 1292 100 1292 q 227 1265 200 1292 q 254 1193 254 1239 q 217 1100 254 1138 q 126 1063 181 1063 m 410 1063 q 337 1090 364 1063 q 310 1161 310 1117 q 347 1254 310 1217 q 436 1292 383 1292 q 510 1265 483 1292 q 538 1193 538 1238 q 501 1100 538 1138 q 410 1063 464 1063 z "},"Ḯ":{"ha":344,"x_min":-1,"x_max":547,"o":"m 376 965 l 240 0 l -1 0 l 135 965 l 376 965 m 410 1544 l 521 1426 l 290 1221 l 211 1292 l 410 1544 m 117 1040 q 43 1067 69 1040 q 17 1139 17 1094 q 54 1232 17 1194 q 144 1269 92 1269 q 218 1242 192 1269 q 244 1171 244 1215 q 207 1078 244 1115 q 117 1040 169 1040 m 421 1040 q 347 1067 374 1040 q 319 1139 319 1094 q 357 1232 319 1194 q 447 1269 394 1269 q 521 1242 494 1269 q 547 1171 547 1215 q 510 1078 547 1115 q 421 1040 474 1040 z "},"İ":{"ha":344,"x_min":-1,"x_max":422,"o":"m 376 965 l 240 0 l -1 0 l 135 965 l 376 965 m 275 1046 q 188 1076 219 1046 q 157 1158 157 1107 q 199 1266 157 1224 q 304 1308 242 1308 q 391 1278 360 1308 q 422 1196 422 1247 q 380 1088 422 1131 q 275 1046 338 1046 z "},"Ị":{"ha":344,"x_min":-44,"x_max":376,"o":"m 376 965 l 240 0 l -1 0 l 135 965 l 376 965 m 103 -81 q 190 -111 158 -81 q 221 -193 221 -142 q 178 -301 221 -258 q 74 -343 136 -343 q -13 -312 18 -343 q -44 -231 -44 -282 q -2 -123 -44 -165 q 103 -81 40 -81 z "},"Ì":{"ha":344,"x_min":-1,"x_max":468,"o":"m 376 965 l 240 0 l -1 0 l 135 965 l 376 965 m 224 1315 l 468 1139 l 400 1036 l 126 1153 l 224 1315 z "},"Ỉ":{"ha":344,"x_min":-1,"x_max":457,"o":"m 376 965 l 240 0 l -1 0 l 135 965 l 376 965 m 221 1186 q 288 1203 268 1189 q 308 1246 308 1217 q 271 1281 308 1281 q 239 1276 254 1281 q 203 1263 224 1272 l 182 1358 q 313 1393 240 1393 q 419 1357 381 1393 q 457 1263 457 1321 q 425 1168 457 1204 q 339 1119 393 1132 l 332 1061 l 206 1061 l 221 1186 z "},"Ȋ":{"ha":344,"x_min":-1,"x_max":488,"o":"m 376 965 l 240 0 l -1 0 l 135 965 l 376 965 m 58 1081 q 144 1259 82 1190 q 303 1328 206 1328 q 442 1267 396 1328 q 488 1108 488 1206 q 486 1078 488 1089 l 361 1060 q 286 1165 357 1165 q 221 1136 249 1165 q 176 1056 193 1107 l 58 1081 z "},"Ī":{"ha":344,"x_min":-1,"x_max":475,"o":"m 376 965 l 240 0 l -1 0 l 135 965 l 376 965 m 450 1082 l 83 1082 l 108 1244 l 475 1244 l 450 1082 z "},"Į":{"ha":344,"x_min":-131,"x_max":376,"o":"m 376 965 l 240 0 l 182 0 q 32 -156 32 -67 q 85 -201 32 -201 q 149 -194 110 -201 l 117 -333 q 32 -344 76 -344 q -85 -303 -40 -344 q -131 -189 -131 -261 q 0 8 -131 -71 l 135 965 l 376 965 z "},"Ɩ":{"ha":467,"x_min":17,"x_max":435,"o":"m 435 33 q 247 -24 357 -24 q 77 32 138 -24 q 17 192 17 88 q 19 238 17 207 l 26 286 l 122 965 l 363 965 l 268 286 l 260 217 q 258 201 258 211 q 269 165 258 178 q 303 153 281 153 q 340 158 324 153 q 382 175 357 163 l 435 33 z "},"Ɨ":{"ha":392,"x_min":10,"x_max":419,"o":"m 419 589 l 396 411 l 325 411 l 267 0 l 25 0 l 83 411 l 10 411 l 33 589 l 108 589 l 161 965 l 403 965 l 350 589 l 419 589 z "},"Ĩ":{"ha":344,"x_min":-1,"x_max":522,"o":"m 376 965 l 240 0 l -1 0 l 135 965 l 376 965 m 342 1051 q 303 1060 321 1051 q 263 1088 286 1069 q 249 1098 260 1090 q 229 1109 238 1106 q 213 1113 221 1113 q 180 1098 194 1113 q 146 1051 165 1083 l 49 1110 q 130 1231 82 1183 q 226 1279 178 1279 q 272 1269 253 1279 q 314 1242 292 1260 q 361 1218 343 1218 q 390 1232 376 1218 q 422 1276 404 1246 l 522 1221 q 440 1099 489 1146 q 342 1051 392 1051 z "},"J":{"ha":381,"x_min":-85,"x_max":414,"o":"m 299 140 q 232 -57 281 18 q 117 -172 183 -132 q -43 -244 51 -211 l -85 -75 q 17 10 -12 -40 q 60 158 46 60 l 172 965 l 414 965 l 299 140 z "},"Ĵ":{"ha":381,"x_min":-85,"x_max":547,"o":"m 299 140 q 232 -57 281 18 q 117 -172 183 -132 q -43 -244 51 -211 l -85 -75 q 17 10 -12 -40 q 60 158 46 60 l 172 965 l 414 965 l 299 140 m 150 1051 l 67 1142 l 261 1328 l 399 1328 l 547 1131 l 456 1051 l 315 1169 l 150 1051 z "},"Ʝ":{"ha":454,"x_min":-154,"x_max":486,"o":"m 351 -14 q 443 -65 399 -33 l 388 -156 q 324 -124 363 -139 q 220 -263 290 -217 q 36 -310 150 -310 q -105 -269 -56 -310 q -154 -153 -154 -228 q -97 -16 -154 -65 q 49 33 -39 33 q 113 29 85 33 l 244 965 l 486 965 l 353 0 l 351 -14 m 22 -190 q 72 -164 54 -190 q 97 -82 89 -137 q 47 -78 74 -78 q -1 -95 15 -78 q -17 -143 -17 -112 q 22 -190 -17 -190 z "},"Ɉ":{"ha":399,"x_min":-89,"x_max":424,"o":"m 400 386 l 329 386 l 294 140 q 228 -57 276 18 q 113 -172 179 -132 q -47 -244 47 -211 l -89 -75 q 13 10 -17 -40 q 56 158 42 60 l 88 386 l 14 386 l 38 567 l 113 567 l 168 965 l 410 965 l 354 567 l 424 567 l 400 386 z "},"K":{"ha":767,"x_min":-1,"x_max":839,"o":"m -1 0 l 135 965 l 376 965 l 240 0 l -1 0 m 463 0 l 319 514 l 597 965 l 839 965 l 563 519 l 724 0 l 463 0 z "},"Ǩ":{"ha":767,"x_min":-1,"x_max":839,"o":"m -1 0 l 135 965 l 376 965 l 240 0 l -1 0 m 463 0 l 319 514 l 597 965 l 839 965 l 563 519 l 724 0 l 463 0 m 651 1317 l 735 1225 l 540 1040 l 403 1040 l 254 1238 l 346 1317 l 486 1197 l 651 1317 z "},"Ķ":{"ha":767,"x_min":-1,"x_max":839,"o":"m -1 0 l 135 965 l 376 965 l 240 0 l -1 0 m 463 0 l 319 514 l 597 965 l 839 965 l 563 519 l 724 0 l 463 0 m 321 -92 q 393 -119 365 -92 q 421 -190 421 -147 q 410 -251 421 -222 q 371 -328 399 -279 l 296 -458 l 186 -458 l 240 -296 q 201 -221 201 -269 q 235 -128 201 -164 q 321 -92 269 -92 z "},"Ƙ":{"ha":781,"x_min":-1,"x_max":871,"o":"m 319 514 l 506 838 q 603 955 553 921 q 731 989 654 989 q 871 939 813 989 l 794 804 q 756 815 778 815 q 724 806 736 815 q 699 774 711 796 l 564 521 l 724 0 l 463 0 l 319 514 m -1 0 l 135 965 l 376 965 l 240 0 l -1 0 z "},"L":{"ha":588,"x_min":-1,"x_max":563,"o":"m 376 965 l 268 192 l 563 192 l 508 0 l -1 0 l 135 965 l 376 965 z "},"Ǉ":{"ha":935,"x_min":-1,"x_max":968,"o":"m 376 965 l 268 192 l 563 192 l 508 0 l -1 0 l 135 965 l 376 965 m 853 140 q 786 -57 835 18 q 672 -172 738 -132 q 511 -244 606 -211 l 469 -75 q 571 10 542 -40 q 614 158 600 60 l 726 965 l 968 965 l 853 140 z "},"Ĺ":{"ha":588,"x_min":-1,"x_max":563,"o":"m 376 965 l 268 192 l 563 192 l 508 0 l -1 0 l 135 965 l 376 965 m 397 1319 l 475 1154 l 171 1035 l 117 1144 l 397 1319 z "},"Ƚ":{"ha":608,"x_min":11,"x_max":585,"o":"m 290 192 l 585 192 l 531 0 l 21 0 l 79 414 l 11 414 l 35 594 l 104 594 l 157 965 l 399 965 l 347 594 l 421 594 l 397 414 l 321 414 l 290 192 z "},"Ɬ":{"ha":740,"x_min":19,"x_max":715,"o":"m 715 192 l 661 0 l 151 0 l 200 349 q 65 397 111 353 q 19 514 19 440 q 70 649 19 599 q 201 699 121 699 q 249 694 232 699 l 288 965 l 529 965 l 463 485 q 576 499 519 489 l 581 372 q 443 354 524 358 l 421 192 l 715 192 m 168 528 q 219 481 168 483 l 232 575 q 210 579 222 579 q 179 565 190 579 q 168 528 168 550 z "},"Ľ":{"ha":588,"x_min":-1,"x_max":592,"o":"m 376 965 l 268 192 l 563 192 l 508 0 l -1 0 l 135 965 l 376 965 m 431 985 l 592 964 l 493 656 l 378 667 l 431 985 z "},"Ḽ":{"ha":588,"x_min":-25,"x_max":563,"o":"m 376 965 l 268 192 l 563 192 l 508 0 l -1 0 l 135 965 l 376 965 m 51 -374 l -25 -283 l 168 -86 l 307 -86 l 454 -294 l 358 -374 l 224 -244 l 51 -374 z "},"Ļ":{"ha":588,"x_min":-1,"x_max":563,"o":"m 376 965 l 268 192 l 563 192 l 508 0 l -1 0 l 135 965 l 376 965 m 247 -92 q 319 -119 292 -92 q 347 -190 347 -147 q 336 -251 347 -222 q 297 -328 325 -279 l 222 -458 l 113 -458 l 167 -296 q 128 -221 128 -269 q 162 -128 128 -164 q 247 -92 196 -92 z "},"Ŀ":{"ha":588,"x_min":-1,"x_max":622,"o":"m 376 965 l 268 192 l 563 192 l 508 0 l -1 0 l 135 965 l 376 965 m 475 424 q 388 454 419 424 q 357 536 357 485 q 399 644 357 601 q 504 686 442 686 q 591 656 560 686 q 622 574 622 625 q 580 466 622 508 q 475 424 538 424 z "},"Ḷ":{"ha":588,"x_min":-1,"x_max":563,"o":"m 376 965 l 268 192 l 563 192 l 508 0 l -1 0 l 135 965 l 376 965 m 238 -81 q 324 -111 293 -81 q 356 -193 356 -142 q 313 -301 356 -258 q 208 -343 271 -343 q 122 -312 153 -343 q 90 -231 90 -282 q 133 -123 90 -165 q 238 -81 175 -81 z "},"ǈ":{"ha":893,"x_min":-1,"x_max":953,"o":"m 376 965 l 268 192 l 563 192 l 508 0 l -1 0 l 135 965 l 376 965 m 419 -140 q 526 -65 492 -110 q 575 78 561 -19 l 667 740 l 899 740 l 807 86 q 742 -116 789 -39 q 631 -234 694 -193 q 472 -310 567 -275 l 419 -140 m 806 871 q 719 901 750 871 q 688 983 688 932 q 730 1091 688 1049 q 835 1133 772 1133 q 922 1103 890 1133 q 953 1021 953 1072 q 910 913 953 956 q 806 871 868 871 z "},"Ł":{"ha":646,"x_min":0,"x_max":621,"o":"m 326 192 l 621 192 l 567 0 l 57 0 l 100 303 l 60 275 l 0 389 l 124 469 l 193 965 l 435 965 l 389 642 l 515 724 l 575 610 l 367 475 l 326 192 z "},"M":{"ha":918,"x_min":-25,"x_max":917,"o":"m 838 0 l 604 0 l 646 365 q 697 697 658 468 l 711 781 l 535 100 l 304 100 l 300 779 q 260 363 283 522 l 208 0 l -25 0 l 165 965 l 453 965 l 446 300 l 607 965 l 917 965 l 838 0 z "},"Ḿ":{"ha":918,"x_min":-25,"x_max":917,"o":"m 838 0 l 604 0 l 646 365 q 697 697 658 468 l 711 781 l 535 100 l 304 100 l 300 779 q 260 363 283 522 l 208 0 l -25 0 l 165 965 l 453 965 l 446 300 l 607 965 l 917 965 l 838 0 m 674 1319 l 751 1154 l 447 1035 l 393 1144 l 674 1319 z "},"Ṁ":{"ha":918,"x_min":-25,"x_max":917,"o":"m 838 0 l 604 0 l 646 365 q 697 697 658 468 l 711 781 l 535 100 l 304 100 l 300 779 q 260 363 283 522 l 208 0 l -25 0 l 165 965 l 453 965 l 446 300 l 607 965 l 917 965 l 838 0 m 551 1046 q 465 1076 496 1046 q 433 1158 433 1107 q 476 1266 433 1224 q 581 1308 518 1308 q 667 1278 636 1308 q 699 1196 699 1247 q 656 1088 699 1131 q 551 1046 614 1046 z "},"Ɯ":{"ha":1024,"x_min":14,"x_max":1054,"o":"m 1054 965 l 919 0 l 707 0 l 701 79 q 613 -1 656 24 q 521 -25 571 -25 q 427 4 465 -25 q 372 85 389 33 q 176 -25 286 -25 q 56 30 99 -25 q 14 169 14 85 q 17 215 14 200 l 122 965 l 364 965 l 260 221 q 258 203 258 214 q 267 168 258 181 q 290 156 275 156 q 364 231 326 156 l 468 965 l 708 965 l 607 224 q 606 200 606 215 q 635 156 606 156 q 708 232 671 156 l 813 965 l 1054 965 z "},"N":{"ha":742,"x_min":0,"x_max":772,"o":"m 638 0 l 351 0 l 267 761 q 269 617 269 667 q 251 325 269 471 l 210 0 l 0 0 l 135 965 l 422 965 l 506 203 q 503 346 503 306 q 519 613 503 474 l 565 965 l 772 965 l 638 0 z "},"Ǌ":{"ha":1122,"x_min":0,"x_max":1156,"o":"m 638 0 l 351 0 l 267 761 q 269 617 269 667 q 251 325 269 471 l 210 0 l 0 0 l 135 965 l 422 965 l 506 203 q 503 346 503 306 q 519 613 503 474 l 565 965 l 772 965 l 638 0 m 1040 140 q 974 -57 1022 18 q 859 -172 925 -132 q 699 -244 793 -211 l 657 -75 q 758 10 729 -40 q 801 158 788 60 l 914 965 l 1156 965 l 1040 140 z "},"Ń":{"ha":742,"x_min":0,"x_max":772,"o":"m 638 0 l 351 0 l 267 761 q 269 617 269 667 q 251 325 269 471 l 210 0 l 0 0 l 135 965 l 422 965 l 506 203 q 503 346 503 306 q 519 613 503 474 l 565 965 l 772 965 l 638 0 m 594 1319 l 672 1154 l 368 1035 l 314 1144 l 594 1319 z "},"Ň":{"ha":742,"x_min":0,"x_max":772,"o":"m 638 0 l 351 0 l 267 761 q 269 617 269 667 q 251 325 269 471 l 210 0 l 0 0 l 135 965 l 422 965 l 506 203 q 503 346 503 306 q 519 613 503 474 l 565 965 l 772 965 l 638 0 m 643 1317 l 726 1225 l 532 1040 l 394 1040 l 246 1238 l 338 1317 l 478 1197 l 643 1317 z "},"Ṋ":{"ha":742,"x_min":0,"x_max":772,"o":"m 638 0 l 351 0 l 267 761 q 269 617 269 667 q 251 325 269 471 l 210 0 l 0 0 l 135 965 l 422 965 l 506 203 q 503 346 503 306 q 519 613 503 474 l 565 965 l 772 965 l 638 0 m 117 -374 l 40 -283 l 233 -86 l 372 -86 l 519 -294 l 424 -374 l 289 -244 l 117 -374 z "},"Ņ":{"ha":742,"x_min":0,"x_max":772,"o":"m 638 0 l 351 0 l 267 761 q 269 617 269 667 q 251 325 269 471 l 210 0 l 0 0 l 135 965 l 422 965 l 506 203 q 503 346 503 306 q 519 613 503 474 l 565 965 l 772 965 l 638 0 m 313 -92 q 385 -119 357 -92 q 413 -190 413 -147 q 401 -251 413 -222 q 363 -328 390 -279 l 288 -458 l 178 -458 l 232 -296 q 193 -221 193 -269 q 227 -128 193 -164 q 313 -92 261 -92 z "},"Ṅ":{"ha":742,"x_min":0,"x_max":772,"o":"m 638 0 l 351 0 l 267 761 q 269 617 269 667 q 251 325 269 471 l 210 0 l 0 0 l 135 965 l 422 965 l 506 203 q 503 346 503 306 q 519 613 503 474 l 565 965 l 772 965 l 638 0 m 472 1046 q 385 1076 417 1046 q 354 1158 354 1107 q 397 1266 354 1224 q 501 1308 439 1308 q 588 1278 557 1308 q 619 1196 619 1247 q 577 1088 619 1131 q 472 1046 535 1046 z "},"Ṇ":{"ha":742,"x_min":0,"x_max":772,"o":"m 638 0 l 351 0 l 267 761 q 269 617 269 667 q 251 325 269 471 l 210 0 l 0 0 l 135 965 l 422 965 l 506 203 q 503 346 503 306 q 519 613 503 474 l 565 965 l 772 965 l 638 0 m 303 -81 q 390 -111 358 -81 q 421 -193 421 -142 q 378 -301 421 -258 q 274 -343 336 -343 q 187 -312 218 -343 q 156 -231 156 -282 q 198 -123 156 -165 q 303 -81 240 -81 z "},"Ǹ":{"ha":742,"x_min":0,"x_max":772,"o":"m 638 0 l 351 0 l 267 761 q 269 617 269 667 q 251 325 269 471 l 210 0 l 0 0 l 135 965 l 422 965 l 506 203 q 503 346 503 306 q 519 613 503 474 l 565 965 l 772 965 l 638 0 m 421 1315 l 665 1139 l 597 1036 l 324 1153 l 421 1315 z "},"Ŋ":{"ha":742,"x_min":0,"x_max":772,"o":"m 772 965 l 638 0 l 631 -54 q 532 -245 613 -179 q 333 -311 451 -311 q 156 -249 221 -311 l 253 -110 q 287 -128 272 -122 q 321 -133 301 -133 q 366 -115 349 -133 q 388 -64 383 -97 l 396 0 l 351 0 l 267 761 q 269 617 269 667 q 251 325 269 471 l 210 0 l 0 0 l 135 965 l 422 965 l 506 203 q 503 346 503 306 q 519 613 503 474 l 565 965 l 772 965 z "},"Ɲ":{"ha":742,"x_min":-240,"x_max":772,"o":"m 772 965 l 638 0 l 351 0 l 267 761 q 269 617 269 667 q 251 325 269 471 l 210 0 l 200 -68 q 114 -247 183 -185 q -67 -310 44 -310 q -165 -293 -125 -310 q -240 -249 -206 -276 l -143 -118 q -109 -136 -124 -131 q -74 -142 -94 -142 q -29 -122 -46 -142 q -8 -64 -12 -101 l 0 0 l 135 965 l 422 965 l 506 203 q 503 346 503 306 q 519 613 503 474 l 565 965 l 772 965 z "},"ǋ":{"ha":1068,"x_min":0,"x_max":1128,"o":"m 638 0 l 351 0 l 267 761 q 269 617 269 667 q 251 325 269 471 l 210 0 l 0 0 l 135 965 l 422 965 l 506 203 q 503 346 503 306 q 519 613 503 474 l 565 965 l 772 965 l 638 0 m 594 -140 q 701 -65 667 -110 q 750 78 736 -19 l 842 740 l 1074 740 l 982 86 q 917 -116 964 -39 q 806 -234 869 -193 q 647 -310 742 -275 l 594 -140 m 981 871 q 894 901 925 871 q 863 983 863 932 q 905 1091 863 1049 q 1010 1133 947 1133 q 1097 1103 1065 1133 q 1128 1021 1128 1072 q 1085 913 1128 956 q 981 871 1043 871 z "},"Ƞ":{"ha":735,"x_min":-1,"x_max":742,"o":"m 565 990 q 697 936 651 990 q 742 796 742 882 q 739 750 742 765 l 594 -296 l 354 -296 l 494 729 q 496 754 496 738 q 454 808 496 808 q 346 749 408 808 l 240 0 l -1 0 l 135 965 l 347 965 l 351 896 q 565 990 447 990 z "},"Ñ":{"ha":742,"x_min":0,"x_max":772,"o":"m 638 0 l 351 0 l 267 761 q 269 617 269 667 q 251 325 269 471 l 210 0 l 0 0 l 135 965 l 422 965 l 506 203 q 503 346 503 306 q 519 613 503 474 l 565 965 l 772 965 l 638 0 m 539 1051 q 501 1060 518 1051 q 460 1088 483 1069 q 446 1098 457 1090 q 426 1109 435 1106 q 410 1113 418 1113 q 377 1098 392 1113 q 343 1051 363 1083 l 246 1110 q 327 1231 279 1183 q 424 1279 375 1279 q 469 1269 450 1279 q 511 1242 489 1260 q 558 1218 540 1218 q 588 1232 574 1218 q 619 1276 601 1246 l 719 1221 q 638 1099 686 1146 q 539 1051 589 1051 z "},"O":{"ha":806,"x_min":39,"x_max":799,"o":"m 486 990 q 719 899 640 990 q 799 626 799 808 q 749 304 799 453 q 599 65 700 156 q 350 -25 499 -25 q 117 67 196 -25 q 39 339 39 158 q 88 661 39 513 q 237 900 136 810 q 486 990 338 990 m 471 813 q 365 726 407 813 q 303 517 322 639 q 283 289 283 396 q 303 183 283 215 q 365 151 324 151 q 473 236 431 151 q 534 441 515 321 q 553 671 553 561 q 533 779 553 746 q 471 813 513 813 z "},"Ȣ":{"ha":753,"x_min":19,"x_max":764,"o":"m 732 733 q 588 553 714 606 q 714 351 714 494 q 664 153 714 239 q 526 22 614 68 q 328 -25 438 -25 q 161 12 231 -25 q 56 113 92 49 q 19 257 19 178 q 72 438 19 364 q 217 550 125 511 q 122 700 122 593 q 125 738 122 713 l 153 965 l 394 965 l 361 719 q 358 688 358 697 q 372 641 358 656 q 413 626 385 626 q 465 651 447 626 q 489 724 482 676 l 522 965 l 764 965 l 732 733 m 349 153 q 431 204 399 153 q 463 343 463 256 q 388 457 463 457 q 305 404 338 457 q 272 265 272 351 q 349 153 272 153 z "},"Ó":{"ha":806,"x_min":39,"x_max":799,"o":"m 486 990 q 719 899 640 990 q 799 626 799 808 q 749 304 799 453 q 599 65 700 156 q 350 -25 499 -25 q 117 67 196 -25 q 39 339 39 158 q 88 661 39 513 q 237 900 136 810 q 486 990 338 990 m 471 813 q 365 726 407 813 q 303 517 322 639 q 283 289 283 396 q 303 183 283 215 q 365 151 324 151 q 473 236 431 151 q 534 441 515 321 q 553 671 553 561 q 533 779 553 746 q 471 813 513 813 m 625 1319 l 703 1154 l 399 1035 l 344 1144 l 625 1319 z "},"Ŏ":{"ha":806,"x_min":39,"x_max":799,"o":"m 486 990 q 719 899 640 990 q 799 626 799 808 q 749 304 799 453 q 599 65 700 156 q 350 -25 499 -25 q 117 67 196 -25 q 39 339 39 158 q 88 661 39 513 q 237 900 136 810 q 486 990 338 990 m 471 813 q 365 726 407 813 q 303 517 322 639 q 283 289 283 396 q 303 183 283 215 q 365 151 324 151 q 473 236 431 151 q 534 441 515 321 q 553 671 553 561 q 533 779 553 746 q 471 813 513 813 m 497 1040 q 360 1099 406 1040 q 314 1249 314 1158 q 315 1278 314 1268 l 433 1297 q 454 1228 436 1254 q 510 1203 472 1203 q 613 1300 579 1203 l 733 1274 q 655 1106 714 1171 q 497 1040 596 1040 z "},"Ǒ":{"ha":806,"x_min":39,"x_max":799,"o":"m 486 990 q 719 899 640 990 q 799 626 799 808 q 749 304 799 453 q 599 65 700 156 q 350 -25 499 -25 q 117 67 196 -25 q 39 339 39 158 q 88 661 39 513 q 237 900 136 810 q 486 990 338 990 m 471 813 q 365 726 407 813 q 303 517 322 639 q 283 289 283 396 q 303 183 283 215 q 365 151 324 151 q 473 236 431 151 q 534 441 515 321 q 553 671 553 561 q 533 779 553 746 q 471 813 513 813 m 674 1317 l 757 1225 l 563 1040 l 425 1040 l 276 1238 l 368 1317 l 508 1197 l 674 1317 z "},"Ɵ":{"ha":806,"x_min":39,"x_max":799,"o":"m 486 990 q 719 899 640 990 q 799 626 799 808 q 749 304 799 453 q 599 65 700 156 q 350 -25 499 -25 q 117 67 196 -25 q 39 339 39 158 q 88 661 39 513 q 237 900 136 810 q 486 990 338 990 m 476 818 q 366 745 410 818 q 299 556 322 672 l 560 556 q 564 671 564 618 q 543 784 564 750 q 476 818 522 818 m 360 146 q 474 222 429 146 q 542 419 518 297 l 278 419 q 271 289 271 361 q 292 178 271 211 q 360 146 313 146 z "},"Ô":{"ha":806,"x_min":39,"x_max":799,"o":"m 486 990 q 719 899 640 990 q 799 626 799 808 q 749 304 799 453 q 599 65 700 156 q 350 -25 499 -25 q 117 67 196 -25 q 39 339 39 158 q 88 661 39 513 q 237 900 136 810 q 486 990 338 990 m 471 813 q 365 726 407 813 q 303 517 322 639 q 283 289 283 396 q 303 183 283 215 q 365 151 324 151 q 473 236 431 151 q 534 441 515 321 q 553 671 553 561 q 533 779 553 746 q 471 813 513 813 m 342 1051 l 258 1142 l 453 1328 l 590 1328 l 739 1131 l 647 1051 l 507 1169 l 342 1051 z "},"Ố":{"ha":806,"x_min":39,"x_max":938,"o":"m 826 1539 l 938 1421 l 707 1215 l 628 1286 l 826 1539 m 336 1008 l 253 1099 l 447 1285 l 585 1285 l 733 1088 l 642 1008 l 501 1126 l 336 1008 m 486 990 q 719 899 640 990 q 799 626 799 808 q 749 304 799 453 q 599 65 700 156 q 350 -25 499 -25 q 117 67 196 -25 q 39 339 39 158 q 88 661 39 513 q 237 900 136 810 q 486 990 338 990 m 471 813 q 365 726 407 813 q 303 517 322 639 q 283 289 283 396 q 303 183 283 215 q 365 151 324 151 q 473 236 431 151 q 534 441 515 321 q 553 671 553 561 q 533 779 553 746 q 471 813 513 813 z "},"Ộ":{"ha":806,"x_min":39,"x_max":799,"o":"m 486 990 q 719 899 640 990 q 799 626 799 808 q 749 304 799 453 q 599 65 700 156 q 350 -25 499 -25 q 117 67 196 -25 q 39 339 39 158 q 88 661 39 513 q 237 900 136 810 q 486 990 338 990 m 471 813 q 365 726 407 813 q 303 517 322 639 q 283 289 283 396 q 303 183 283 215 q 365 151 324 151 q 473 236 431 151 q 534 441 515 321 q 553 671 553 561 q 533 779 553 746 q 471 813 513 813 m 342 1051 l 258 1142 l 453 1328 l 590 1328 l 739 1131 l 647 1051 l 507 1169 l 342 1051 m 335 -81 q 422 -111 390 -81 q 453 -193 453 -142 q 410 -301 453 -258 q 306 -343 368 -343 q 219 -312 250 -343 q 188 -231 188 -282 q 230 -123 188 -165 q 335 -81 272 -81 z "},"Ồ":{"ha":806,"x_min":39,"x_max":799,"o":"m 279 1535 l 407 1281 l 308 1215 l 138 1431 l 279 1535 m 340 1008 l 257 1099 l 451 1285 l 589 1285 l 738 1088 l 646 1008 l 506 1126 l 340 1008 m 486 990 q 719 899 640 990 q 799 626 799 808 q 749 304 799 453 q 599 65 700 156 q 350 -25 499 -25 q 117 67 196 -25 q 39 339 39 158 q 88 661 39 513 q 237 900 136 810 q 486 990 338 990 m 471 813 q 365 726 407 813 q 303 517 322 639 q 283 289 283 396 q 303 183 283 215 q 365 151 324 151 q 473 236 431 151 q 534 441 515 321 q 553 671 553 561 q 533 779 553 746 q 471 813 513 813 z "},"Ổ":{"ha":806,"x_min":39,"x_max":906,"o":"m 486 990 q 719 899 640 990 q 799 626 799 808 q 749 304 799 453 q 599 65 700 156 q 350 -25 499 -25 q 117 67 196 -25 q 39 339 39 158 q 88 661 39 513 q 237 900 136 810 q 486 990 338 990 m 471 813 q 365 726 407 813 q 303 517 322 639 q 283 289 283 396 q 303 183 283 215 q 365 151 324 151 q 473 236 431 151 q 534 441 515 321 q 553 671 553 561 q 533 779 553 746 q 471 813 513 813 m 335 1008 l 251 1099 l 446 1285 l 583 1285 l 732 1088 l 640 1008 l 500 1126 l 335 1008 m 669 1325 q 737 1342 717 1328 q 757 1385 757 1356 q 719 1419 757 1419 q 688 1415 703 1419 q 651 1401 672 1411 l 631 1497 q 761 1532 689 1532 q 867 1496 829 1532 q 906 1401 906 1460 q 874 1307 906 1343 q 788 1258 842 1271 l 781 1200 l 654 1200 l 669 1325 z "},"Ỗ":{"ha":806,"x_min":39,"x_max":799,"o":"m 601 1322 q 563 1331 581 1322 q 524 1354 546 1339 q 498 1371 511 1364 q 475 1378 485 1378 q 442 1365 457 1378 q 408 1322 428 1351 l 314 1376 q 393 1488 346 1443 q 489 1532 440 1532 q 534 1523 515 1532 q 574 1497 553 1514 q 597 1482 585 1489 q 621 1475 608 1475 q 650 1488 636 1475 q 681 1529 664 1500 l 779 1478 q 699 1366 747 1410 q 601 1322 651 1322 m 340 1008 l 257 1099 l 451 1285 l 589 1285 l 738 1088 l 646 1008 l 506 1126 l 340 1008 m 486 990 q 719 899 640 990 q 799 626 799 808 q 749 304 799 453 q 599 65 700 156 q 350 -25 499 -25 q 117 67 196 -25 q 39 339 39 158 q 88 661 39 513 q 237 900 136 810 q 486 990 338 990 m 471 813 q 365 726 407 813 q 303 517 322 639 q 283 289 283 396 q 303 183 283 215 q 365 151 324 151 q 473 236 431 151 q 534 441 515 321 q 553 671 553 561 q 533 779 553 746 q 471 813 513 813 z "},"Ȍ":{"ha":806,"x_min":39,"x_max":799,"o":"m 486 990 q 719 899 640 990 q 799 626 799 808 q 749 304 799 453 q 599 65 700 156 q 350 -25 499 -25 q 117 67 196 -25 q 39 339 39 158 q 88 661 39 513 q 237 900 136 810 q 486 990 338 990 m 471 813 q 365 726 407 813 q 303 517 322 639 q 283 289 283 396 q 303 183 283 215 q 365 151 324 151 q 473 236 431 151 q 534 441 515 321 q 553 671 553 561 q 533 779 553 746 q 471 813 513 813 m 385 1378 l 467 1092 l 340 1042 l 219 1310 l 385 1378 m 599 1376 l 672 1090 l 547 1047 l 435 1315 l 599 1376 z "},"Ö":{"ha":806,"x_min":39,"x_max":799,"o":"m 486 990 q 719 899 640 990 q 799 626 799 808 q 749 304 799 453 q 599 65 700 156 q 350 -25 499 -25 q 117 67 196 -25 q 39 339 39 158 q 88 661 39 513 q 237 900 136 810 q 486 990 338 990 m 471 813 q 365 726 407 813 q 303 517 322 639 q 283 289 283 396 q 303 183 283 215 q 365 151 324 151 q 473 236 431 151 q 534 441 515 321 q 553 671 553 561 q 533 779 553 746 q 471 813 513 813 m 354 1063 q 281 1090 307 1063 q 254 1161 254 1117 q 291 1254 254 1217 q 381 1292 328 1292 q 455 1265 428 1292 q 482 1193 482 1239 q 445 1100 482 1138 q 354 1063 408 1063 m 638 1063 q 565 1090 592 1063 q 538 1161 538 1117 q 574 1254 538 1217 q 664 1292 611 1292 q 738 1265 711 1292 q 765 1193 765 1238 q 728 1100 765 1138 q 638 1063 692 1063 z "},"Ȫ":{"ha":806,"x_min":39,"x_max":799,"o":"m 486 990 q 719 899 640 990 q 799 626 799 808 q 749 304 799 453 q 599 65 700 156 q 350 -25 499 -25 q 117 67 196 -25 q 39 339 39 158 q 88 661 39 513 q 237 900 136 810 q 486 990 338 990 m 471 813 q 365 726 407 813 q 303 517 322 639 q 283 289 283 396 q 303 183 283 215 q 365 151 324 151 q 473 236 431 151 q 534 441 515 321 q 553 671 553 561 q 533 779 553 746 q 471 813 513 813 m 353 1035 q 279 1062 306 1035 q 253 1133 253 1089 q 290 1226 253 1189 q 379 1264 326 1264 q 453 1238 426 1264 q 481 1165 481 1211 q 444 1072 481 1110 q 353 1035 407 1035 m 636 1035 q 563 1062 590 1035 q 536 1133 536 1089 q 573 1226 536 1189 q 663 1264 610 1264 q 737 1237 710 1264 q 764 1165 764 1210 q 727 1072 764 1110 q 636 1035 690 1035 m 707 1324 l 340 1324 l 365 1486 l 732 1486 l 707 1324 z "},"Ȯ":{"ha":806,"x_min":39,"x_max":799,"o":"m 486 990 q 719 899 640 990 q 799 626 799 808 q 749 304 799 453 q 599 65 700 156 q 350 -25 499 -25 q 117 67 196 -25 q 39 339 39 158 q 88 661 39 513 q 237 900 136 810 q 486 990 338 990 m 471 813 q 365 726 407 813 q 303 517 322 639 q 283 289 283 396 q 303 183 283 215 q 365 151 324 151 q 473 236 431 151 q 534 441 515 321 q 553 671 553 561 q 533 779 553 746 q 471 813 513 813 m 503 1046 q 416 1076 447 1046 q 385 1158 385 1107 q 427 1266 385 1224 q 532 1308 469 1308 q 619 1278 588 1308 q 650 1196 650 1247 q 608 1088 650 1131 q 503 1046 565 1046 z "},"Ȱ":{"ha":806,"x_min":39,"x_max":799,"o":"m 486 990 q 719 899 640 990 q 799 626 799 808 q 749 304 799 453 q 599 65 700 156 q 350 -25 499 -25 q 117 67 196 -25 q 39 339 39 158 q 88 661 39 513 q 237 900 136 810 q 486 990 338 990 m 471 813 q 365 726 407 813 q 303 517 322 639 q 283 289 283 396 q 303 183 283 215 q 365 151 324 151 q 473 236 431 151 q 534 441 515 321 q 553 671 553 561 q 533 779 553 746 q 471 813 513 813 m 493 1021 q 406 1051 438 1021 q 375 1133 375 1082 q 417 1241 375 1199 q 522 1283 460 1283 q 609 1253 578 1283 q 640 1171 640 1222 q 598 1063 640 1106 q 493 1021 556 1021 m 717 1324 l 350 1324 l 375 1486 l 742 1486 l 717 1324 z "},"Ọ":{"ha":806,"x_min":39,"x_max":799,"o":"m 486 990 q 719 899 640 990 q 799 626 799 808 q 749 304 799 453 q 599 65 700 156 q 350 -25 499 -25 q 117 67 196 -25 q 39 339 39 158 q 88 661 39 513 q 237 900 136 810 q 486 990 338 990 m 471 813 q 365 726 407 813 q 303 517 322 639 q 283 289 283 396 q 303 183 283 215 q 365 151 324 151 q 473 236 431 151 q 534 441 515 321 q 553 671 553 561 q 533 779 553 746 q 471 813 513 813 m 335 -81 q 422 -111 390 -81 q 453 -193 453 -142 q 410 -301 453 -258 q 306 -343 368 -343 q 219 -312 250 -343 q 188 -231 188 -282 q 230 -123 188 -165 q 335 -81 272 -81 z "},"Ò":{"ha":806,"x_min":39,"x_max":799,"o":"m 486 990 q 719 899 640 990 q 799 626 799 808 q 749 304 799 453 q 599 65 700 156 q 350 -25 499 -25 q 117 67 196 -25 q 39 339 39 158 q 88 661 39 513 q 237 900 136 810 q 486 990 338 990 m 471 813 q 365 726 407 813 q 303 517 322 639 q 283 289 283 396 q 303 183 283 215 q 365 151 324 151 q 473 236 431 151 q 534 441 515 321 q 553 671 553 561 q 533 779 553 746 q 471 813 513 813 m 451 1315 l 696 1139 l 628 1036 l 354 1153 l 451 1315 z "},"Ỏ":{"ha":806,"x_min":39,"x_max":799,"o":"m 486 990 q 719 899 640 990 q 799 626 799 808 q 749 304 799 453 q 599 65 700 156 q 350 -25 499 -25 q 117 67 196 -25 q 39 339 39 158 q 88 661 39 513 q 237 900 136 810 q 486 990 338 990 m 471 813 q 365 726 407 813 q 303 517 322 639 q 283 289 283 396 q 303 183 283 215 q 365 151 324 151 q 473 236 431 151 q 534 441 515 321 q 553 671 553 561 q 533 779 553 746 q 471 813 513 813 m 449 1186 q 516 1203 496 1189 q 536 1246 536 1217 q 499 1281 536 1281 q 467 1276 482 1281 q 431 1263 451 1272 l 410 1358 q 540 1393 468 1393 q 647 1357 608 1393 q 685 1263 685 1321 q 653 1168 685 1204 q 567 1119 621 1132 l 560 1061 l 433 1061 l 449 1186 z "},"Ơ":{"ha":857,"x_min":39,"x_max":942,"o":"m 942 992 q 900 844 942 900 q 782 774 858 789 q 799 626 799 710 q 749 304 799 453 q 599 65 700 156 q 350 -25 499 -25 q 117 67 196 -25 q 39 339 39 158 q 88 661 39 513 q 237 900 136 810 q 486 990 338 990 q 733 882 654 990 q 792 990 792 896 q 788 1054 792 1028 l 933 1072 q 942 992 942 1039 m 365 151 q 473 236 431 151 q 534 441 515 321 q 553 671 553 561 q 533 779 553 746 q 471 813 513 813 q 365 726 407 813 q 303 517 322 639 q 283 289 283 396 q 303 183 283 215 q 365 151 324 151 z "},"Ớ":{"ha":857,"x_min":39,"x_max":942,"o":"m 703 1154 l 399 1035 l 344 1144 l 625 1319 l 703 1154 m 942 992 q 900 844 942 900 q 782 774 858 789 q 799 626 799 710 q 749 304 799 453 q 599 65 700 156 q 350 -25 499 -25 q 117 67 196 -25 q 39 339 39 158 q 88 661 39 513 q 237 900 136 810 q 486 990 338 990 q 733 882 654 990 q 792 990 792 896 q 788 1054 792 1028 l 933 1072 q 942 992 942 1039 m 365 151 q 473 236 431 151 q 534 441 515 321 q 553 671 553 561 q 533 779 553 746 q 471 813 513 813 q 365 726 407 813 q 303 517 322 639 q 283 289 283 396 q 303 183 283 215 q 365 151 324 151 z "},"Ợ":{"ha":857,"x_min":39,"x_max":942,"o":"m 942 992 q 900 844 942 900 q 782 774 858 789 q 799 626 799 710 q 749 304 799 453 q 599 65 700 156 q 350 -25 499 -25 q 117 67 196 -25 q 39 339 39 158 q 88 661 39 513 q 237 900 136 810 q 486 990 338 990 q 733 882 654 990 q 792 990 792 896 q 788 1054 792 1028 l 933 1072 q 942 992 942 1039 m 365 151 q 473 236 431 151 q 534 441 515 321 q 553 671 553 561 q 533 779 553 746 q 471 813 513 813 q 365 726 407 813 q 303 517 322 639 q 283 289 283 396 q 303 183 283 215 q 365 151 324 151 m 335 -81 q 422 -111 390 -81 q 453 -193 453 -142 q 410 -301 453 -258 q 306 -343 368 -343 q 219 -312 250 -343 q 188 -231 188 -282 q 230 -123 188 -165 q 335 -81 272 -81 z "},"Ờ":{"ha":857,"x_min":39,"x_max":942,"o":"m 696 1139 l 628 1036 l 354 1153 l 451 1315 l 696 1139 m 942 992 q 900 844 942 900 q 782 774 858 789 q 799 626 799 710 q 749 304 799 453 q 599 65 700 156 q 350 -25 499 -25 q 117 67 196 -25 q 39 339 39 158 q 88 661 39 513 q 237 900 136 810 q 486 990 338 990 q 733 882 654 990 q 792 990 792 896 q 788 1054 792 1028 l 933 1072 q 942 992 942 1039 m 365 151 q 473 236 431 151 q 534 441 515 321 q 553 671 553 561 q 533 779 553 746 q 471 813 513 813 q 365 726 407 813 q 303 517 322 639 q 283 289 283 396 q 303 183 283 215 q 365 151 324 151 z "},"Ở":{"ha":857,"x_min":39,"x_max":942,"o":"m 499 1281 q 467 1276 482 1281 q 431 1263 451 1272 l 410 1358 q 540 1393 468 1393 q 647 1357 608 1393 q 685 1263 685 1321 q 653 1168 685 1204 q 567 1119 621 1132 l 560 1061 l 433 1061 l 449 1186 q 516 1203 496 1189 q 536 1246 536 1217 q 499 1281 536 1281 m 942 992 q 900 844 942 900 q 782 774 858 789 q 799 626 799 710 q 749 304 799 453 q 599 65 700 156 q 350 -25 499 -25 q 117 67 196 -25 q 39 339 39 158 q 88 661 39 513 q 237 900 136 810 q 486 990 338 990 q 733 882 654 990 q 792 990 792 896 q 788 1054 792 1028 l 933 1072 q 942 992 942 1039 m 365 151 q 473 236 431 151 q 534 441 515 321 q 553 671 553 561 q 533 779 553 746 q 471 813 513 813 q 365 726 407 813 q 303 517 322 639 q 283 289 283 396 q 303 183 283 215 q 365 151 324 151 z "},"Ỡ":{"ha":857,"x_min":39,"x_max":942,"o":"m 440 1113 q 408 1098 422 1113 q 374 1051 393 1083 l 276 1110 q 358 1231 310 1183 q 454 1279 406 1279 q 500 1269 481 1279 q 542 1242 519 1260 q 589 1218 571 1218 q 618 1232 604 1218 q 650 1276 632 1246 l 750 1221 q 668 1099 717 1146 q 569 1051 619 1051 q 531 1060 549 1051 q 490 1088 514 1069 q 476 1098 488 1090 q 457 1109 465 1106 q 440 1113 449 1113 m 942 992 q 900 844 942 900 q 782 774 858 789 q 799 626 799 710 q 749 304 799 453 q 599 65 700 156 q 350 -25 499 -25 q 117 67 196 -25 q 39 339 39 158 q 88 661 39 513 q 237 900 136 810 q 486 990 338 990 q 733 882 654 990 q 792 990 792 896 q 788 1054 792 1028 l 933 1072 q 942 992 942 1039 m 365 151 q 473 236 431 151 q 534 441 515 321 q 553 671 553 561 q 533 779 553 746 q 471 813 513 813 q 365 726 407 813 q 303 517 322 639 q 283 289 283 396 q 303 183 283 215 q 365 151 324 151 z "},"Ő":{"ha":806,"x_min":39,"x_max":815,"o":"m 486 990 q 719 899 640 990 q 799 626 799 808 q 749 304 799 453 q 599 65 700 156 q 350 -25 499 -25 q 117 67 196 -25 q 39 339 39 158 q 88 661 39 513 q 237 900 136 810 q 486 990 338 990 m 471 813 q 365 726 407 813 q 303 517 322 639 q 283 289 283 396 q 303 183 283 215 q 365 151 324 151 q 473 236 431 151 q 534 441 515 321 q 553 671 553 561 q 533 779 553 746 q 471 813 513 813 m 683 1378 l 815 1299 l 629 1042 l 526 1097 l 683 1378 m 469 1376 l 603 1304 l 424 1047 l 318 1096 l 469 1376 z "},"Ƣ":{"ha":1126,"x_min":39,"x_max":1129,"o":"m 901 990 q 1068 935 1007 990 q 1129 785 1129 881 q 1126 739 1129 754 l 981 -296 l 740 -296 l 886 750 q 888 768 888 757 q 842 819 888 819 q 772 794 808 819 q 799 626 799 718 q 749 304 799 453 q 599 65 700 156 q 350 -25 499 -25 q 117 67 196 -25 q 39 339 39 158 q 88 661 39 513 q 237 900 136 810 q 486 990 338 990 q 690 919 608 990 q 901 990 782 990 m 365 151 q 473 236 431 151 q 534 441 515 321 q 553 671 553 561 q 533 779 553 746 q 471 813 513 813 q 365 726 407 813 q 303 517 322 639 q 283 289 283 396 q 303 183 283 215 q 365 151 324 151 z "},"Ȏ":{"ha":806,"x_min":39,"x_max":799,"o":"m 486 990 q 719 899 640 990 q 799 626 799 808 q 749 304 799 453 q 599 65 700 156 q 350 -25 499 -25 q 117 67 196 -25 q 39 339 39 158 q 88 661 39 513 q 237 900 136 810 q 486 990 338 990 m 471 813 q 365 726 407 813 q 303 517 322 639 q 283 289 283 396 q 303 183 283 215 q 365 151 324 151 q 473 236 431 151 q 534 441 515 321 q 553 671 553 561 q 533 779 553 746 q 471 813 513 813 m 286 1081 q 372 1259 310 1190 q 531 1328 433 1328 q 669 1267 624 1328 q 715 1108 715 1206 q 714 1078 715 1089 l 589 1060 q 514 1165 585 1165 q 449 1136 476 1165 q 404 1056 421 1107 l 286 1081 z "},"Ō":{"ha":806,"x_min":39,"x_max":799,"o":"m 486 990 q 719 899 640 990 q 799 626 799 808 q 749 304 799 453 q 599 65 700 156 q 350 -25 499 -25 q 117 67 196 -25 q 39 339 39 158 q 88 661 39 513 q 237 900 136 810 q 486 990 338 990 m 471 813 q 365 726 407 813 q 303 517 322 639 q 283 289 283 396 q 303 183 283 215 q 365 151 324 151 q 473 236 431 151 q 534 441 515 321 q 553 671 553 561 q 533 779 553 746 q 471 813 513 813 m 678 1082 l 311 1082 l 336 1244 l 703 1244 l 678 1082 z "},"Ṓ":{"ha":806,"x_min":39,"x_max":799,"o":"m 486 990 q 719 899 640 990 q 799 626 799 808 q 749 304 799 453 q 599 65 700 156 q 350 -25 499 -25 q 117 67 196 -25 q 39 339 39 158 q 88 661 39 513 q 237 900 136 810 q 486 990 338 990 m 471 813 q 365 726 407 813 q 303 517 322 639 q 283 289 283 396 q 303 183 283 215 q 365 151 324 151 q 473 236 431 151 q 534 441 515 321 q 553 671 553 561 q 533 779 553 746 q 471 813 513 813 m 686 1057 l 319 1057 l 344 1219 l 711 1219 l 686 1057 m 640 1540 l 718 1375 l 414 1256 l 360 1365 l 640 1540 z "},"Ṑ":{"ha":806,"x_min":39,"x_max":799,"o":"m 486 990 q 719 899 640 990 q 799 626 799 808 q 749 304 799 453 q 599 65 700 156 q 350 -25 499 -25 q 117 67 196 -25 q 39 339 39 158 q 88 661 39 513 q 237 900 136 810 q 486 990 338 990 m 471 813 q 365 726 407 813 q 303 517 322 639 q 283 289 283 396 q 303 183 283 215 q 365 151 324 151 q 473 236 431 151 q 534 441 515 321 q 553 671 553 561 q 533 779 553 746 q 471 813 513 813 m 682 1057 l 315 1057 l 340 1219 l 707 1219 l 682 1057 m 472 1536 l 717 1360 l 649 1257 l 375 1374 l 472 1536 z "},"Ꞷ":{"ha":1038,"x_min":40,"x_max":1018,"o":"m 271 -25 q 97 47 154 -25 q 40 268 40 118 q 88 617 40 438 q 218 965 135 797 l 439 965 q 325 589 367 757 q 283 264 283 421 q 293 178 283 204 q 325 153 303 153 q 362 174 347 153 q 383 246 376 196 l 426 554 l 665 554 l 621 242 q 618 204 618 214 q 626 166 618 179 q 653 153 633 153 q 724 237 696 153 q 765 440 753 321 q 778 668 778 560 q 772 810 778 743 q 753 965 765 878 l 985 965 q 1018 667 1018 828 q 937 170 1018 365 q 672 -25 856 -25 q 489 143 504 -25 q 398 16 457 57 q 271 -25 339 -25 z "},"Ǫ":{"ha":806,"x_min":39,"x_max":799,"o":"m 799 626 q 721 231 799 404 q 492 0 643 58 q 342 -156 342 -67 q 394 -201 342 -201 q 458 -194 419 -201 l 426 -333 q 342 -344 386 -344 q 224 -303 269 -344 q 179 -189 179 -261 q 271 -18 179 -89 q 97 94 156 4 q 39 339 39 183 q 88 661 39 513 q 237 900 136 810 q 486 990 338 990 q 719 899 640 990 q 799 626 799 808 m 365 151 q 473 236 431 151 q 534 441 515 321 q 553 671 553 561 q 533 779 553 746 q 471 813 513 813 q 365 726 407 813 q 303 517 322 639 q 283 289 283 396 q 303 183 283 215 q 365 151 324 151 z "},"Ǭ":{"ha":806,"x_min":39,"x_max":799,"o":"m 703 1244 l 678 1082 l 311 1082 l 336 1244 l 703 1244 m 799 626 q 721 231 799 404 q 492 0 643 58 q 342 -156 342 -67 q 394 -201 342 -201 q 458 -194 419 -201 l 426 -333 q 342 -344 386 -344 q 224 -303 269 -344 q 179 -189 179 -261 q 271 -18 179 -89 q 97 94 156 4 q 39 339 39 183 q 88 661 39 513 q 237 900 136 810 q 486 990 338 990 q 719 899 640 990 q 799 626 799 808 m 365 151 q 473 236 431 151 q 534 441 515 321 q 553 671 553 561 q 533 779 553 746 q 471 813 513 813 q 365 726 407 813 q 303 517 322 639 q 283 289 283 396 q 303 183 283 215 q 365 151 324 151 z "},"Ɔ":{"ha":674,"x_min":-40,"x_max":665,"o":"m 357 990 q 583 897 501 990 q 665 619 665 804 q 615 292 665 438 q 463 60 564 146 q 218 -25 363 -25 q 68 11 132 -25 q -40 104 4 47 l 85 232 q 151 181 122 197 q 218 164 179 164 q 333 237 288 164 q 399 417 378 310 q 419 631 419 525 q 396 770 419 731 q 325 810 372 810 q 254 794 288 810 q 181 750 221 779 l 82 883 q 211 963 144 936 q 357 990 278 990 z "},"Ø":{"ha":806,"x_min":39,"x_max":799,"o":"m 685 925 q 769 803 740 879 q 799 626 799 728 q 749 304 799 453 q 599 65 700 156 q 350 -25 499 -25 q 310 -24 324 -25 l 253 -189 l 83 -140 l 149 43 q 67 164 94 89 q 39 339 39 239 q 88 661 39 513 q 237 900 136 810 q 486 990 338 990 q 522 989 511 990 l 582 1151 l 749 1103 l 685 925 m 471 815 q 357 728 401 815 q 292 519 313 642 q 272 289 272 397 q 278 225 272 247 l 479 815 l 471 815 m 365 149 q 481 233 436 149 q 544 439 525 318 q 564 671 564 560 q 560 735 564 708 l 358 149 l 365 149 z "},"Ǿ":{"ha":806,"x_min":39,"x_max":799,"o":"m 685 925 q 769 803 740 879 q 799 626 799 728 q 749 304 799 453 q 599 65 700 156 q 350 -25 499 -25 q 310 -24 324 -25 l 253 -189 l 83 -140 l 149 43 q 67 164 94 89 q 39 339 39 239 q 88 661 39 513 q 237 900 136 810 q 486 990 338 990 q 522 989 511 990 l 582 1151 l 749 1103 l 685 925 m 471 815 q 357 728 401 815 q 292 519 313 642 q 272 289 272 397 q 278 225 272 247 l 479 815 l 471 815 m 365 149 q 481 233 436 149 q 544 439 525 318 q 564 671 564 560 q 560 735 564 708 l 358 149 l 365 149 m 601 1369 l 679 1204 l 375 1085 l 321 1194 l 601 1369 z "},"Õ":{"ha":806,"x_min":39,"x_max":799,"o":"m 486 990 q 719 899 640 990 q 799 626 799 808 q 749 304 799 453 q 599 65 700 156 q 350 -25 499 -25 q 117 67 196 -25 q 39 339 39 158 q 88 661 39 513 q 237 900 136 810 q 486 990 338 990 m 471 813 q 365 726 407 813 q 303 517 322 639 q 283 289 283 396 q 303 183 283 215 q 365 151 324 151 q 473 236 431 151 q 534 441 515 321 q 553 671 553 561 q 533 779 553 746 q 471 813 513 813 m 569 1051 q 531 1060 549 1051 q 490 1088 514 1069 q 476 1098 488 1090 q 457 1109 465 1106 q 440 1113 449 1113 q 408 1098 422 1113 q 374 1051 393 1083 l 276 1110 q 358 1231 310 1183 q 454 1279 406 1279 q 500 1269 481 1279 q 542 1242 519 1260 q 589 1218 571 1218 q 618 1232 604 1218 q 650 1276 632 1246 l 750 1221 q 668 1099 717 1146 q 569 1051 619 1051 z "},"Ṍ":{"ha":806,"x_min":39,"x_max":799,"o":"m 486 990 q 719 899 640 990 q 799 626 799 808 q 749 304 799 453 q 599 65 700 156 q 350 -25 499 -25 q 117 67 196 -25 q 39 339 39 158 q 88 661 39 513 q 237 900 136 810 q 486 990 338 990 m 471 813 q 365 726 407 813 q 303 517 322 639 q 283 289 283 396 q 303 183 283 215 q 365 151 324 151 q 473 236 431 151 q 534 441 515 321 q 553 671 553 561 q 533 779 553 746 q 471 813 513 813 m 560 1049 q 522 1058 539 1049 q 481 1085 504 1067 q 467 1095 478 1088 q 447 1106 456 1103 q 431 1110 439 1110 q 398 1095 413 1110 q 364 1049 383 1081 l 267 1107 q 348 1228 300 1181 q 444 1276 396 1276 q 490 1267 471 1276 q 532 1239 510 1257 q 579 1215 561 1215 q 608 1229 594 1215 q 640 1274 622 1243 l 740 1218 q 658 1096 707 1143 q 560 1049 610 1049 m 625 1583 l 703 1418 l 399 1299 l 344 1408 l 625 1583 z "},"Ȭ":{"ha":806,"x_min":39,"x_max":799,"o":"m 707 1325 l 340 1325 l 365 1488 l 732 1488 l 707 1325 m 564 1049 q 526 1058 543 1049 q 485 1085 508 1067 q 471 1095 482 1088 q 451 1106 460 1103 q 435 1110 443 1110 q 402 1095 417 1110 q 368 1049 388 1081 l 271 1107 q 352 1228 304 1181 q 449 1276 400 1276 q 494 1267 475 1276 q 536 1239 514 1257 q 583 1215 565 1215 q 613 1229 599 1215 q 644 1274 626 1243 l 744 1218 q 663 1096 711 1143 q 564 1049 614 1049 m 486 990 q 719 899 640 990 q 799 626 799 808 q 749 304 799 453 q 599 65 700 156 q 350 -25 499 -25 q 117 67 196 -25 q 39 339 39 158 q 88 661 39 513 q 237 900 136 810 q 486 990 338 990 m 471 813 q 365 726 407 813 q 303 517 322 639 q 283 289 283 396 q 303 183 283 215 q 365 151 324 151 q 473 236 431 151 q 534 441 515 321 q 553 671 553 561 q 533 779 553 746 q 471 813 513 813 z "},"Œ":{"ha":1031,"x_min":39,"x_max":1096,"o":"m 1044 792 l 740 792 q 771 626 771 718 q 769 575 771 592 l 988 575 l 963 404 l 747 404 q 651 175 719 272 l 983 175 l 954 0 l 457 0 q 328 -25 401 -25 q 114 67 189 -25 q 39 339 39 160 q 87 660 39 513 q 232 899 135 808 q 471 990 329 990 q 599 965 549 990 l 1096 965 l 1044 792 m 351 151 q 450 236 411 151 q 507 442 489 321 q 525 671 525 563 q 508 779 525 746 q 457 813 492 813 q 360 726 399 813 q 302 517 321 639 q 283 289 283 394 q 301 184 283 217 q 351 151 318 151 z "},"P":{"ha":690,"x_min":-1,"x_max":721,"o":"m 397 965 q 638 897 556 965 q 721 696 721 828 q 675 499 721 585 q 542 364 629 413 q 333 315 454 315 l 285 315 l 240 0 l -1 0 l 135 965 l 397 965 m 333 490 q 442 547 410 490 q 475 693 475 603 q 453 769 475 747 q 382 792 432 792 l 351 792 l 310 490 l 333 490 z "},"Ṕ":{"ha":690,"x_min":-1,"x_max":721,"o":"m 397 965 q 638 897 556 965 q 721 696 721 828 q 675 499 721 585 q 542 364 629 413 q 333 315 454 315 l 285 315 l 240 0 l -1 0 l 135 965 l 397 965 m 333 490 q 442 547 410 490 q 475 693 475 603 q 453 769 475 747 q 382 792 432 792 l 351 792 l 310 490 l 333 490 m 571 1319 l 649 1154 l 344 1035 l 290 1144 l 571 1319 z "},"Ṗ":{"ha":690,"x_min":-1,"x_max":721,"o":"m 397 965 q 638 897 556 965 q 721 696 721 828 q 675 499 721 585 q 542 364 629 413 q 333 315 454 315 l 285 315 l 240 0 l -1 0 l 135 965 l 397 965 m 333 490 q 442 547 410 490 q 475 693 475 603 q 453 769 475 747 q 382 792 432 792 l 351 792 l 310 490 l 333 490 m 449 1046 q 362 1076 393 1046 q 331 1158 331 1107 q 373 1266 331 1224 q 478 1308 415 1308 q 565 1278 533 1308 q 596 1196 596 1247 q 553 1088 596 1131 q 449 1046 511 1046 z "},"Ƥ":{"ha":900,"x_min":57,"x_max":931,"o":"m 607 965 q 848 897 765 965 q 931 696 931 828 q 885 499 931 585 q 751 364 839 413 q 543 315 664 315 l 494 315 l 450 0 l 208 0 l 319 790 l 289 790 q 248 771 263 790 q 233 714 233 751 q 238 667 233 690 q 243 638 242 643 l 85 582 q 57 721 57 650 q 126 899 57 832 q 306 965 194 965 l 607 965 m 543 490 q 652 547 619 490 q 685 693 685 603 q 663 769 685 747 q 592 792 642 792 l 561 792 l 519 490 l 543 490 z "},"Þ":{"ha":694,"x_min":0,"x_max":704,"o":"m 379 815 q 621 746 538 815 q 704 540 704 676 q 658 341 704 428 q 526 205 613 254 q 317 156 439 156 l 264 156 l 242 0 l 0 0 l 135 965 l 376 965 l 356 815 l 379 815 m 315 331 q 426 388 393 331 q 458 538 458 444 q 436 618 458 594 q 365 642 414 642 l 331 642 l 288 331 l 315 331 z "},"Q":{"ha":803,"x_min":39,"x_max":799,"o":"m 546 63 q 678 34 624 58 q 778 -37 733 10 l 606 -215 q 350 -21 515 -21 q 39 339 39 -21 q 88 661 39 513 q 237 900 136 810 q 486 990 338 990 q 719 899 640 990 q 799 626 799 808 q 736 283 799 435 q 546 63 674 132 m 283 289 q 303 183 283 215 q 365 151 324 151 q 473 236 431 151 q 534 441 515 321 q 553 671 553 561 q 533 779 553 746 q 471 813 513 813 q 365 726 407 813 q 303 517 322 639 q 283 289 283 396 z "},"Ɋ":{"ha":796,"x_min":38,"x_max":854,"o":"m 854 -253 q 667 -310 776 -310 q 497 -254 557 -310 q 436 -94 436 -199 q 439 -49 436 -79 l 446 0 l 444 0 l 447 22 q 306 -25 386 -25 q 106 68 175 -25 q 38 326 38 161 q 88 658 38 506 q 228 900 138 810 q 433 990 318 990 q 527 965 490 990 q 592 894 564 940 l 615 965 l 819 965 l 686 0 l 688 0 l 679 -69 q 678 -85 678 -75 q 689 -121 678 -108 q 722 -133 700 -133 q 760 -128 743 -133 q 801 -111 776 -124 l 854 -253 m 371 149 q 474 208 428 149 l 549 756 q 513 798 531 783 q 471 813 494 813 q 370 741 413 813 q 306 556 328 669 q 285 319 285 443 q 306 188 285 228 q 371 149 328 149 z "},"R":{"ha":714,"x_min":-1,"x_max":726,"o":"m 726 708 q 683 532 726 604 q 550 408 640 460 l 685 0 l 435 0 l 335 360 l 292 360 l 240 0 l -1 0 l 135 965 l 396 965 q 645 899 564 965 q 726 708 726 833 m 315 528 l 349 528 q 450 578 418 528 q 482 701 482 628 q 458 772 482 750 q 388 794 435 794 l 353 794 l 315 528 z "},"Ŕ":{"ha":714,"x_min":-1,"x_max":726,"o":"m 726 708 q 683 532 726 604 q 550 408 640 460 l 685 0 l 435 0 l 335 360 l 292 360 l 240 0 l -1 0 l 135 965 l 396 965 q 645 899 564 965 q 726 708 726 833 m 315 528 l 349 528 q 450 578 418 528 q 482 701 482 628 q 458 772 482 750 q 388 794 435 794 l 353 794 l 315 528 m 565 1319 l 643 1154 l 339 1035 l 285 1144 l 565 1319 z "},"Ř":{"ha":714,"x_min":-1,"x_max":726,"o":"m 726 708 q 683 532 726 604 q 550 408 640 460 l 685 0 l 435 0 l 335 360 l 292 360 l 240 0 l -1 0 l 135 965 l 396 965 q 645 899 564 965 q 726 708 726 833 m 315 528 l 349 528 q 450 578 418 528 q 482 701 482 628 q 458 772 482 750 q 388 794 435 794 l 353 794 l 315 528 m 614 1317 l 697 1225 l 503 1040 l 365 1040 l 217 1238 l 308 1317 l 449 1197 l 614 1317 z "},"Ŗ":{"ha":714,"x_min":-1,"x_max":726,"o":"m 726 708 q 683 532 726 604 q 550 408 640 460 l 685 0 l 435 0 l 335 360 l 292 360 l 240 0 l -1 0 l 135 965 l 396 965 q 645 899 564 965 q 726 708 726 833 m 315 528 l 349 528 q 450 578 418 528 q 482 701 482 628 q 458 772 482 750 q 388 794 435 794 l 353 794 l 315 528 m 328 -92 q 400 -119 372 -92 q 428 -190 428 -147 q 417 -251 428 -222 q 378 -328 406 -279 l 303 -458 l 193 -458 l 247 -296 q 208 -221 208 -269 q 242 -128 208 -164 q 328 -92 276 -92 z "},"Ȑ":{"ha":714,"x_min":-1,"x_max":726,"o":"m 726 708 q 683 532 726 604 q 550 408 640 460 l 685 0 l 435 0 l 335 360 l 292 360 l 240 0 l -1 0 l 135 965 l 396 965 q 645 899 564 965 q 726 708 726 833 m 315 528 l 349 528 q 450 578 418 528 q 482 701 482 628 q 458 772 482 750 q 388 794 435 794 l 353 794 l 315 528 m 325 1378 l 407 1092 l 281 1042 l 160 1310 l 325 1378 m 539 1376 l 613 1090 l 488 1047 l 375 1315 l 539 1376 z "},"Ṛ":{"ha":714,"x_min":-1,"x_max":726,"o":"m 726 708 q 683 532 726 604 q 550 408 640 460 l 685 0 l 435 0 l 335 360 l 292 360 l 240 0 l -1 0 l 135 965 l 396 965 q 645 899 564 965 q 726 708 726 833 m 315 528 l 349 528 q 450 578 418 528 q 482 701 482 628 q 458 772 482 750 q 388 794 435 794 l 353 794 l 315 528 m 318 -81 q 405 -111 374 -81 q 436 -193 436 -142 q 394 -301 436 -258 q 289 -343 351 -343 q 202 -312 233 -343 q 171 -231 171 -282 q 213 -123 171 -165 q 318 -81 256 -81 z "},"Ȓ":{"ha":714,"x_min":-1,"x_max":726,"o":"m 726 708 q 683 532 726 604 q 550 408 640 460 l 685 0 l 435 0 l 335 360 l 292 360 l 240 0 l -1 0 l 135 965 l 396 965 q 645 899 564 965 q 726 708 726 833 m 315 528 l 349 528 q 450 578 418 528 q 482 701 482 628 q 458 772 482 750 q 388 794 435 794 l 353 794 l 315 528 m 226 1081 q 312 1259 250 1190 q 471 1328 374 1328 q 610 1267 564 1328 q 656 1108 656 1206 q 654 1078 656 1089 l 529 1060 q 454 1165 525 1165 q 389 1136 417 1165 q 344 1056 361 1107 l 226 1081 z "},"Ɍ":{"ha":726,"x_min":8,"x_max":739,"o":"m 739 708 q 696 532 739 604 q 563 408 653 460 l 697 0 l 447 0 l 347 360 l 304 360 l 253 0 l 11 0 l 63 360 l 8 360 l 33 528 l 86 528 l 147 965 l 408 965 q 658 899 576 965 q 739 708 739 833 m 365 794 l 328 528 l 361 528 q 463 578 431 528 q 494 701 494 628 q 471 772 494 750 q 400 794 447 794 l 365 794 z "},"Ɽ":{"ha":714,"x_min":-10,"x_max":726,"o":"m 726 708 q 683 532 726 604 q 550 408 640 460 l 685 0 l 435 0 l 335 360 l 292 360 l 240 0 l 242 0 l 233 -69 q 232 -85 232 -75 q 243 -121 232 -108 q 276 -133 254 -133 q 314 -128 297 -133 q 356 -111 331 -124 l 408 -253 q 221 -310 331 -310 q 51 -254 111 -310 q -10 -94 -10 -199 q -7 -49 -10 -79 l 0 0 l -1 0 l 135 965 l 396 965 q 645 899 564 965 q 726 708 726 833 m 315 528 l 349 528 q 450 578 418 528 q 482 701 482 628 q 458 772 482 750 q 388 794 435 794 l 353 794 l 315 528 z "},"S":{"ha":668,"x_min":-43,"x_max":707,"o":"m 424 990 q 588 958 518 990 q 707 861 657 925 l 588 739 q 515 794 553 776 q 433 813 478 813 q 353 785 382 813 q 324 715 324 757 q 350 651 324 676 q 458 583 376 625 q 594 476 550 536 q 639 319 639 417 q 591 142 639 221 q 458 19 543 64 q 267 -25 374 -25 q -43 115 72 -25 l 88 240 q 173 176 132 197 q 268 154 214 154 q 359 188 325 154 q 393 276 393 221 q 364 355 393 324 q 256 425 335 386 q 120 527 161 472 q 79 672 79 582 q 124 838 79 765 q 247 950 168 910 q 424 990 325 990 z "},"Ś":{"ha":668,"x_min":-43,"x_max":707,"o":"m 424 990 q 588 958 518 990 q 707 861 657 925 l 588 739 q 515 794 553 776 q 433 813 478 813 q 353 785 382 813 q 324 715 324 757 q 350 651 324 676 q 458 583 376 625 q 594 476 550 536 q 639 319 639 417 q 591 142 639 221 q 458 19 543 64 q 267 -25 374 -25 q -43 115 72 -25 l 88 240 q 173 176 132 197 q 268 154 214 154 q 359 188 325 154 q 393 276 393 221 q 364 355 393 324 q 256 425 335 386 q 120 527 161 472 q 79 672 79 582 q 124 838 79 765 q 247 950 168 910 q 424 990 325 990 m 564 1319 l 642 1154 l 338 1035 l 283 1144 l 564 1319 z "},"Ꞌ":{"ha":318,"x_min":90,"x_max":349,"o":"m 90 461 l 136 965 l 349 965 l 249 461 l 90 461 z "},"Š":{"ha":668,"x_min":-43,"x_max":707,"o":"m 424 990 q 588 958 518 990 q 707 861 657 925 l 588 739 q 515 794 553 776 q 433 813 478 813 q 353 785 382 813 q 324 715 324 757 q 350 651 324 676 q 458 583 376 625 q 594 476 550 536 q 639 319 639 417 q 591 142 639 221 q 458 19 543 64 q 267 -25 374 -25 q -43 115 72 -25 l 88 240 q 173 176 132 197 q 268 154 214 154 q 359 188 325 154 q 393 276 393 221 q 364 355 393 324 q 256 425 335 386 q 120 527 161 472 q 79 672 79 582 q 124 838 79 765 q 247 950 168 910 q 424 990 325 990 m 613 1317 l 696 1225 l 501 1040 l 364 1040 l 215 1238 l 307 1317 l 447 1197 l 613 1317 z "},"Ş":{"ha":668,"x_min":-43,"x_max":707,"o":"m 458 583 q 594 476 550 536 q 639 319 639 417 q 601 160 639 232 q 496 41 564 88 q 339 -19 428 -6 l 331 -71 q 412 -109 383 -79 q 440 -189 440 -139 q 420 -272 440 -231 q 352 -342 400 -314 q 228 -369 304 -369 q 149 -357 185 -369 q 90 -324 114 -344 l 156 -225 q 224 -244 190 -244 q 264 -233 249 -244 q 279 -200 279 -222 q 256 -168 279 -178 q 179 -158 233 -158 l 213 -22 q -43 115 56 -6 l 88 240 q 173 176 132 197 q 268 154 214 154 q 359 188 325 154 q 393 276 393 221 q 364 355 393 324 q 256 425 335 386 q 120 527 161 472 q 79 672 79 582 q 124 838 79 765 q 247 950 168 910 q 424 990 325 990 q 588 958 518 990 q 707 861 657 925 l 588 739 q 515 794 553 776 q 433 813 478 813 q 353 785 382 813 q 324 715 324 757 q 350 651 324 676 q 458 583 376 625 z "},"Ŝ":{"ha":668,"x_min":-43,"x_max":707,"o":"m 424 990 q 588 958 518 990 q 707 861 657 925 l 588 739 q 515 794 553 776 q 433 813 478 813 q 353 785 382 813 q 324 715 324 757 q 350 651 324 676 q 458 583 376 625 q 594 476 550 536 q 639 319 639 417 q 591 142 639 221 q 458 19 543 64 q 267 -25 374 -25 q -43 115 72 -25 l 88 240 q 173 176 132 197 q 268 154 214 154 q 359 188 325 154 q 393 276 393 221 q 364 355 393 324 q 256 425 335 386 q 120 527 161 472 q 79 672 79 582 q 124 838 79 765 q 247 950 168 910 q 424 990 325 990 m 281 1051 l 197 1142 l 392 1328 l 529 1328 l 678 1131 l 586 1051 l 446 1169 l 281 1051 z "},"Ș":{"ha":668,"x_min":-43,"x_max":707,"o":"m 424 990 q 588 958 518 990 q 707 861 657 925 l 588 739 q 515 794 553 776 q 433 813 478 813 q 353 785 382 813 q 324 715 324 757 q 350 651 324 676 q 458 583 376 625 q 594 476 550 536 q 639 319 639 417 q 591 142 639 221 q 458 19 543 64 q 267 -25 374 -25 q -43 115 72 -25 l 88 240 q 173 176 132 197 q 268 154 214 154 q 359 188 325 154 q 393 276 393 221 q 364 355 393 324 q 256 425 335 386 q 120 527 161 472 q 79 672 79 582 q 124 838 79 765 q 247 950 168 910 q 424 990 325 990 m 267 -92 q 339 -119 311 -92 q 367 -190 367 -147 q 356 -251 367 -222 q 317 -328 344 -279 l 242 -458 l 132 -458 l 186 -296 q 147 -221 147 -269 q 181 -128 147 -164 q 267 -92 215 -92 z "},"Ṡ":{"ha":668,"x_min":-43,"x_max":707,"o":"m 424 990 q 588 958 518 990 q 707 861 657 925 l 588 739 q 515 794 553 776 q 433 813 478 813 q 353 785 382 813 q 324 715 324 757 q 350 651 324 676 q 458 583 376 625 q 594 476 550 536 q 639 319 639 417 q 591 142 639 221 q 458 19 543 64 q 267 -25 374 -25 q -43 115 72 -25 l 88 240 q 173 176 132 197 q 268 154 214 154 q 359 188 325 154 q 393 276 393 221 q 364 355 393 324 q 256 425 335 386 q 120 527 161 472 q 79 672 79 582 q 124 838 79 765 q 247 950 168 910 q 424 990 325 990 m 442 1046 q 355 1076 386 1046 q 324 1158 324 1107 q 366 1266 324 1224 q 471 1308 408 1308 q 558 1278 526 1308 q 589 1196 589 1247 q 547 1088 589 1131 q 442 1046 504 1046 z "},"Ṣ":{"ha":668,"x_min":-43,"x_max":707,"o":"m 424 990 q 588 958 518 990 q 707 861 657 925 l 588 739 q 515 794 553 776 q 433 813 478 813 q 353 785 382 813 q 324 715 324 757 q 350 651 324 676 q 458 583 376 625 q 594 476 550 536 q 639 319 639 417 q 591 142 639 221 q 458 19 543 64 q 267 -25 374 -25 q -43 115 72 -25 l 88 240 q 173 176 132 197 q 268 154 214 154 q 359 188 325 154 q 393 276 393 221 q 364 355 393 324 q 256 425 335 386 q 120 527 161 472 q 79 672 79 582 q 124 838 79 765 q 247 950 168 910 q 424 990 325 990 m 257 -81 q 344 -111 313 -81 q 375 -193 375 -142 q 333 -301 375 -258 q 228 -343 290 -343 q 141 -312 172 -343 q 110 -231 110 -282 q 152 -123 110 -165 q 257 -81 194 -81 z "},"ẞ":{"ha":772,"x_min":0,"x_max":783,"o":"m 436 989 q 783 882 604 989 l 768 778 l 572 529 q 746 315 746 482 q 705 134 746 211 q 590 16 664 57 q 419 -25 515 -25 q 267 14 331 -25 l 358 168 q 406 158 379 158 q 470 198 447 158 q 493 307 493 238 q 465 395 493 365 q 365 433 436 425 l 385 557 l 567 789 q 433 811 493 811 q 369 787 392 811 q 340 707 347 763 l 243 0 l 0 0 l 97 690 q 436 989 138 989 z "},"Ə":{"ha":739,"x_min":18,"x_max":733,"o":"m 443 990 q 656 903 578 990 q 733 651 733 817 q 685 304 733 457 q 539 63 636 151 q 300 -25 442 -25 q 90 63 163 -25 q 18 306 18 151 q 57 569 18 435 l 490 567 q 496 660 496 615 q 472 777 496 742 q 397 813 447 813 q 311 792 350 813 q 231 739 272 772 l 144 867 q 285 960 214 931 q 443 990 356 990 m 313 151 q 402 206 365 151 q 465 399 439 260 l 249 399 q 239 289 239 336 q 257 184 239 217 q 313 151 275 151 z "},"T":{"ha":626,"x_min":60,"x_max":715,"o":"m 715 965 l 664 778 l 492 778 l 382 0 l 140 0 l 250 778 l 60 778 l 86 965 l 715 965 z "},"Ŧ":{"ha":626,"x_min":60,"x_max":715,"o":"m 664 778 l 492 778 l 458 543 l 581 543 l 561 408 l 439 408 l 382 0 l 140 0 l 197 408 l 75 408 l 94 543 l 217 543 l 250 778 l 60 778 l 86 965 l 715 965 l 664 778 z "},"Ť":{"ha":626,"x_min":60,"x_max":715,"o":"m 715 965 l 664 778 l 492 778 l 382 0 l 140 0 l 250 778 l 60 778 l 86 965 l 715 965 m 588 1317 l 671 1225 l 476 1040 l 339 1040 l 190 1238 l 282 1317 l 422 1197 l 588 1317 z "},"Ţ":{"ha":626,"x_min":60,"x_max":715,"o":"m 715 965 l 664 778 l 492 778 l 382 0 l 374 -64 q 452 -104 425 -72 q 479 -187 479 -136 q 459 -271 479 -229 q 391 -341 439 -312 q 268 -369 343 -369 q 129 -324 185 -369 l 194 -221 q 229 -239 214 -233 q 263 -244 244 -244 q 318 -200 317 -244 q 297 -168 319 -178 q 219 -158 274 -158 l 257 0 l 140 0 l 250 778 l 60 778 l 86 965 l 715 965 z "},"Ṱ":{"ha":626,"x_min":-18,"x_max":715,"o":"m 715 965 l 664 778 l 492 778 l 382 0 l 140 0 l 250 778 l 60 778 l 86 965 l 715 965 m 58 -374 l -18 -283 l 175 -86 l 314 -86 l 461 -294 l 365 -374 l 231 -244 l 58 -374 z "},"Ț":{"ha":626,"x_min":60,"x_max":715,"o":"m 715 965 l 664 778 l 492 778 l 382 0 l 140 0 l 250 778 l 60 778 l 86 965 l 715 965 m 254 -92 q 326 -119 299 -92 q 354 -190 354 -147 q 343 -251 354 -222 q 304 -328 332 -279 l 229 -458 l 119 -458 l 174 -296 q 135 -221 135 -269 q 169 -128 135 -164 q 254 -92 203 -92 z "},"Ⱦ":{"ha":631,"x_min":54,"x_max":719,"o":"m 667 788 l 589 788 l 438 503 l 368 0 l 169 0 l 114 -104 l 54 -72 l 186 176 l 271 788 l 63 788 l 90 965 l 607 965 l 653 1050 l 713 1019 l 683 965 l 719 965 l 667 788 m 464 696 l 513 788 l 476 788 l 464 696 z "},"Ṫ":{"ha":626,"x_min":60,"x_max":715,"o":"m 715 965 l 664 778 l 492 778 l 382 0 l 140 0 l 250 778 l 60 778 l 86 965 l 715 965 m 417 1046 q 330 1076 361 1046 q 299 1158 299 1107 q 341 1266 299 1224 q 446 1308 383 1308 q 533 1278 501 1308 q 564 1196 564 1247 q 522 1088 564 1131 q 417 1046 479 1046 z "},"Ṭ":{"ha":626,"x_min":60,"x_max":715,"o":"m 715 965 l 664 778 l 492 778 l 382 0 l 140 0 l 250 778 l 60 778 l 86 965 l 715 965 m 244 -81 q 331 -111 300 -81 q 363 -193 363 -142 q 320 -301 363 -258 q 215 -343 278 -343 q 128 -312 160 -343 q 97 -231 97 -282 q 140 -123 97 -165 q 244 -81 182 -81 z "},"Ƭ":{"ha":707,"x_min":57,"x_max":797,"o":"m 746 778 l 572 778 l 463 0 l 221 0 l 331 778 l 289 778 q 233 714 233 778 q 238 667 233 690 q 243 638 242 643 l 85 582 q 57 721 57 650 q 126 899 57 832 q 307 965 196 965 l 797 965 l 746 778 z "},"Ṯ":{"ha":626,"x_min":50,"x_max":715,"o":"m 715 965 l 664 778 l 492 778 l 382 0 l 140 0 l 250 778 l 60 778 l 86 965 l 715 965 m 75 -107 l 442 -107 l 417 -269 l 50 -269 l 75 -107 z "},"Ƽ":{"ha":640,"x_min":-29,"x_max":650,"o":"m 225 -25 q -29 122 58 -25 l 110 232 q 166 170 138 190 q 235 150 194 150 q 341 220 308 150 q 374 386 374 290 q 357 455 374 435 q 308 475 340 475 q 217 442 265 475 l 65 442 l 139 965 l 650 965 l 601 797 l 331 797 l 301 601 q 365 628 336 621 q 426 636 394 636 q 559 576 510 636 q 608 399 608 515 q 563 179 608 275 q 430 29 517 83 q 225 -25 343 -25 z "},"Ƅ":{"ha":721,"x_min":29,"x_max":710,"o":"m 408 640 q 629 571 549 640 q 710 369 710 501 q 672 190 710 274 q 550 53 633 106 q 340 0 467 0 l 29 0 l 122 674 l 43 747 q 210 965 132 831 l 406 965 l 360 640 l 408 640 m 333 176 q 427 229 397 176 q 457 363 457 282 q 438 445 457 419 q 376 471 419 471 l 336 471 l 294 176 l 333 176 z "},"Ƨ":{"ha":646,"x_min":1,"x_max":697,"o":"m 440 989 q 627 926 557 989 q 697 756 697 864 q 663 603 697 665 q 565 499 629 542 q 397 415 500 456 q 285 344 318 385 q 251 239 251 303 q 328 158 251 158 q 517 244 411 158 l 615 113 q 470 13 554 50 q 281 -25 386 -25 q 76 44 151 -25 q 1 228 1 114 q 73 450 1 367 q 283 583 144 533 q 387 628 351 607 q 437 676 422 650 q 451 742 451 701 q 433 794 451 776 q 382 811 414 811 q 204 736 297 811 l 121 864 q 440 989 263 989 z "},"Ʈ":{"ha":626,"x_min":60,"x_max":715,"o":"m 374 -69 q 372 -85 372 -75 q 383 -121 372 -108 q 417 -133 394 -133 q 454 -128 438 -133 q 496 -111 471 -124 l 549 -253 q 361 -310 471 -310 q 191 -254 251 -310 q 131 -94 131 -199 q 133 -49 131 -79 l 140 0 l 250 778 l 60 778 l 86 965 l 715 965 l 664 778 l 492 778 l 382 0 l 374 -69 z "},"U":{"ha":731,"x_min":22,"x_max":776,"o":"m 679 278 q 622 124 667 192 q 499 15 576 56 q 318 -25 421 -25 q 97 47 172 -25 q 22 232 22 118 q 26 286 22 260 l 121 965 l 363 965 l 264 257 q 263 231 263 249 q 280 176 263 196 q 333 156 297 156 q 403 185 378 156 q 435 261 428 214 l 533 965 l 776 965 l 679 278 z "},"Ú":{"ha":731,"x_min":22,"x_max":776,"o":"m 679 278 q 622 124 667 192 q 499 15 576 56 q 318 -25 421 -25 q 97 47 172 -25 q 22 232 22 118 q 26 286 22 260 l 121 965 l 363 965 l 264 257 q 263 231 263 249 q 280 176 263 196 q 333 156 297 156 q 403 185 378 156 q 435 261 428 214 l 533 965 l 776 965 l 679 278 m 589 1319 l 667 1154 l 363 1035 l 308 1144 l 589 1319 z "},"Ʉ":{"ha":772,"x_min":43,"x_max":831,"o":"m 811 692 l 758 692 l 700 278 q 642 124 688 192 q 519 15 597 56 q 339 -25 442 -25 q 118 47 193 -25 q 43 232 43 118 q 47 286 43 260 l 104 692 l 51 692 l 71 825 l 122 825 l 142 965 l 383 965 l 364 825 l 535 825 l 554 965 l 797 965 l 778 825 l 831 825 l 811 692 m 515 692 l 346 692 l 285 257 q 283 231 283 249 q 301 176 283 196 q 354 156 318 156 q 424 185 399 156 q 456 261 449 214 l 515 692 z "},"Ŭ":{"ha":731,"x_min":22,"x_max":776,"o":"m 679 278 q 622 124 667 192 q 499 15 576 56 q 318 -25 421 -25 q 97 47 172 -25 q 22 232 22 118 q 26 286 22 260 l 121 965 l 363 965 l 264 257 q 263 231 263 249 q 280 176 263 196 q 333 156 297 156 q 403 185 378 156 q 435 261 428 214 l 533 965 l 776 965 l 679 278 m 461 1040 q 324 1099 369 1040 q 278 1249 278 1158 q 279 1278 278 1268 l 397 1297 q 418 1228 400 1254 q 474 1203 436 1203 q 576 1300 543 1203 l 697 1274 q 619 1106 678 1171 q 461 1040 560 1040 z "},"Ǔ":{"ha":731,"x_min":22,"x_max":776,"o":"m 679 278 q 622 124 667 192 q 499 15 576 56 q 318 -25 421 -25 q 97 47 172 -25 q 22 232 22 118 q 26 286 22 260 l 121 965 l 363 965 l 264 257 q 263 231 263 249 q 280 176 263 196 q 333 156 297 156 q 403 185 378 156 q 435 261 428 214 l 533 965 l 776 965 l 679 278 m 638 1317 l 721 1225 l 526 1040 l 389 1040 l 240 1238 l 332 1317 l 472 1197 l 638 1317 z "},"Û":{"ha":731,"x_min":22,"x_max":776,"o":"m 679 278 q 622 124 667 192 q 499 15 576 56 q 318 -25 421 -25 q 97 47 172 -25 q 22 232 22 118 q 26 286 22 260 l 121 965 l 363 965 l 264 257 q 263 231 263 249 q 280 176 263 196 q 333 156 297 156 q 403 185 378 156 q 435 261 428 214 l 533 965 l 776 965 l 679 278 m 306 1051 l 222 1142 l 417 1328 l 554 1328 l 703 1131 l 611 1051 l 471 1169 l 306 1051 z "},"Ȕ":{"ha":731,"x_min":22,"x_max":776,"o":"m 679 278 q 622 124 667 192 q 499 15 576 56 q 318 -25 421 -25 q 97 47 172 -25 q 22 232 22 118 q 26 286 22 260 l 121 965 l 363 965 l 264 257 q 263 231 263 249 q 280 176 263 196 q 333 156 297 156 q 403 185 378 156 q 435 261 428 214 l 533 965 l 776 965 l 679 278 m 349 1378 l 431 1092 l 304 1042 l 183 1310 l 349 1378 m 563 1376 l 636 1090 l 511 1047 l 399 1315 l 563 1376 z "},"Ü":{"ha":731,"x_min":22,"x_max":776,"o":"m 679 278 q 622 124 667 192 q 499 15 576 56 q 318 -25 421 -25 q 97 47 172 -25 q 22 232 22 118 q 26 286 22 260 l 121 965 l 363 965 l 264 257 q 263 231 263 249 q 280 176 263 196 q 333 156 297 156 q 403 185 378 156 q 435 261 428 214 l 533 965 l 776 965 l 679 278 m 318 1063 q 244 1090 271 1063 q 218 1161 218 1117 q 255 1254 218 1217 q 344 1292 292 1292 q 419 1265 392 1292 q 446 1193 446 1239 q 409 1100 446 1138 q 318 1063 372 1063 m 601 1063 q 528 1090 556 1063 q 501 1161 501 1117 q 538 1254 501 1217 q 628 1292 575 1292 q 702 1265 675 1292 q 729 1193 729 1238 q 692 1100 729 1138 q 601 1063 656 1063 z "},"Ǘ":{"ha":731,"x_min":22,"x_max":776,"o":"m 679 278 q 622 124 667 192 q 499 15 576 56 q 318 -25 421 -25 q 97 47 172 -25 q 22 232 22 118 q 26 286 22 260 l 121 965 l 363 965 l 264 257 q 263 231 263 249 q 280 176 263 196 q 333 156 297 156 q 403 185 378 156 q 435 261 428 214 l 533 965 l 776 965 l 679 278 m 601 1544 l 713 1426 l 482 1221 l 403 1292 l 601 1544 m 308 1040 q 235 1067 261 1040 q 208 1139 208 1094 q 246 1232 208 1194 q 336 1269 283 1269 q 410 1242 383 1269 q 436 1171 436 1215 q 399 1078 436 1115 q 308 1040 361 1040 m 613 1040 q 538 1067 565 1040 q 511 1139 511 1094 q 549 1232 511 1194 q 639 1269 586 1269 q 713 1242 686 1269 q 739 1171 739 1215 q 702 1078 739 1115 q 613 1040 665 1040 z "},"Ǚ":{"ha":731,"x_min":22,"x_max":776,"o":"m 679 278 q 622 124 667 192 q 499 15 576 56 q 318 -25 421 -25 q 97 47 172 -25 q 22 232 22 118 q 26 286 22 260 l 121 965 l 363 965 l 264 257 q 263 231 263 249 q 280 176 263 196 q 333 156 297 156 q 403 185 378 156 q 435 261 428 214 l 533 965 l 776 965 l 679 278 m 667 1544 l 750 1453 l 556 1268 l 418 1268 l 269 1465 l 361 1544 l 501 1425 l 667 1544 m 307 1040 q 233 1067 260 1040 q 207 1139 207 1094 q 244 1232 207 1194 q 335 1269 282 1269 q 408 1242 382 1269 q 435 1171 435 1215 q 397 1078 435 1115 q 307 1040 360 1040 m 610 1040 q 537 1067 564 1040 q 510 1139 510 1094 q 547 1232 510 1194 q 638 1269 585 1269 q 711 1242 685 1269 q 738 1171 738 1215 q 701 1078 738 1115 q 610 1040 664 1040 z "},"Ǜ":{"ha":731,"x_min":22,"x_max":776,"o":"m 679 278 q 622 124 667 192 q 499 15 576 56 q 318 -25 421 -25 q 97 47 172 -25 q 22 232 22 118 q 26 286 22 260 l 121 965 l 363 965 l 264 257 q 263 231 263 249 q 280 176 263 196 q 333 156 297 156 q 403 185 378 156 q 435 261 428 214 l 533 965 l 776 965 l 679 278 m 443 1542 l 571 1288 l 472 1222 l 301 1438 l 443 1542 m 304 1042 q 231 1069 257 1042 q 204 1140 204 1096 q 242 1233 204 1196 q 332 1271 279 1271 q 406 1244 379 1271 q 432 1172 432 1217 q 394 1079 432 1117 q 304 1042 357 1042 m 608 1042 q 534 1069 561 1042 q 507 1140 507 1096 q 544 1233 507 1196 q 635 1271 582 1271 q 708 1244 682 1271 q 735 1172 735 1217 q 698 1079 735 1117 q 608 1042 661 1042 z "},"Ǖ":{"ha":731,"x_min":22,"x_max":776,"o":"m 679 278 q 622 124 667 192 q 499 15 576 56 q 318 -25 421 -25 q 97 47 172 -25 q 22 232 22 118 q 26 286 22 260 l 121 965 l 363 965 l 264 257 q 263 231 263 249 q 280 176 263 196 q 333 156 297 156 q 403 185 378 156 q 435 261 428 214 l 533 965 l 776 965 l 679 278 m 317 1035 q 243 1062 269 1035 q 217 1133 217 1089 q 253 1226 217 1189 q 343 1264 290 1264 q 417 1238 390 1264 q 444 1165 444 1211 q 408 1072 444 1110 q 317 1035 371 1035 m 600 1035 q 527 1062 554 1035 q 500 1133 500 1089 q 537 1226 500 1189 q 626 1264 574 1264 q 701 1237 674 1264 q 728 1165 728 1210 q 691 1072 728 1110 q 600 1035 654 1035 m 671 1324 l 304 1324 l 329 1486 l 696 1486 l 671 1324 z "},"Ụ":{"ha":731,"x_min":22,"x_max":776,"o":"m 679 278 q 622 124 667 192 q 499 15 576 56 q 318 -25 421 -25 q 97 47 172 -25 q 22 232 22 118 q 26 286 22 260 l 121 965 l 363 965 l 264 257 q 263 231 263 249 q 280 176 263 196 q 333 156 297 156 q 403 185 378 156 q 435 261 428 214 l 533 965 l 776 965 l 679 278 m 296 -81 q 383 -111 351 -81 q 414 -193 414 -142 q 372 -301 414 -258 q 267 -343 329 -343 q 180 -312 211 -343 q 149 -231 149 -282 q 191 -123 149 -165 q 296 -81 233 -81 z "},"Ù":{"ha":731,"x_min":22,"x_max":776,"o":"m 679 278 q 622 124 667 192 q 499 15 576 56 q 318 -25 421 -25 q 97 47 172 -25 q 22 232 22 118 q 26 286 22 260 l 121 965 l 363 965 l 264 257 q 263 231 263 249 q 280 176 263 196 q 333 156 297 156 q 403 185 378 156 q 435 261 428 214 l 533 965 l 776 965 l 679 278 m 415 1315 l 660 1139 l 592 1036 l 318 1153 l 415 1315 z "},"Ủ":{"ha":731,"x_min":22,"x_max":776,"o":"m 679 278 q 622 124 667 192 q 499 15 576 56 q 318 -25 421 -25 q 97 47 172 -25 q 22 232 22 118 q 26 286 22 260 l 121 965 l 363 965 l 264 257 q 263 231 263 249 q 280 176 263 196 q 333 156 297 156 q 403 185 378 156 q 435 261 428 214 l 533 965 l 776 965 l 679 278 m 413 1186 q 480 1203 460 1189 q 500 1246 500 1217 q 463 1281 500 1281 q 431 1276 446 1281 q 394 1263 415 1272 l 374 1358 q 504 1393 432 1393 q 610 1357 572 1393 q 649 1263 649 1321 q 617 1168 649 1204 q 531 1119 585 1132 l 524 1061 l 397 1061 l 413 1186 z "},"Ư":{"ha":864,"x_min":22,"x_max":963,"o":"m 963 992 q 906 827 963 883 q 749 768 850 771 l 679 278 q 622 124 667 192 q 499 15 576 56 q 318 -25 421 -25 q 97 47 172 -25 q 22 232 22 118 q 26 286 22 260 l 121 965 l 363 965 l 264 257 q 263 231 263 249 q 280 176 263 196 q 333 156 297 156 q 403 185 378 156 q 435 261 428 214 l 533 965 l 776 965 l 765 886 q 813 990 813 904 q 808 1054 813 1028 l 954 1072 q 963 992 963 1039 z "},"Ứ":{"ha":864,"x_min":22,"x_max":963,"o":"m 667 1154 l 363 1035 l 308 1144 l 589 1319 l 667 1154 m 963 992 q 906 827 963 883 q 749 768 850 771 l 679 278 q 622 124 667 192 q 499 15 576 56 q 318 -25 421 -25 q 97 47 172 -25 q 22 232 22 118 q 26 286 22 260 l 121 965 l 363 965 l 264 257 q 263 231 263 249 q 280 176 263 196 q 333 156 297 156 q 403 185 378 156 q 435 261 428 214 l 533 965 l 776 965 l 765 886 q 813 990 813 904 q 808 1054 813 1028 l 954 1072 q 963 992 963 1039 z "},"Ự":{"ha":864,"x_min":22,"x_max":963,"o":"m 963 992 q 906 827 963 883 q 749 768 850 771 l 679 278 q 622 124 667 192 q 499 15 576 56 q 318 -25 421 -25 q 97 47 172 -25 q 22 232 22 118 q 26 286 22 260 l 121 965 l 363 965 l 264 257 q 263 231 263 249 q 280 176 263 196 q 333 156 297 156 q 403 185 378 156 q 435 261 428 214 l 533 965 l 776 965 l 765 886 q 813 990 813 904 q 808 1054 813 1028 l 954 1072 q 963 992 963 1039 m 296 -81 q 383 -111 351 -81 q 414 -193 414 -142 q 372 -301 414 -258 q 267 -343 329 -343 q 180 -312 211 -343 q 149 -231 149 -282 q 191 -123 149 -165 q 296 -81 233 -81 z "},"Ừ":{"ha":864,"x_min":22,"x_max":963,"o":"m 660 1139 l 592 1036 l 318 1153 l 415 1315 l 660 1139 m 963 992 q 906 827 963 883 q 749 768 850 771 l 679 278 q 622 124 667 192 q 499 15 576 56 q 318 -25 421 -25 q 97 47 172 -25 q 22 232 22 118 q 26 286 22 260 l 121 965 l 363 965 l 264 257 q 263 231 263 249 q 280 176 263 196 q 333 156 297 156 q 403 185 378 156 q 435 261 428 214 l 533 965 l 776 965 l 765 886 q 813 990 813 904 q 808 1054 813 1028 l 954 1072 q 963 992 963 1039 z "},"Ử":{"ha":864,"x_min":22,"x_max":963,"o":"m 463 1281 q 431 1276 446 1281 q 394 1263 415 1272 l 374 1358 q 504 1393 432 1393 q 610 1357 572 1393 q 649 1263 649 1321 q 617 1168 649 1204 q 531 1119 585 1132 l 524 1061 l 397 1061 l 413 1186 q 480 1203 460 1189 q 500 1246 500 1217 q 463 1281 500 1281 m 963 992 q 906 827 963 883 q 749 768 850 771 l 679 278 q 622 124 667 192 q 499 15 576 56 q 318 -25 421 -25 q 97 47 172 -25 q 22 232 22 118 q 26 286 22 260 l 121 965 l 363 965 l 264 257 q 263 231 263 249 q 280 176 263 196 q 333 156 297 156 q 403 185 378 156 q 435 261 428 214 l 533 965 l 776 965 l 765 886 q 813 990 813 904 q 808 1054 813 1028 l 954 1072 q 963 992 963 1039 z "},"Ữ":{"ha":864,"x_min":22,"x_max":963,"o":"m 404 1113 q 372 1098 386 1113 q 338 1051 357 1083 l 240 1110 q 322 1231 274 1183 q 418 1279 369 1279 q 464 1269 444 1279 q 506 1242 483 1260 q 553 1218 535 1218 q 582 1232 568 1218 q 614 1276 596 1246 l 714 1221 q 632 1099 681 1146 q 533 1051 583 1051 q 495 1060 513 1051 q 454 1088 478 1069 q 440 1098 451 1090 q 421 1109 429 1106 q 404 1113 413 1113 m 963 992 q 906 827 963 883 q 749 768 850 771 l 679 278 q 622 124 667 192 q 499 15 576 56 q 318 -25 421 -25 q 97 47 172 -25 q 22 232 22 118 q 26 286 22 260 l 121 965 l 363 965 l 264 257 q 263 231 263 249 q 280 176 263 196 q 333 156 297 156 q 403 185 378 156 q 435 261 428 214 l 533 965 l 776 965 l 765 886 q 813 990 813 904 q 808 1054 813 1028 l 954 1072 q 963 992 963 1039 z "},"Ű":{"ha":731,"x_min":22,"x_max":779,"o":"m 679 278 q 622 124 667 192 q 499 15 576 56 q 318 -25 421 -25 q 97 47 172 -25 q 22 232 22 118 q 26 286 22 260 l 121 965 l 363 965 l 264 257 q 263 231 263 249 q 280 176 263 196 q 333 156 297 156 q 403 185 378 156 q 435 261 428 214 l 533 965 l 776 965 l 679 278 m 647 1378 l 779 1299 l 593 1042 l 490 1097 l 647 1378 m 433 1376 l 567 1304 l 388 1047 l 282 1096 l 433 1376 z "},"Ȗ":{"ha":731,"x_min":22,"x_max":776,"o":"m 679 278 q 622 124 667 192 q 499 15 576 56 q 318 -25 421 -25 q 97 47 172 -25 q 22 232 22 118 q 26 286 22 260 l 121 965 l 363 965 l 264 257 q 263 231 263 249 q 280 176 263 196 q 333 156 297 156 q 403 185 378 156 q 435 261 428 214 l 533 965 l 776 965 l 679 278 m 250 1081 q 335 1259 274 1190 q 494 1328 397 1328 q 633 1267 588 1328 q 679 1108 679 1206 q 678 1078 679 1089 l 553 1060 q 478 1165 549 1165 q 413 1136 440 1165 q 368 1056 385 1107 l 250 1081 z "},"Ū":{"ha":731,"x_min":22,"x_max":776,"o":"m 679 278 q 622 124 667 192 q 499 15 576 56 q 318 -25 421 -25 q 97 47 172 -25 q 22 232 22 118 q 26 286 22 260 l 121 965 l 363 965 l 264 257 q 263 231 263 249 q 280 176 263 196 q 333 156 297 156 q 403 185 378 156 q 435 261 428 214 l 533 965 l 776 965 l 679 278 m 642 1082 l 275 1082 l 300 1244 l 667 1244 l 642 1082 z "},"Ų":{"ha":731,"x_min":22,"x_max":776,"o":"m 776 965 l 679 278 q 606 102 665 178 q 447 -6 546 26 q 307 -156 307 -69 q 319 -190 307 -178 q 354 -201 332 -201 q 428 -190 386 -201 l 392 -333 q 306 -344 350 -344 q 188 -307 233 -344 q 142 -207 142 -269 q 176 -99 142 -144 q 271 -22 211 -53 q 85 58 147 -11 q 22 232 22 128 q 26 286 22 260 l 121 965 l 363 965 l 264 257 q 263 231 263 249 q 280 176 263 196 q 333 156 297 156 q 403 185 378 156 q 435 261 428 214 l 533 965 l 776 965 z "},"Ʊ":{"ha":800,"x_min":33,"x_max":828,"o":"m 344 -25 q 115 74 196 -25 q 33 333 33 172 q 86 605 33 490 q 258 793 139 719 l 115 793 l 140 965 l 456 965 l 431 803 q 316 610 353 760 q 279 297 279 461 q 299 187 279 221 q 360 153 319 153 q 470 231 426 153 q 533 422 514 308 q 553 649 553 536 q 538 742 553 708 q 489 803 524 776 l 514 965 l 828 965 l 803 792 l 660 792 q 753 683 722 746 q 785 529 785 619 q 731 251 785 378 q 578 50 678 125 q 344 -25 478 -25 z "},"Ů":{"ha":731,"x_min":22,"x_max":776,"o":"m 679 278 q 622 124 667 192 q 499 15 576 56 q 318 -25 421 -25 q 97 47 172 -25 q 22 232 22 118 q 26 286 22 260 l 121 965 l 363 965 l 264 257 q 263 231 263 249 q 280 176 263 196 q 333 156 297 156 q 403 185 378 156 q 435 261 428 214 l 533 965 l 776 965 l 679 278 m 503 1386 q 618 1340 576 1386 q 660 1221 660 1294 q 604 1073 660 1132 q 458 1014 549 1014 q 342 1059 383 1014 q 301 1178 301 1104 q 357 1326 301 1265 q 503 1386 413 1386 m 492 1271 q 447 1245 463 1271 q 431 1185 431 1219 q 469 1129 431 1129 q 514 1155 497 1129 q 531 1215 531 1181 q 520 1257 531 1243 q 492 1271 510 1271 z "},"Ũ":{"ha":731,"x_min":22,"x_max":776,"o":"m 679 278 q 622 124 667 192 q 499 15 576 56 q 318 -25 421 -25 q 97 47 172 -25 q 22 232 22 118 q 26 286 22 260 l 121 965 l 363 965 l 264 257 q 263 231 263 249 q 280 176 263 196 q 333 156 297 156 q 403 185 378 156 q 435 261 428 214 l 533 965 l 776 965 l 679 278 m 533 1051 q 495 1060 513 1051 q 454 1088 478 1069 q 440 1098 451 1090 q 421 1109 429 1106 q 404 1113 413 1113 q 372 1098 386 1113 q 338 1051 357 1083 l 240 1110 q 322 1231 274 1183 q 418 1279 369 1279 q 464 1269 444 1279 q 506 1242 483 1260 q 553 1218 535 1218 q 582 1232 568 1218 q 614 1276 596 1246 l 714 1221 q 632 1099 681 1146 q 533 1051 583 1051 z "},"Ṹ":{"ha":731,"x_min":22,"x_max":776,"o":"m 679 278 q 622 124 667 192 q 499 15 576 56 q 318 -25 421 -25 q 97 47 172 -25 q 22 232 22 118 q 26 286 22 260 l 121 965 l 363 965 l 264 257 q 263 231 263 249 q 280 176 263 196 q 333 156 297 156 q 403 185 378 156 q 435 261 428 214 l 533 965 l 776 965 l 679 278 m 524 1049 q 485 1058 503 1049 q 444 1085 468 1067 q 431 1095 442 1088 q 411 1106 419 1103 q 394 1110 403 1110 q 362 1095 376 1110 q 328 1049 347 1081 l 231 1107 q 312 1228 264 1181 q 408 1276 360 1276 q 454 1267 435 1276 q 496 1239 474 1257 q 543 1215 525 1215 q 572 1229 558 1215 q 604 1274 586 1243 l 704 1218 q 622 1096 671 1143 q 524 1049 574 1049 m 589 1583 l 667 1418 l 363 1299 l 308 1408 l 589 1583 z "},"V":{"ha":669,"x_min":63,"x_max":774,"o":"m 774 965 l 450 0 l 133 0 l 63 965 l 308 965 l 318 183 l 528 965 l 774 965 z "},"Ʋ":{"ha":732,"x_min":21,"x_max":749,"o":"m 578 990 q 749 815 749 990 q 744 754 749 788 l 690 358 q 561 75 665 175 q 296 -25 457 -25 q 94 46 167 -25 q 21 229 21 117 q 25 279 21 254 l 122 965 l 364 965 l 265 263 q 263 231 263 240 q 319 156 263 156 q 399 204 365 156 q 449 357 433 253 l 506 785 q 507 796 507 789 q 485 819 507 819 q 463 815 471 819 l 454 967 q 578 990 514 990 z "},"Ʌ":{"ha":696,"x_min":-72,"x_max":664,"o":"m 576 965 l 664 0 l 421 0 l 407 793 l 182 0 l -72 0 l 286 965 l 576 965 z "},"W":{"ha":979,"x_min":58,"x_max":1057,"o":"m 1057 965 l 813 0 l 496 0 l 536 729 l 374 0 l 58 0 l 89 965 l 325 965 l 264 183 l 451 965 l 696 965 l 656 183 l 825 965 l 1057 965 z "},"Ẃ":{"ha":979,"x_min":58,"x_max":1057,"o":"m 1057 965 l 813 0 l 496 0 l 536 729 l 374 0 l 58 0 l 89 965 l 325 965 l 264 183 l 451 965 l 696 965 l 656 183 l 825 965 l 1057 965 m 718 1319 l 796 1154 l 492 1035 l 438 1144 l 718 1319 z "},"Ŵ":{"ha":979,"x_min":58,"x_max":1057,"o":"m 1057 965 l 813 0 l 496 0 l 536 729 l 374 0 l 58 0 l 89 965 l 325 965 l 264 183 l 451 965 l 696 965 l 656 183 l 825 965 l 1057 965 m 435 1051 l 351 1142 l 546 1328 l 683 1328 l 832 1131 l 740 1051 l 600 1169 l 435 1051 z "},"Ẅ":{"ha":979,"x_min":58,"x_max":1057,"o":"m 1057 965 l 813 0 l 496 0 l 536 729 l 374 0 l 58 0 l 89 965 l 325 965 l 264 183 l 451 965 l 696 965 l 656 183 l 825 965 l 1057 965 m 447 1063 q 374 1090 400 1063 q 347 1161 347 1117 q 384 1254 347 1217 q 474 1292 421 1292 q 548 1265 521 1292 q 575 1193 575 1239 q 538 1100 575 1138 q 447 1063 501 1063 m 731 1063 q 658 1090 685 1063 q 631 1161 631 1117 q 667 1254 631 1217 q 757 1292 704 1292 q 831 1265 804 1292 q 858 1193 858 1238 q 822 1100 858 1138 q 731 1063 785 1063 z "},"Ẁ":{"ha":979,"x_min":58,"x_max":1057,"o":"m 1057 965 l 813 0 l 496 0 l 536 729 l 374 0 l 58 0 l 89 965 l 325 965 l 264 183 l 451 965 l 696 965 l 656 183 l 825 965 l 1057 965 m 544 1315 l 789 1139 l 721 1036 l 447 1153 l 544 1315 z "},"Ⱳ":{"ha":1033,"x_min":58,"x_max":1157,"o":"m 374 0 l 536 729 l 496 0 l 813 0 l 976 764 q 1031 817 988 817 q 1075 801 1053 817 l 1157 936 q 1004 989 1092 989 q 853 940 910 989 q 774 778 796 892 l 654 183 l 696 965 l 451 965 l 264 183 l 325 965 l 89 965 l 58 0 l 374 0 z "},"Ƿ":{"ha":693,"x_min":-1,"x_max":733,"o":"m 543 990 q 681 929 629 990 q 733 760 733 868 q 687 563 733 643 q 562 427 640 482 q 361 318 483 372 l 281 282 l 240 0 l -1 0 l 135 965 l 376 965 l 371 921 q 543 990 444 990 m 328 472 q 444 583 406 519 q 482 736 482 647 q 428 819 482 819 q 350 779 388 819 l 306 460 l 328 472 z "},"X":{"ha":683,"x_min":-65,"x_max":763,"o":"m 763 965 l 501 519 l 643 0 l 390 0 l 338 368 l 197 0 l -65 0 l 211 513 l 83 965 l 336 965 l 372 647 l 503 965 l 763 965 z "},"Y":{"ha":697,"x_min":64,"x_max":801,"o":"m 801 965 l 468 360 l 418 0 l 176 0 l 226 358 l 64 965 l 318 965 l 376 543 l 543 965 l 801 965 z "},"Ý":{"ha":697,"x_min":64,"x_max":801,"o":"m 801 965 l 468 360 l 418 0 l 176 0 l 226 358 l 64 965 l 318 965 l 376 543 l 543 965 l 801 965 m 569 1319 l 647 1154 l 343 1035 l 289 1144 l 569 1319 z "},"Ŷ":{"ha":697,"x_min":64,"x_max":801,"o":"m 801 965 l 468 360 l 418 0 l 176 0 l 226 358 l 64 965 l 318 965 l 376 543 l 543 965 l 801 965 m 286 1051 l 203 1142 l 397 1328 l 535 1328 l 683 1131 l 592 1051 l 451 1169 l 286 1051 z "},"Ÿ":{"ha":697,"x_min":64,"x_max":801,"o":"m 801 965 l 468 360 l 418 0 l 176 0 l 226 358 l 64 965 l 318 965 l 376 543 l 543 965 l 801 965 m 299 1063 q 225 1090 251 1063 q 199 1161 199 1117 q 235 1254 199 1217 q 325 1292 272 1292 q 399 1265 372 1292 q 426 1193 426 1239 q 390 1100 426 1138 q 299 1063 353 1063 m 582 1063 q 509 1090 536 1063 q 482 1161 482 1117 q 519 1254 482 1217 q 608 1292 556 1292 q 683 1265 656 1292 q 710 1193 710 1238 q 673 1100 710 1138 q 582 1063 636 1063 z "},"Ỵ":{"ha":697,"x_min":64,"x_max":801,"o":"m 801 965 l 468 360 l 418 0 l 176 0 l 226 358 l 64 965 l 318 965 l 376 543 l 543 965 l 801 965 m 281 -81 q 367 -111 336 -81 q 399 -193 399 -142 q 356 -301 399 -258 q 251 -343 314 -343 q 165 -312 196 -343 q 133 -231 133 -282 q 176 -123 133 -165 q 281 -81 218 -81 z "},"Ỳ":{"ha":697,"x_min":64,"x_max":801,"o":"m 801 965 l 468 360 l 418 0 l 176 0 l 226 358 l 64 965 l 318 965 l 376 543 l 543 965 l 801 965 m 396 1315 l 640 1139 l 572 1036 l 299 1153 l 396 1315 z "},"Ƴ":{"ha":725,"x_min":64,"x_max":849,"o":"m 226 358 l 64 965 l 318 965 l 374 543 l 468 808 q 553 947 500 903 q 696 990 607 990 q 849 936 782 990 l 768 801 q 746 813 756 810 q 722 817 736 817 q 692 807 704 817 q 668 771 681 797 l 469 360 l 418 0 l 176 0 l 226 358 z "},"Ỷ":{"ha":697,"x_min":64,"x_max":801,"o":"m 801 965 l 468 360 l 418 0 l 176 0 l 226 358 l 64 965 l 318 965 l 376 543 l 543 965 l 801 965 m 393 1186 q 460 1203 440 1189 q 481 1246 481 1217 q 443 1281 481 1281 q 411 1276 426 1281 q 375 1263 396 1272 l 354 1358 q 485 1393 413 1393 q 591 1357 553 1393 q 629 1263 629 1321 q 597 1168 629 1204 q 511 1119 565 1132 l 504 1061 l 378 1061 l 393 1186 z "},"Ȳ":{"ha":697,"x_min":64,"x_max":801,"o":"m 801 965 l 468 360 l 418 0 l 176 0 l 226 358 l 64 965 l 318 965 l 376 543 l 543 965 l 801 965 m 622 1082 l 256 1082 l 281 1244 l 647 1244 l 622 1082 z "},"Ʀ":{"ha":715,"x_min":1,"x_max":707,"o":"m 707 551 q 664 375 707 447 q 531 251 621 303 l 665 -157 l 415 -157 l 315 203 l 271 203 l 243 0 l 1 0 l 136 965 l 378 965 l 356 807 l 376 807 q 626 741 544 807 q 707 551 707 675 m 294 371 l 329 371 q 431 421 399 371 q 463 544 463 471 q 440 615 463 593 q 368 636 417 636 l 332 636 l 294 371 z "},"Ɏ":{"ha":700,"x_min":31,"x_max":803,"o":"m 743 857 l 785 857 l 765 724 l 671 724 l 471 360 l 421 0 l 179 0 l 229 358 l 131 724 l 31 724 l 50 857 l 94 857 l 65 965 l 297 965 l 317 857 l 522 857 l 569 965 l 803 965 l 743 857 m 378 521 l 465 724 l 342 724 l 378 521 z "},"Ỹ":{"ha":697,"x_min":64,"x_max":801,"o":"m 801 965 l 468 360 l 418 0 l 176 0 l 226 358 l 64 965 l 318 965 l 376 543 l 543 965 l 801 965 m 514 1051 q 476 1060 493 1051 q 435 1088 458 1069 q 421 1098 432 1090 q 401 1109 410 1106 q 385 1113 393 1113 q 352 1098 367 1113 q 318 1051 338 1083 l 221 1110 q 302 1231 254 1183 q 399 1279 350 1279 q 444 1269 425 1279 q 486 1242 464 1260 q 533 1218 515 1218 q 563 1232 549 1218 q 594 1276 576 1246 l 694 1221 q 613 1099 661 1146 q 514 1051 564 1051 z "},"Z":{"ha":626,"x_min":-43,"x_max":682,"o":"m -43 0 l -17 182 l 390 776 l 92 776 l 121 965 l 682 965 l 653 781 l 247 194 l 590 194 l 536 0 l -43 0 z "},"Ź":{"ha":626,"x_min":-43,"x_max":682,"o":"m -43 0 l -17 182 l 390 776 l 92 776 l 121 965 l 682 965 l 653 781 l 247 194 l 590 194 l 536 0 l -43 0 m 538 1319 l 615 1154 l 311 1035 l 257 1144 l 538 1319 z "},"Ž":{"ha":626,"x_min":-43,"x_max":682,"o":"m -43 0 l -17 182 l 390 776 l 92 776 l 121 965 l 682 965 l 653 781 l 247 194 l 590 194 l 536 0 l -43 0 m 586 1317 l 669 1225 l 475 1040 l 338 1040 l 189 1238 l 281 1317 l 421 1197 l 586 1317 z "},"Ż":{"ha":626,"x_min":-43,"x_max":682,"o":"m -43 0 l -17 182 l 390 776 l 92 776 l 121 965 l 682 965 l 653 781 l 247 194 l 590 194 l 536 0 l -43 0 m 415 1046 q 328 1076 360 1046 q 297 1158 297 1107 q 340 1266 297 1224 q 444 1308 382 1308 q 531 1278 500 1308 q 563 1196 563 1247 q 520 1088 563 1131 q 415 1046 478 1046 z "},"Ẓ":{"ha":626,"x_min":-43,"x_max":682,"o":"m -43 0 l -17 182 l 390 776 l 92 776 l 121 965 l 682 965 l 653 781 l 247 194 l 590 194 l 536 0 l -43 0 m 231 -81 q 317 -111 286 -81 q 349 -193 349 -142 q 306 -301 349 -258 q 201 -343 264 -343 q 115 -312 146 -343 q 83 -231 83 -282 q 126 -123 83 -165 q 231 -81 168 -81 z "},"Ȥ":{"ha":608,"x_min":-43,"x_max":682,"o":"m 653 781 l 247 194 l 572 194 l 544 0 l 535 -65 q 438 -247 517 -182 q 251 -311 360 -311 q 147 -294 189 -311 q 74 -249 106 -278 l 169 -115 q 204 -133 189 -128 q 239 -139 219 -139 q 306 -64 297 -139 l 314 0 l -43 0 l -17 182 l 390 776 l 92 776 l 121 965 l 682 965 l 653 781 z "},"Ƶ":{"ha":626,"x_min":-43,"x_max":682,"o":"m 682 965 l 653 781 l 488 551 l 572 551 l 551 404 l 381 404 l 229 194 l 590 194 l 536 0 l -43 0 l -17 182 l 142 404 l 54 404 l 75 551 l 247 551 l 408 776 l 92 776 l 121 965 l 682 965 z "},"ʙ":{"ha":621,"x_min":-4,"x_max":610,"o":"m 444 406 q 553 360 519 396 q 588 261 588 324 q 500 67 588 133 q 263 0 413 0 l -4 0 l 97 732 q 360 764 225 764 q 544 715 478 764 q 610 585 610 667 q 444 406 610 442 m 308 451 q 365 481 346 451 q 385 564 385 510 q 373 603 385 590 q 338 615 361 615 q 301 613 321 615 l 279 451 l 308 451 m 265 151 q 334 183 308 151 q 360 275 360 215 q 347 320 360 307 q 301 333 333 333 l 264 333 l 239 151 l 265 151 z "},"ɢ":{"ha":654,"x_min":21,"x_max":651,"o":"m 406 765 q 651 660 561 765 l 528 542 q 471 585 500 571 q 406 599 442 599 q 293 500 328 599 q 258 263 258 401 q 273 170 258 197 q 321 143 288 143 q 381 157 346 143 l 397 286 l 339 286 l 342 436 l 628 436 l 575 67 q 449 1 519 25 q 297 -22 378 -22 q 89 49 157 -22 q 21 263 21 121 q 70 531 21 417 q 206 705 119 644 q 406 765 293 765 z "},"ʛ":{"ha":643,"x_min":21,"x_max":875,"o":"m 710 1056 q 802 1041 760 1056 q 875 1003 844 1026 l 794 863 q 728 883 756 883 q 691 866 703 883 q 674 811 679 849 l 651 660 l 539 553 q 470 588 499 578 q 406 599 442 599 q 293 500 328 599 q 258 263 258 401 q 273 170 258 197 q 321 143 288 143 q 381 157 346 143 l 397 286 l 339 286 l 342 436 l 628 436 l 575 67 q 449 1 519 25 q 297 -22 378 -22 q 89 49 157 -22 q 21 263 21 121 q 69 529 21 415 q 203 704 118 643 q 394 765 288 765 q 471 753 433 765 l 486 854 q 558 1003 503 951 q 710 1056 613 1056 z "},"ʜ":{"ha":660,"x_min":-4,"x_max":664,"o":"m 329 0 l 369 288 l 268 288 l 228 0 l -4 0 l 99 740 l 331 740 l 292 461 l 393 461 l 432 740 l 664 740 l 561 0 l 329 0 z "},"ɪ":{"ha":385,"x_min":-39,"x_max":424,"o":"m 401 576 l 338 576 l 279 164 l 344 164 l 321 0 l -39 0 l -17 164 l 47 164 l 106 576 l 40 576 l 64 740 l 424 740 l 401 576 z "},"ʟ":{"ha":515,"x_min":-4,"x_max":494,"o":"m 331 740 l 257 181 l 494 181 l 442 0 l -4 0 l 99 740 l 331 740 z "},"ɴ":{"ha":661,"x_min":-4,"x_max":665,"o":"m 563 0 l 296 0 l 233 536 l 233 499 q 228 340 232 407 q 214 193 225 272 l 188 0 l -4 0 l 99 740 l 367 740 l 429 204 l 429 263 q 431 353 429 276 q 442 501 432 431 l 476 740 l 665 740 l 563 0 z "},"ɶ":{"ha":874,"x_min":21,"x_max":917,"o":"m 871 579 l 626 579 q 650 458 650 521 l 650 453 l 829 453 l 808 296 l 631 296 q 574 161 610 217 l 829 161 l 807 0 l 410 0 q 283 -25 349 -25 q 91 49 161 -25 q 21 269 21 124 q 63 515 21 401 q 189 697 104 628 q 394 765 274 765 q 514 740 468 765 l 917 740 l 871 579 m 306 146 q 375 205 347 146 q 415 348 403 264 q 428 506 428 432 q 415 572 428 551 q 378 593 403 593 q 308 534 335 593 q 268 392 281 475 q 256 235 256 310 q 268 167 256 188 q 306 146 281 146 z "},"ʀ":{"ha":625,"x_min":-4,"x_max":593,"o":"m 593 521 q 472 294 593 364 l 571 0 l 349 0 l 278 250 l 250 250 l 215 0 l -4 0 l 99 740 l 328 740 q 528 688 463 740 q 593 521 593 635 m 271 401 l 296 401 q 354 432 335 401 q 374 517 374 463 q 360 565 374 550 q 321 579 347 579 l 294 579 l 271 401 z "},"ʁ":{"ha":622,"x_min":-4,"x_max":674,"o":"m 490 438 q 561 282 561 386 q 478 72 561 143 q 251 0 396 0 l -4 0 l 99 740 l 318 740 l 283 489 l 318 489 l 450 740 l 674 740 l 490 438 m 257 160 q 319 187 296 160 q 342 271 342 214 q 283 335 342 335 l 261 335 l 238 160 l 257 160 z "},"ʏ":{"ha":607,"x_min":39,"x_max":674,"o":"m 674 740 l 406 267 l 367 0 l 135 0 l 174 265 l 39 740 l 281 740 l 310 426 l 432 740 l 674 740 z "},"a":{"ha":669,"x_min":18,"x_max":671,"o":"m 414 765 q 671 693 547 765 l 604 221 q 600 181 600 199 q 606 151 600 163 q 628 132 613 139 l 556 -21 q 453 10 497 -15 q 392 83 408 36 q 310 2 353 29 q 208 -25 267 -25 q 67 45 117 -25 q 18 238 18 115 q 58 497 18 378 q 186 691 97 617 q 414 765 275 765 m 392 600 q 288 488 324 600 q 251 232 251 376 q 262 166 251 185 q 293 147 272 147 q 332 167 313 147 q 375 224 351 188 l 426 593 q 392 600 408 600 z "},"á":{"ha":669,"x_min":18,"x_max":671,"o":"m 414 765 q 671 693 547 765 l 604 221 q 600 181 600 199 q 606 151 600 163 q 628 132 613 139 l 556 -21 q 453 10 497 -15 q 392 83 408 36 q 310 2 353 29 q 208 -25 267 -25 q 67 45 117 -25 q 18 238 18 115 q 58 497 18 378 q 186 691 97 617 q 414 765 275 765 m 392 600 q 288 488 324 600 q 251 232 251 376 q 262 166 251 185 q 293 147 272 147 q 332 167 313 147 q 375 224 351 188 l 426 593 q 392 600 408 600 m 554 1160 l 631 993 l 328 861 l 269 971 l 554 1160 z "},"ă":{"ha":669,"x_min":18,"x_max":674,"o":"m 414 765 q 671 693 547 765 l 604 221 q 600 181 600 199 q 606 151 600 163 q 628 132 613 139 l 556 -21 q 453 10 497 -15 q 392 83 408 36 q 310 2 353 29 q 208 -25 267 -25 q 67 45 117 -25 q 18 238 18 115 q 58 497 18 378 q 186 691 97 617 q 414 765 275 765 m 392 600 q 288 488 324 600 q 251 232 251 376 q 262 166 251 185 q 293 147 272 147 q 332 167 313 147 q 375 224 351 188 l 426 593 q 392 600 408 600 m 440 875 q 301 936 349 875 q 254 1094 254 997 q 256 1128 254 1117 l 375 1146 q 397 1067 378 1094 q 451 1039 415 1039 q 516 1068 489 1039 q 558 1149 543 1097 l 674 1122 q 594 944 653 1013 q 440 875 536 875 z "},"ắ":{"ha":669,"x_min":18,"x_max":704,"o":"m 593 1393 l 704 1275 l 474 1069 l 394 1140 l 593 1393 m 440 836 q 303 895 349 836 q 257 1044 257 954 q 258 1074 257 1064 l 376 1093 q 397 1024 379 1050 q 453 999 415 999 q 556 1096 522 999 l 676 1069 q 598 901 657 967 q 440 836 539 836 m 414 765 q 671 693 547 765 l 604 221 q 600 181 600 199 q 606 151 600 163 q 628 132 613 139 l 556 -21 q 453 10 497 -15 q 392 83 408 36 q 310 2 353 29 q 208 -25 267 -25 q 67 45 117 -25 q 18 238 18 115 q 58 497 18 378 q 186 691 97 617 q 414 765 275 765 m 392 600 q 288 488 324 600 q 251 232 251 376 q 262 166 251 185 q 293 147 272 147 q 332 167 313 147 q 375 224 351 188 l 426 593 q 392 600 408 600 z "},"ặ":{"ha":669,"x_min":18,"x_max":674,"o":"m 414 765 q 671 693 547 765 l 604 221 q 600 181 600 199 q 606 151 600 163 q 628 132 613 139 l 556 -21 q 453 10 497 -15 q 392 83 408 36 q 310 2 353 29 q 208 -25 267 -25 q 67 45 117 -25 q 18 238 18 115 q 58 497 18 378 q 186 691 97 617 q 414 765 275 765 m 392 600 q 288 488 324 600 q 251 232 251 376 q 262 166 251 185 q 293 147 272 147 q 332 167 313 147 q 375 224 351 188 l 426 593 q 392 600 408 600 m 440 875 q 301 936 349 875 q 254 1094 254 997 q 256 1128 254 1117 l 375 1146 q 397 1067 378 1094 q 451 1039 415 1039 q 516 1068 489 1039 q 558 1149 543 1097 l 674 1122 q 594 944 653 1013 q 440 875 536 875 m 292 -81 q 378 -111 347 -81 q 410 -193 410 -142 q 367 -301 410 -258 q 263 -343 325 -343 q 176 -312 207 -343 q 144 -231 144 -282 q 187 -123 144 -165 q 292 -81 229 -81 z "},"ằ":{"ha":669,"x_min":18,"x_max":676,"o":"m 418 1389 l 546 1135 l 447 1069 l 276 1285 l 418 1389 m 440 836 q 303 895 349 836 q 257 1044 257 954 q 258 1074 257 1064 l 376 1093 q 397 1024 379 1050 q 453 999 415 999 q 556 1096 522 999 l 676 1069 q 598 901 657 967 q 440 836 539 836 m 414 765 q 671 693 547 765 l 604 221 q 600 181 600 199 q 606 151 600 163 q 628 132 613 139 l 556 -21 q 453 10 497 -15 q 392 83 408 36 q 310 2 353 29 q 208 -25 267 -25 q 67 45 117 -25 q 18 238 18 115 q 58 497 18 378 q 186 691 97 617 q 414 765 275 765 m 392 600 q 288 488 324 600 q 251 232 251 376 q 262 166 251 185 q 293 147 272 147 q 332 167 313 147 q 375 224 351 188 l 426 593 q 392 600 408 600 z "},"ẳ":{"ha":669,"x_min":18,"x_max":676,"o":"m 414 765 q 671 693 547 765 l 604 221 q 600 181 600 199 q 606 151 600 163 q 628 132 613 139 l 556 -21 q 453 10 497 -15 q 392 83 408 36 q 310 2 353 29 q 208 -25 267 -25 q 67 45 117 -25 q 18 238 18 115 q 58 497 18 378 q 186 691 97 617 q 414 765 275 765 m 392 600 q 288 488 324 600 q 251 232 251 376 q 262 166 251 185 q 293 147 272 147 q 332 167 313 147 q 375 224 351 188 l 426 593 q 392 600 408 600 m 440 836 q 303 895 349 836 q 257 1044 257 954 q 258 1074 257 1064 l 376 1093 q 397 1024 379 1050 q 453 999 415 999 q 556 1096 522 999 l 676 1069 q 598 901 657 967 q 440 836 539 836 m 418 1213 q 485 1229 465 1215 q 506 1272 506 1243 q 497 1298 506 1290 q 469 1306 489 1306 q 437 1301 451 1306 q 400 1288 422 1297 l 379 1385 q 510 1419 438 1419 q 616 1383 578 1419 q 654 1289 654 1347 q 623 1194 654 1231 q 536 1144 592 1157 l 526 1074 l 400 1074 l 418 1213 z "},"ẵ":{"ha":669,"x_min":18,"x_max":714,"o":"m 536 1124 q 498 1132 515 1124 q 458 1156 481 1140 q 433 1172 446 1165 q 410 1179 419 1179 q 377 1166 392 1179 q 343 1124 363 1153 l 249 1178 q 328 1289 281 1244 q 424 1333 375 1333 q 469 1324 450 1333 q 508 1299 488 1315 q 531 1283 519 1290 q 556 1276 543 1276 q 585 1289 571 1276 q 615 1331 599 1301 l 714 1279 q 634 1167 682 1211 q 536 1124 586 1124 m 438 836 q 300 895 346 836 q 254 1044 254 954 q 256 1074 254 1064 l 374 1093 q 394 1024 376 1050 q 450 999 413 999 q 553 1096 519 999 l 674 1069 q 595 901 654 967 q 438 836 536 836 m 414 765 q 671 693 547 765 l 604 221 q 600 181 600 199 q 606 151 600 163 q 628 132 613 139 l 556 -21 q 453 10 497 -15 q 392 83 408 36 q 310 2 353 29 q 208 -25 267 -25 q 67 45 117 -25 q 18 238 18 115 q 58 497 18 378 q 186 691 97 617 q 414 765 275 765 m 392 600 q 288 488 324 600 q 251 232 251 376 q 262 166 251 185 q 293 147 272 147 q 332 167 313 147 q 375 224 351 188 l 426 593 q 392 600 408 600 z "},"ǎ":{"ha":669,"x_min":18,"x_max":696,"o":"m 414 765 q 671 693 547 765 l 604 221 q 600 181 600 199 q 606 151 600 163 q 628 132 613 139 l 556 -21 q 453 10 497 -15 q 392 83 408 36 q 310 2 353 29 q 208 -25 267 -25 q 67 45 117 -25 q 18 238 18 115 q 58 497 18 378 q 186 691 97 617 q 414 765 275 765 m 392 600 q 288 488 324 600 q 251 232 251 376 q 262 166 251 185 q 293 147 272 147 q 332 167 313 147 q 375 224 351 188 l 426 593 q 392 600 408 600 m 619 1132 l 696 1042 l 503 846 l 364 846 l 228 1042 l 313 1132 l 447 1003 l 619 1132 z "},"â":{"ha":669,"x_min":18,"x_max":690,"o":"m 414 765 q 671 693 547 765 l 604 221 q 600 181 600 199 q 606 151 600 163 q 628 132 613 139 l 556 -21 q 453 10 497 -15 q 392 83 408 36 q 310 2 353 29 q 208 -25 267 -25 q 67 45 117 -25 q 18 238 18 115 q 58 497 18 378 q 186 691 97 617 q 414 765 275 765 m 392 600 q 288 488 324 600 q 251 232 251 376 q 262 166 251 185 q 293 147 272 147 q 332 167 313 147 q 375 224 351 188 l 426 593 q 392 600 408 600 m 289 861 l 213 953 l 406 1149 l 544 1149 l 690 942 l 594 861 l 461 992 l 289 861 z "},"ấ":{"ha":669,"x_min":18,"x_max":876,"o":"m 765 1346 l 876 1228 l 646 1022 l 567 1093 l 765 1346 m 275 815 l 192 906 l 386 1092 l 524 1092 l 672 894 l 581 815 l 440 933 l 275 815 m 414 765 q 671 693 547 765 l 604 221 q 600 181 600 199 q 606 151 600 163 q 628 132 613 139 l 556 -21 q 453 10 497 -15 q 392 83 408 36 q 310 2 353 29 q 208 -25 267 -25 q 67 45 117 -25 q 18 238 18 115 q 58 497 18 378 q 186 691 97 617 q 414 765 275 765 m 392 600 q 288 488 324 600 q 251 232 251 376 q 262 166 251 185 q 293 147 272 147 q 332 167 313 147 q 375 224 351 188 l 426 593 q 392 600 408 600 z "},"ậ":{"ha":669,"x_min":18,"x_max":690,"o":"m 414 765 q 671 693 547 765 l 604 221 q 600 181 600 199 q 606 151 600 163 q 628 132 613 139 l 556 -21 q 453 10 497 -15 q 392 83 408 36 q 310 2 353 29 q 208 -25 267 -25 q 67 45 117 -25 q 18 238 18 115 q 58 497 18 378 q 186 691 97 617 q 414 765 275 765 m 392 600 q 288 488 324 600 q 251 232 251 376 q 262 166 251 185 q 293 147 272 147 q 332 167 313 147 q 375 224 351 188 l 426 593 q 392 600 408 600 m 289 861 l 213 953 l 406 1149 l 544 1149 l 690 942 l 594 861 l 461 992 l 289 861 m 292 -81 q 378 -111 347 -81 q 410 -193 410 -142 q 367 -301 410 -258 q 263 -343 325 -343 q 176 -312 207 -343 q 144 -231 144 -282 q 187 -123 144 -165 q 292 -81 229 -81 z "},"ầ":{"ha":669,"x_min":18,"x_max":672,"o":"m 214 1342 l 342 1088 l 243 1022 l 72 1238 l 214 1342 m 275 815 l 192 906 l 386 1092 l 524 1092 l 672 894 l 581 815 l 440 933 l 275 815 m 414 765 q 671 693 547 765 l 604 221 q 600 181 600 199 q 606 151 600 163 q 628 132 613 139 l 556 -21 q 453 10 497 -15 q 392 83 408 36 q 310 2 353 29 q 208 -25 267 -25 q 67 45 117 -25 q 18 238 18 115 q 58 497 18 378 q 186 691 97 617 q 414 765 275 765 m 392 600 q 288 488 324 600 q 251 232 251 376 q 262 166 251 185 q 293 147 272 147 q 332 167 313 147 q 375 224 351 188 l 426 593 q 392 600 408 600 z "},"ẩ":{"ha":669,"x_min":18,"x_max":846,"o":"m 414 765 q 671 693 547 765 l 604 221 q 600 181 600 199 q 606 151 600 163 q 628 132 613 139 l 556 -21 q 453 10 497 -15 q 392 83 408 36 q 310 2 353 29 q 208 -25 267 -25 q 67 45 117 -25 q 18 238 18 115 q 58 497 18 378 q 186 691 97 617 q 414 765 275 765 m 392 600 q 288 488 324 600 q 251 232 251 376 q 262 166 251 185 q 293 147 272 147 q 332 167 313 147 q 375 224 351 188 l 426 593 q 392 600 408 600 m 278 815 l 194 906 l 389 1092 l 526 1092 l 675 894 l 583 815 l 443 933 l 278 815 m 610 1196 q 677 1213 657 1199 q 697 1256 697 1226 q 689 1281 697 1274 q 661 1289 681 1289 q 628 1285 643 1289 q 592 1271 614 1281 l 571 1368 q 701 1403 629 1403 q 808 1367 769 1403 q 846 1272 846 1331 q 815 1177 846 1214 q 728 1128 783 1140 l 718 1057 l 592 1057 l 610 1196 z "},"ẫ":{"ha":669,"x_min":18,"x_max":717,"o":"m 539 1126 q 501 1135 518 1126 q 461 1158 483 1143 q 435 1175 449 1168 q 413 1182 422 1182 q 380 1169 394 1182 q 346 1126 365 1156 l 251 1181 q 331 1292 283 1247 q 426 1336 378 1336 q 472 1327 453 1336 q 511 1301 490 1318 q 534 1286 522 1293 q 558 1279 546 1279 q 588 1292 574 1279 q 618 1333 601 1304 l 717 1282 q 637 1170 685 1214 q 539 1126 589 1126 m 276 811 l 193 901 l 388 1088 l 525 1088 l 674 890 l 582 811 l 442 929 l 276 811 m 414 765 q 671 693 547 765 l 604 221 q 600 181 600 199 q 606 151 600 163 q 628 132 613 139 l 556 -21 q 453 10 497 -15 q 392 83 408 36 q 310 2 353 29 q 208 -25 267 -25 q 67 45 117 -25 q 18 238 18 115 q 58 497 18 378 q 186 691 97 617 q 414 765 275 765 m 392 600 q 288 488 324 600 q 251 232 251 376 q 262 166 251 185 q 293 147 272 147 q 332 167 313 147 q 375 224 351 188 l 426 593 q 392 600 408 600 z "},"ȁ":{"ha":669,"x_min":18,"x_max":671,"o":"m 414 765 q 671 693 547 765 l 604 221 q 600 181 600 199 q 606 151 600 163 q 628 132 613 139 l 556 -21 q 453 10 497 -15 q 392 83 408 36 q 310 2 353 29 q 208 -25 267 -25 q 67 45 117 -25 q 18 238 18 115 q 58 497 18 378 q 186 691 97 617 q 414 765 275 765 m 392 600 q 288 488 324 600 q 251 232 251 376 q 262 166 251 185 q 293 147 272 147 q 332 167 313 147 q 375 224 351 188 l 426 593 q 392 600 408 600 m 331 1203 l 413 917 l 286 867 l 165 1135 l 331 1203 m 544 1201 l 618 915 l 493 872 l 381 1140 l 544 1201 z "},"ä":{"ha":669,"x_min":18,"x_max":711,"o":"m 414 765 q 671 693 547 765 l 604 221 q 600 181 600 199 q 606 151 600 163 q 628 132 613 139 l 556 -21 q 453 10 497 -15 q 392 83 408 36 q 310 2 353 29 q 208 -25 267 -25 q 67 45 117 -25 q 18 238 18 115 q 58 497 18 378 q 186 691 97 617 q 414 765 275 765 m 392 600 q 288 488 324 600 q 251 232 251 376 q 262 166 251 185 q 293 147 272 147 q 332 167 313 147 q 375 224 351 188 l 426 593 q 392 600 408 600 m 300 888 q 226 915 253 888 q 200 986 200 942 q 237 1079 200 1042 q 326 1117 274 1117 q 401 1090 374 1117 q 428 1018 428 1064 q 391 925 428 963 q 300 888 354 888 m 583 888 q 510 915 538 888 q 483 986 483 942 q 520 1079 483 1042 q 610 1117 557 1117 q 684 1090 657 1117 q 711 1018 711 1063 q 674 925 711 963 q 583 888 638 888 z "},"ǟ":{"ha":669,"x_min":18,"x_max":703,"o":"m 414 765 q 671 693 547 765 l 604 221 q 600 181 600 199 q 606 151 600 163 q 628 132 613 139 l 556 -21 q 453 10 497 -15 q 392 83 408 36 q 310 2 353 29 q 208 -25 267 -25 q 67 45 117 -25 q 18 238 18 115 q 58 497 18 378 q 186 691 97 617 q 414 765 275 765 m 392 600 q 288 488 324 600 q 251 232 251 376 q 262 166 251 185 q 293 147 272 147 q 332 167 313 147 q 375 224 351 188 l 426 593 q 392 600 408 600 m 292 831 q 218 858 244 831 q 192 929 192 885 q 228 1022 192 985 q 318 1060 265 1060 q 392 1033 365 1060 q 419 961 419 1007 q 383 868 419 906 q 292 831 346 831 m 575 831 q 502 858 529 831 q 475 929 475 885 q 512 1022 475 985 q 601 1060 549 1060 q 676 1033 649 1060 q 703 961 703 1006 q 666 868 703 906 q 575 831 629 831 m 649 1118 l 282 1118 l 307 1281 l 674 1281 l 649 1118 z "},"ȧ":{"ha":669,"x_min":18,"x_max":671,"o":"m 414 765 q 671 693 547 765 l 604 221 q 600 181 600 199 q 606 151 600 163 q 628 132 613 139 l 556 -21 q 453 10 497 -15 q 392 83 408 36 q 310 2 353 29 q 208 -25 267 -25 q 67 45 117 -25 q 18 238 18 115 q 58 497 18 378 q 186 691 97 617 q 414 765 275 765 m 392 600 q 288 488 324 600 q 251 232 251 376 q 262 166 251 185 q 293 147 272 147 q 332 167 313 147 q 375 224 351 188 l 426 593 q 392 600 408 600 m 442 871 q 355 901 386 871 q 324 983 324 932 q 366 1091 324 1049 q 471 1133 408 1133 q 558 1103 526 1133 q 589 1021 589 1072 q 547 913 589 956 q 442 871 504 871 z "},"ạ":{"ha":669,"x_min":18,"x_max":671,"o":"m 414 765 q 671 693 547 765 l 604 221 q 600 181 600 199 q 606 151 600 163 q 628 132 613 139 l 556 -21 q 453 10 497 -15 q 392 83 408 36 q 310 2 353 29 q 208 -25 267 -25 q 67 45 117 -25 q 18 238 18 115 q 58 497 18 378 q 186 691 97 617 q 414 765 275 765 m 392 600 q 288 488 324 600 q 251 232 251 376 q 262 166 251 185 q 293 147 272 147 q 332 167 313 147 q 375 224 351 188 l 426 593 q 392 600 408 600 m 292 -81 q 378 -111 347 -81 q 410 -193 410 -142 q 367 -301 410 -258 q 263 -343 325 -343 q 176 -312 207 -343 q 144 -231 144 -282 q 187 -123 144 -165 q 292 -81 229 -81 z "},"ǡ":{"ha":669,"x_min":18,"x_max":676,"o":"m 414 765 q 671 693 547 765 l 604 221 q 600 181 600 199 q 606 151 600 163 q 628 132 613 139 l 556 -21 q 453 10 497 -15 q 392 83 408 36 q 310 2 353 29 q 208 -25 267 -25 q 67 45 117 -25 q 18 238 18 115 q 58 497 18 378 q 186 691 97 617 q 414 765 275 765 m 392 600 q 288 488 324 600 q 251 232 251 376 q 262 166 251 185 q 293 147 272 147 q 332 167 313 147 q 375 224 351 188 l 426 593 q 392 600 408 600 m 432 822 q 345 853 376 822 q 314 935 314 883 q 356 1042 314 1000 q 461 1085 399 1085 q 548 1054 517 1085 q 579 972 579 1024 q 537 865 579 907 q 432 822 494 822 m 651 1132 l 285 1132 l 310 1294 l 676 1294 l 651 1132 z "},"à":{"ha":669,"x_min":18,"x_max":671,"o":"m 414 765 q 671 693 547 765 l 604 221 q 600 181 600 199 q 606 151 600 163 q 628 132 613 139 l 556 -21 q 453 10 497 -15 q 392 83 408 36 q 310 2 353 29 q 208 -25 267 -25 q 67 45 117 -25 q 18 238 18 115 q 58 497 18 378 q 186 691 97 617 q 414 765 275 765 m 392 600 q 288 488 324 600 q 251 232 251 376 q 262 166 251 185 q 293 147 272 147 q 332 167 313 147 q 375 224 351 188 l 426 593 q 392 600 408 600 m 399 1157 l 639 967 l 571 864 l 297 993 l 399 1157 z "},"ả":{"ha":669,"x_min":18,"x_max":671,"o":"m 414 765 q 671 693 547 765 l 604 221 q 600 181 600 199 q 606 151 600 163 q 628 132 613 139 l 556 -21 q 453 10 497 -15 q 392 83 408 36 q 310 2 353 29 q 208 -25 267 -25 q 67 45 117 -25 q 18 238 18 115 q 58 497 18 378 q 186 691 97 617 q 414 765 275 765 m 392 600 q 288 488 324 600 q 251 232 251 376 q 262 166 251 185 q 293 147 272 147 q 332 167 313 147 q 375 224 351 188 l 426 593 q 392 600 408 600 m 388 978 q 455 994 435 981 q 475 1038 475 1008 q 467 1063 475 1056 q 439 1071 458 1071 q 406 1067 421 1071 q 369 1053 392 1063 l 349 1150 q 479 1185 407 1185 q 585 1149 547 1185 q 624 1054 624 1113 q 592 959 624 996 q 506 910 561 922 l 496 839 l 369 839 l 388 978 z "},"ȃ":{"ha":669,"x_min":18,"x_max":671,"o":"m 414 765 q 671 693 547 765 l 604 221 q 600 181 600 199 q 606 151 600 163 q 628 132 613 139 l 556 -21 q 453 10 497 -15 q 392 83 408 36 q 310 2 353 29 q 208 -25 267 -25 q 67 45 117 -25 q 18 238 18 115 q 58 497 18 378 q 186 691 97 617 q 414 765 275 765 m 392 600 q 288 488 324 600 q 251 232 251 376 q 262 166 251 185 q 293 147 272 147 q 332 167 313 147 q 375 224 351 188 l 426 593 q 392 600 408 600 m 222 856 q 308 1034 246 965 q 467 1103 369 1103 q 606 1042 560 1103 q 651 883 651 981 q 650 853 651 864 l 525 835 q 450 940 521 940 q 385 911 413 940 q 340 831 357 882 l 222 856 z "},"ɑ":{"ha":671,"x_min":18,"x_max":676,"o":"m 606 221 q 601 181 601 199 q 608 151 601 163 q 629 132 614 139 l 557 -21 q 453 10 497 -15 q 393 83 410 36 q 311 2 354 29 q 210 -25 268 -25 q 68 45 118 -25 q 18 238 18 115 q 54 499 18 379 q 160 692 90 619 q 329 764 231 764 q 419 743 382 764 q 481 676 457 722 l 514 740 l 676 740 l 606 221 m 418 549 q 364 599 400 599 q 305 544 331 599 q 266 406 279 490 q 253 232 253 321 q 263 166 253 185 q 294 147 272 147 q 333 167 314 147 q 375 224 353 188 l 418 549 z "},"ɒ":{"ha":671,"x_min":-6,"x_max":653,"o":"m 461 765 q 603 695 553 765 q 653 503 653 625 q 617 241 653 361 q 510 49 581 121 q 342 -24 440 -24 q 251 -3 289 -24 q 190 64 214 18 l 157 0 l -6 0 l 65 519 q 69 560 69 543 q 63 590 69 578 q 42 608 57 601 l 114 761 q 217 730 174 756 q 278 657 261 704 q 360 738 317 711 q 461 765 403 765 m 307 142 q 366 196 340 142 q 405 335 392 250 q 418 508 418 419 q 408 574 418 556 q 376 593 399 593 q 338 573 357 593 q 296 517 318 553 l 253 192 q 307 142 271 142 z "},"ā":{"ha":669,"x_min":18,"x_max":671,"o":"m 414 765 q 671 693 547 765 l 604 221 q 600 181 600 199 q 606 151 600 163 q 628 132 613 139 l 556 -21 q 453 10 497 -15 q 392 83 408 36 q 310 2 353 29 q 208 -25 267 -25 q 67 45 117 -25 q 18 238 18 115 q 58 497 18 378 q 186 691 97 617 q 414 765 275 765 m 392 600 q 288 488 324 600 q 251 232 251 376 q 262 166 251 185 q 293 147 272 147 q 332 167 313 147 q 375 224 351 188 l 426 593 q 392 600 408 600 m 624 907 l 257 907 l 282 1069 l 649 1069 l 624 907 z "},"ą":{"ha":669,"x_min":18,"x_max":671,"o":"m 604 221 q 600 181 600 199 q 606 151 600 163 q 628 132 613 139 l 556 -21 q 406 -176 406 -87 q 458 -222 406 -222 q 522 -215 483 -222 l 490 -354 q 406 -365 450 -365 q 288 -324 333 -365 q 243 -210 243 -282 q 291 -80 243 -136 q 438 21 339 -24 q 392 83 407 43 q 310 2 353 29 q 208 -25 267 -25 q 67 45 117 -25 q 18 238 18 115 q 58 497 18 378 q 186 691 97 617 q 414 765 275 765 q 671 693 547 765 l 604 221 m 426 593 q 392 600 408 600 q 288 488 324 600 q 251 232 251 376 q 262 166 251 185 q 293 147 272 147 q 332 167 313 147 q 375 224 351 188 l 426 593 z "},"å":{"ha":669,"x_min":18,"x_max":671,"o":"m 414 765 q 671 693 547 765 l 604 221 q 600 181 600 199 q 606 151 600 163 q 628 132 613 139 l 556 -21 q 453 10 497 -15 q 392 83 408 36 q 310 2 353 29 q 208 -25 267 -25 q 67 45 117 -25 q 18 238 18 115 q 58 497 18 378 q 186 691 97 617 q 414 765 275 765 m 392 600 q 288 488 324 600 q 251 232 251 376 q 262 166 251 185 q 293 147 272 147 q 332 167 313 147 q 375 224 351 188 l 426 593 q 392 600 408 600 m 481 1210 q 596 1164 554 1210 q 638 1044 638 1118 q 582 897 638 956 q 436 838 526 838 q 320 883 361 838 q 279 1001 279 928 q 335 1149 279 1089 q 481 1210 390 1210 m 469 1094 q 424 1069 440 1094 q 408 1008 408 1043 q 447 953 408 953 q 492 978 475 953 q 508 1039 508 1004 q 498 1081 508 1067 q 469 1094 488 1094 z "},"ǻ":{"ha":669,"x_min":18,"x_max":671,"o":"m 414 765 q 671 693 547 765 l 604 221 q 600 181 600 199 q 606 151 600 163 q 628 132 613 139 l 556 -21 q 453 10 497 -15 q 392 83 408 36 q 310 2 353 29 q 208 -25 267 -25 q 67 45 117 -25 q 18 238 18 115 q 58 497 18 378 q 186 691 97 617 q 414 765 275 765 m 392 600 q 288 488 324 600 q 251 232 251 376 q 262 166 251 185 q 293 147 272 147 q 332 167 313 147 q 375 224 351 188 l 426 593 q 392 600 408 600 m 476 1174 q 592 1128 550 1174 q 633 1008 633 1082 q 578 860 633 919 q 432 801 522 801 q 316 847 357 801 q 275 965 275 892 q 331 1113 275 1053 q 476 1174 386 1174 m 465 1058 q 420 1033 436 1058 q 404 972 404 1007 q 443 917 404 917 q 488 942 471 917 q 504 1003 504 968 q 494 1044 504 1031 q 465 1058 483 1058 m 585 1467 l 663 1301 l 358 1182 l 304 1292 l 585 1467 z "},"ⱥ":{"ha":669,"x_min":18,"x_max":671,"o":"m 604 221 q 600 181 600 199 q 606 151 600 163 q 628 132 613 139 l 556 -21 q 453 10 497 -15 q 392 83 408 36 q 318 8 356 35 q 231 -24 281 -18 l 203 -104 l 138 -85 l 161 -19 q 55 66 92 -1 q 18 238 18 133 q 58 497 18 378 q 186 691 97 617 q 414 765 275 765 l 438 765 l 463 835 l 528 815 l 507 756 q 671 693 592 739 l 604 221 m 240 207 l 383 611 q 276 483 313 601 q 240 221 240 365 l 240 207 m 433 546 l 288 136 l 289 136 q 340 160 314 136 q 386 224 367 183 l 433 546 z "},"ã":{"ha":669,"x_min":18,"x_max":692,"o":"m 414 765 q 671 693 547 765 l 604 221 q 600 181 600 199 q 606 151 600 163 q 628 132 613 139 l 556 -21 q 453 10 497 -15 q 392 83 408 36 q 310 2 353 29 q 208 -25 267 -25 q 67 45 117 -25 q 18 238 18 115 q 58 497 18 378 q 186 691 97 617 q 414 765 275 765 m 392 600 q 288 488 324 600 q 251 232 251 376 q 262 166 251 185 q 293 147 272 147 q 332 167 313 147 q 375 224 351 188 l 426 593 q 392 600 408 600 m 511 876 q 473 885 490 876 q 432 913 456 894 q 418 923 429 915 q 399 934 407 931 q 382 938 390 938 q 349 923 364 938 q 315 876 335 908 l 218 935 q 299 1056 251 1008 q 396 1104 347 1104 q 442 1094 422 1104 q 483 1067 461 1085 q 531 1043 513 1043 q 560 1057 546 1043 q 592 1101 574 1071 l 692 1046 q 610 924 658 971 q 511 876 561 876 z "},"ɐ":{"ha":625,"x_min":21,"x_max":629,"o":"m 256 231 q 254 204 254 221 q 269 159 254 172 q 325 146 285 146 q 467 176 385 146 l 513 29 q 390 -11 457 3 q 263 -25 324 -25 q 82 24 143 -25 q 21 171 21 74 q 25 221 21 194 l 65 518 q 69 558 69 542 q 63 588 69 576 q 42 607 57 600 l 113 760 q 208 733 167 754 q 269 672 250 711 q 456 764 349 764 q 582 711 535 764 q 629 571 629 658 q 538 355 629 429 q 300 281 447 281 l 263 281 l 256 231 m 363 596 q 299 551 329 596 l 279 408 l 299 408 q 372 441 346 408 q 397 536 397 474 q 389 581 397 567 q 363 596 381 596 z "},"æ":{"ha":983,"x_min":-3,"x_max":990,"o":"m 350 764 q 451 744 411 764 q 521 685 490 725 q 749 765 613 765 q 925 708 860 765 q 988 561 990 651 q 589 267 979 313 q 607 175 589 203 q 672 147 625 147 q 744 163 710 147 q 825 211 779 178 l 903 76 q 631 -25 782 -25 q 404 83 474 -25 q 303 -1 356 24 q 190 -25 250 -25 q 50 29 103 -25 q -3 171 -3 83 q 73 370 -3 290 q 336 450 149 450 l 383 450 q 406 521 390 478 q 374 574 400 556 q 307 592 347 592 q 147 556 238 592 l 118 711 q 239 750 178 736 q 350 764 300 764 m 721 610 q 647 552 676 610 q 603 406 617 494 q 725 459 686 414 q 764 561 764 504 q 721 610 764 610 m 333 317 q 266 288 290 317 q 242 204 242 260 q 282 142 242 142 q 320 160 301 142 q 363 215 339 179 q 360 260 360 243 q 363 317 360 292 l 333 317 z "},"ǽ":{"ha":983,"x_min":-3,"x_max":988,"o":"m 350 764 q 451 744 411 764 q 521 685 490 725 q 749 765 613 765 q 925 708 860 765 q 988 561 990 651 q 589 267 979 313 q 607 175 589 203 q 672 147 625 147 q 744 163 710 147 q 825 211 779 178 l 903 76 q 631 -25 782 -25 q 404 83 474 -25 q 303 -1 356 24 q 190 -25 250 -25 q 50 29 103 -25 q -3 171 -3 83 q 73 370 -3 290 q 336 450 149 450 l 383 450 q 406 521 390 478 q 374 574 400 556 q 307 592 347 592 q 147 556 238 592 l 118 711 q 239 750 178 736 q 350 764 300 764 m 721 610 q 647 552 676 610 q 603 406 617 494 q 725 459 686 414 q 764 561 764 504 q 721 610 764 610 m 333 317 q 266 288 290 317 q 242 204 242 260 q 282 142 242 142 q 320 160 301 142 q 363 215 339 179 q 360 260 360 243 q 363 317 360 292 l 333 317 m 676 1160 l 753 993 l 450 861 l 392 971 l 676 1160 z "},"ǣ":{"ha":983,"x_min":-3,"x_max":988,"o":"m 350 764 q 451 744 411 764 q 521 685 490 725 q 749 765 613 765 q 925 708 860 765 q 988 561 990 651 q 589 267 979 313 q 607 175 589 203 q 672 147 625 147 q 744 163 710 147 q 825 211 779 178 l 903 76 q 631 -25 782 -25 q 404 83 474 -25 q 303 -1 356 24 q 190 -25 250 -25 q 50 29 103 -25 q -3 171 -3 83 q 73 370 -3 290 q 336 450 149 450 l 383 450 q 406 521 390 478 q 374 574 400 556 q 307 592 347 592 q 147 556 238 592 l 118 711 q 239 750 178 736 q 350 764 300 764 m 721 610 q 647 552 676 610 q 603 406 617 494 q 725 459 686 414 q 764 561 764 504 q 721 610 764 610 m 333 317 q 266 288 290 317 q 242 204 242 260 q 282 142 242 142 q 320 160 301 142 q 363 215 339 179 q 360 260 360 243 q 363 317 360 292 l 333 317 m 746 907 l 379 907 l 404 1069 l 771 1069 l 746 907 z "},"b":{"ha":685,"x_min":0,"x_max":667,"o":"m 489 765 q 620 701 574 765 q 667 517 667 638 q 572 122 667 268 q 267 -25 478 -25 q 137 -9 206 -25 q 0 35 68 7 l 139 1032 l 374 1057 l 322 683 q 397 743 354 721 q 489 765 440 765 m 386 593 q 300 528 347 593 l 250 156 q 300 144 275 144 q 397 257 364 144 q 431 501 431 369 q 419 574 431 554 q 386 593 408 593 z "},"ḃ":{"ha":685,"x_min":0,"x_max":667,"o":"m 489 765 q 620 701 574 765 q 667 517 667 638 q 572 122 667 268 q 267 -25 478 -25 q 137 -9 206 -25 q 0 35 68 7 l 139 1032 l 374 1057 l 322 683 q 397 743 354 721 q 489 765 440 765 m 386 593 q 300 528 347 593 l 250 156 q 300 144 275 144 q 397 257 364 144 q 431 501 431 369 q 419 574 431 554 q 386 593 408 593 m 489 1113 q 402 1143 433 1113 q 371 1225 371 1174 q 413 1333 371 1290 q 518 1375 456 1375 q 605 1344 574 1375 q 636 1263 636 1314 q 594 1155 636 1197 q 489 1113 551 1113 z "},"ḅ":{"ha":685,"x_min":0,"x_max":667,"o":"m 489 765 q 620 701 574 765 q 667 517 667 638 q 572 122 667 268 q 267 -25 478 -25 q 137 -9 206 -25 q 0 35 68 7 l 139 1032 l 374 1057 l 322 683 q 397 743 354 721 q 489 765 440 765 m 386 593 q 300 528 347 593 l 250 156 q 300 144 275 144 q 397 257 364 144 q 431 501 431 369 q 419 574 431 554 q 386 593 408 593 m 263 -81 q 349 -111 318 -81 q 381 -193 381 -142 q 338 -301 381 -258 q 233 -343 296 -343 q 147 -312 178 -343 q 115 -231 115 -282 q 158 -123 115 -165 q 263 -81 200 -81 z "},"ꞵ":{"ha":696,"x_min":-49,"x_max":674,"o":"m 104 774 q 208 982 122 908 q 425 1056 294 1056 q 608 989 543 1056 q 674 819 674 922 q 629 658 674 728 q 479 561 585 588 q 613 504 558 556 q 667 347 667 453 q 635 178 667 264 q 536 34 604 93 q 365 -25 468 -25 q 283 -10 318 -25 q 221 32 249 4 l 178 -287 l -49 -311 l 104 774 m 314 156 q 405 217 375 156 q 435 354 435 279 q 412 446 435 418 q 347 474 389 474 l 317 474 l 353 632 l 367 632 q 424 685 404 632 q 443 811 443 738 q 401 892 443 892 q 326 771 344 892 l 242 182 q 314 156 272 156 z "},"ɓ":{"ha":685,"x_min":0,"x_max":667,"o":"m 489 765 q 620 701 574 765 q 667 517 667 638 q 572 122 667 268 q 267 -25 478 -25 q 137 -9 206 -25 q 0 35 68 7 l 97 739 l 110 825 q 198 992 125 928 q 393 1056 271 1056 q 572 1007 494 1056 l 490 863 q 407 883 444 883 q 360 864 376 883 q 339 801 344 844 l 331 739 l 329 739 l 324 683 q 397 743 354 721 q 489 765 440 765 m 300 144 q 397 257 364 144 q 431 501 431 369 q 419 574 431 554 q 386 593 408 593 q 300 528 347 593 l 250 156 q 300 144 275 144 z "},"ʭ":{"ha":446,"x_min":-11,"x_max":463,"o":"m 429 556 l 296 556 l 311 679 l 219 679 l 203 556 l 68 556 l 101 789 l 463 789 l 429 556 m 350 -1 l 217 -1 l 232 122 l 140 122 l 124 -1 l -11 -1 l 22 232 l 383 232 l 350 -1 z "},"ʘ":{"ha":929,"x_min":40,"x_max":919,"o":"m 553 990 q 748 943 665 990 q 875 807 831 896 q 919 597 919 718 q 855 267 919 408 q 675 51 790 126 q 408 -25 560 -25 q 213 23 296 -25 q 85 160 131 71 q 40 372 40 250 q 106 701 40 561 q 287 916 171 842 q 553 990 403 990 m 536 828 q 337 699 404 828 q 269 360 269 569 q 426 138 269 138 q 624 265 556 138 q 692 599 692 392 q 650 771 692 714 q 536 828 608 828 m 469 360 q 397 385 422 360 q 371 454 371 411 q 406 544 371 508 q 494 579 442 579 q 567 553 542 579 q 593 485 593 528 q 558 395 593 431 q 469 360 522 360 z "},"ʬ":{"ha":540,"x_min":42,"x_max":576,"o":"m 576 928 l 461 556 l 331 556 l 339 826 l 265 556 l 139 556 l 119 928 l 207 928 l 215 639 l 294 928 l 413 928 l 407 638 l 490 928 l 576 928 m 499 372 l 383 0 l 253 0 l 261 271 l 188 0 l 61 0 l 42 372 l 129 372 l 138 83 l 217 372 l 335 372 l 329 82 l 413 372 l 499 372 z "},"ƀ":{"ha":697,"x_min":13,"x_max":679,"o":"m 501 765 q 633 701 586 765 q 679 517 679 638 q 585 122 679 268 q 279 -25 490 -25 q 149 -9 218 -25 q 13 35 81 7 l 124 828 l 68 828 l 89 961 l 142 961 l 151 1032 l 386 1057 l 374 961 l 519 961 l 481 828 l 354 828 l 335 683 q 410 743 367 721 q 501 765 453 765 m 313 144 q 410 257 376 144 q 443 501 443 369 q 432 574 443 554 q 399 593 421 593 q 313 528 360 593 l 263 156 q 313 144 288 144 z "},"ƃ":{"ha":686,"x_min":0,"x_max":665,"o":"m 489 743 q 619 677 572 743 q 665 483 665 611 q 572 114 665 253 q 267 -25 479 -25 q 137 -9 206 -25 q 0 35 68 7 l 139 1032 l 614 1032 l 563 864 l 346 864 l 318 661 q 394 721 350 699 q 489 743 439 743 m 300 144 q 374 199 344 144 q 417 329 403 253 q 431 474 431 406 q 419 550 431 529 q 386 571 407 571 q 297 506 344 571 l 250 156 q 300 144 275 144 z "},"c":{"ha":556,"x_min":22,"x_max":611,"o":"m 396 765 q 517 742 465 765 q 611 671 569 718 l 500 546 q 453 576 475 567 q 406 586 431 586 q 298 492 332 586 q 264 274 264 397 q 282 182 264 207 q 336 157 300 157 q 384 167 360 157 q 440 197 408 176 l 522 61 q 294 -25 421 -25 q 94 55 167 -25 q 22 278 22 135 q 67 525 22 414 q 196 701 111 636 q 396 765 281 765 z "},"ć":{"ha":556,"x_min":22,"x_max":611,"o":"m 396 765 q 517 742 465 765 q 611 671 569 718 l 500 546 q 453 576 475 567 q 406 586 431 586 q 298 492 332 586 q 264 274 264 397 q 282 182 264 207 q 336 157 300 157 q 384 167 360 157 q 440 197 408 176 l 522 61 q 294 -25 421 -25 q 94 55 167 -25 q 22 278 22 135 q 67 525 22 414 q 196 701 111 636 q 396 765 281 765 m 522 1160 l 599 993 l 296 861 l 238 971 l 522 1160 z "},"č":{"ha":556,"x_min":22,"x_max":664,"o":"m 396 765 q 517 742 465 765 q 611 671 569 718 l 500 546 q 453 576 475 567 q 406 586 431 586 q 298 492 332 586 q 264 274 264 397 q 282 182 264 207 q 336 157 300 157 q 384 167 360 157 q 440 197 408 176 l 522 61 q 294 -25 421 -25 q 94 55 167 -25 q 22 278 22 135 q 67 525 22 414 q 196 701 111 636 q 396 765 281 765 m 588 1132 l 664 1042 l 471 846 l 332 846 l 196 1042 l 281 1132 l 415 1003 l 588 1132 z "},"ç":{"ha":556,"x_min":22,"x_max":611,"o":"m 522 61 q 332 -24 436 -12 l 325 -71 q 406 -109 378 -79 q 435 -189 435 -139 q 415 -272 435 -231 q 347 -342 394 -314 q 222 -369 299 -369 q 144 -357 179 -369 q 85 -324 108 -344 l 150 -225 q 218 -244 185 -244 q 258 -233 243 -244 q 274 -200 274 -222 q 251 -168 274 -178 q 174 -158 228 -158 l 210 -14 q 72 85 121 10 q 22 278 22 161 q 67 525 22 414 q 196 701 111 636 q 396 765 281 765 q 517 742 465 765 q 611 671 569 718 l 500 546 q 453 576 475 567 q 406 586 431 586 q 298 492 332 586 q 264 274 264 397 q 282 182 264 207 q 336 157 300 157 q 384 167 360 157 q 440 197 408 176 l 522 61 z "},"ĉ":{"ha":556,"x_min":22,"x_max":658,"o":"m 396 765 q 517 742 465 765 q 611 671 569 718 l 500 546 q 453 576 475 567 q 406 586 431 586 q 298 492 332 586 q 264 274 264 397 q 282 182 264 207 q 336 157 300 157 q 384 167 360 157 q 440 197 408 176 l 522 61 q 294 -25 421 -25 q 94 55 167 -25 q 22 278 22 135 q 67 525 22 414 q 196 701 111 636 q 396 765 281 765 m 257 861 l 181 953 l 374 1149 l 513 1149 l 658 942 l 563 861 l 429 992 l 257 861 z "},"ɕ":{"ha":600,"x_min":22,"x_max":611,"o":"m 435 356 q 533 318 496 356 q 571 211 571 281 q 499 37 571 99 q 315 -25 426 -25 q 236 -17 278 -25 l 185 -119 l 92 -75 l 144 24 q 54 126 86 60 q 22 283 22 192 q 67 526 22 417 q 197 701 113 636 q 396 765 282 765 q 517 742 465 765 q 611 671 569 718 l 500 546 q 406 586 451 586 q 298 492 332 586 q 264 274 264 397 l 264 232 q 340 327 299 299 q 435 356 382 356 m 365 142 q 406 158 390 142 q 422 206 421 175 q 400 236 422 236 q 325 147 358 236 q 365 142 342 142 z "},"ċ":{"ha":556,"x_min":22,"x_max":611,"o":"m 396 765 q 517 742 465 765 q 611 671 569 718 l 500 546 q 453 576 475 567 q 406 586 431 586 q 298 492 332 586 q 264 274 264 397 q 282 182 264 207 q 336 157 300 157 q 384 167 360 157 q 440 197 408 176 l 522 61 q 294 -25 421 -25 q 94 55 167 -25 q 22 278 22 135 q 67 525 22 414 q 196 701 111 636 q 396 765 281 765 m 410 871 q 323 901 354 871 q 292 983 292 932 q 334 1091 292 1049 q 439 1133 376 1133 q 526 1103 494 1133 q 557 1021 557 1072 q 515 913 557 956 q 410 871 472 871 z "},"ƈ":{"ha":554,"x_min":22,"x_max":833,"o":"m 668 1056 q 833 1003 765 1056 l 753 863 q 686 883 714 883 q 649 864 661 883 q 629 800 638 844 l 611 671 l 507 551 q 406 586 451 586 q 298 492 332 586 q 264 274 264 397 q 282 182 264 207 q 336 157 300 157 q 384 167 360 157 q 440 197 408 176 l 522 61 q 294 -25 421 -25 q 94 55 167 -25 q 22 278 22 135 q 65 524 22 413 q 188 700 108 635 q 368 765 267 765 q 429 756 394 765 l 444 854 q 516 1003 461 951 q 668 1056 571 1056 z "},"ʗ":{"ha":578,"x_min":4,"x_max":632,"o":"m 418 765 q 632 671 550 765 l 521 546 q 475 576 497 567 q 426 586 453 586 q 326 506 367 586 q 265 302 285 426 q 244 43 244 178 q 263 -95 244 -61 q 318 -129 281 -129 q 365 -119 342 -129 q 422 -87 388 -110 l 503 -225 q 275 -311 401 -311 q 75 -223 146 -311 q 4 40 4 -135 q 55 416 4 251 q 199 673 106 581 q 418 765 293 765 z "},"ȼ":{"ha":556,"x_min":22,"x_max":611,"o":"m 336 157 q 384 167 360 157 q 440 197 408 176 l 522 61 q 294 -25 421 -25 q 254 -22 279 -25 l 225 -104 l 160 -85 l 188 -7 q 65 95 108 22 q 22 278 22 168 q 67 525 22 414 q 196 701 111 636 q 396 765 281 765 q 458 760 432 765 l 485 835 l 551 815 l 524 739 q 611 671 575 714 l 500 546 q 464 571 478 563 l 318 158 q 336 157 324 157 m 264 274 q 268 221 264 244 l 397 586 q 296 486 328 579 q 264 274 264 393 z "},"d":{"ha":686,"x_min":18,"x_max":732,"o":"m 732 1032 l 588 0 l 382 0 l 385 85 q 305 2 347 29 q 204 -25 263 -25 q 67 42 115 -25 q 18 238 18 110 q 54 492 18 371 q 160 690 90 614 q 326 765 229 765 q 453 700 408 765 l 501 1056 l 732 1032 m 376 594 q 310 537 338 594 q 268 396 282 479 q 254 240 254 313 q 265 166 254 186 q 299 146 276 146 q 388 232 339 146 l 432 554 q 408 585 421 575 q 376 594 396 594 z "},"ð":{"ha":685,"x_min":17,"x_max":661,"o":"m 504 928 q 624 757 586 851 q 661 539 661 663 q 618 258 661 386 q 489 52 575 129 q 282 -25 403 -25 q 89 50 161 -25 q 17 258 17 125 q 54 448 17 353 q 158 605 92 543 q 303 667 224 667 q 381 651 349 667 q 440 604 414 635 q 419 715 436 671 q 367 801 403 760 l 297 731 l 175 797 l 254 878 q 158 907 203 899 l 221 1054 q 382 1003 286 1043 l 486 1113 l 586 1021 l 504 928 m 304 146 q 384 223 360 146 q 426 457 408 300 q 361 503 401 503 q 274 417 303 503 q 246 239 246 332 q 260 167 246 189 q 304 146 275 146 z "},"ȸ":{"ha":1006,"x_min":19,"x_max":988,"o":"m 822 764 q 946 695 904 764 q 988 500 988 626 q 951 246 988 367 q 848 50 915 125 q 693 -25 781 -25 q 620 1 654 -25 q 564 78 586 26 l 542 0 l 361 0 l 361 75 q 208 -25 297 -25 q 67 48 114 -25 q 19 251 19 121 q 57 500 19 382 q 162 691 94 618 q 317 764 229 764 q 383 743 353 764 q 431 683 414 722 l 478 1032 l 714 1056 l 663 678 q 734 741 693 718 q 822 764 775 764 m 299 147 q 365 211 332 147 l 411 543 q 390 582 401 571 q 361 593 378 593 q 307 544 331 593 q 271 418 283 494 q 258 261 258 342 q 268 172 258 197 q 299 147 278 147 m 649 146 q 702 197 679 146 q 738 327 725 249 q 750 485 750 406 q 740 568 750 544 q 713 592 731 592 q 643 536 679 592 l 597 210 q 619 160 607 175 q 649 146 631 146 z "},"ď":{"ha":826,"x_min":18,"x_max":944,"o":"m 732 1032 l 588 0 l 382 0 l 385 85 q 305 2 347 29 q 204 -25 263 -25 q 67 42 115 -25 q 18 238 18 110 q 54 492 18 371 q 160 690 90 614 q 326 765 229 765 q 453 700 408 765 l 501 1056 l 732 1032 m 376 594 q 310 537 338 594 q 268 396 282 479 q 254 240 254 313 q 265 166 254 186 q 299 146 276 146 q 388 232 339 146 l 432 554 q 408 585 421 575 q 376 594 396 594 m 783 1051 l 944 1031 l 846 722 l 731 733 l 783 1051 z "},"ḓ":{"ha":686,"x_min":18,"x_max":732,"o":"m 732 1032 l 588 0 l 382 0 l 385 85 q 305 2 347 29 q 204 -25 263 -25 q 67 42 115 -25 q 18 238 18 110 q 54 492 18 371 q 160 690 90 614 q 326 765 229 765 q 453 700 408 765 l 501 1056 l 732 1032 m 376 594 q 310 537 338 594 q 268 396 282 479 q 254 240 254 313 q 265 166 254 186 q 299 146 276 146 q 388 232 339 146 l 432 554 q 408 585 421 575 q 376 594 396 594 m 107 -374 l 31 -283 l 224 -86 l 363 -86 l 510 -294 l 414 -374 l 279 -244 l 107 -374 z "},"đ":{"ha":699,"x_min":18,"x_max":779,"o":"m 758 825 l 703 825 l 588 0 l 382 0 l 385 85 q 305 2 347 29 q 204 -25 263 -25 q 67 42 115 -25 q 18 238 18 110 q 54 492 18 371 q 160 690 90 614 q 326 765 229 765 q 453 700 408 765 l 469 825 l 344 825 l 350 958 l 488 958 l 501 1056 l 732 1032 l 722 958 l 779 958 l 758 825 m 432 554 q 408 585 421 575 q 376 594 396 594 q 310 537 338 594 q 268 396 282 479 q 254 240 254 313 q 265 166 254 186 q 299 146 276 146 q 388 232 339 146 l 432 554 z "},"ȡ":{"ha":938,"x_min":18,"x_max":915,"o":"m 788 344 q 879 307 843 344 q 915 204 915 269 q 844 33 915 90 q 660 -25 772 -25 q 614 -24 628 -25 l 565 -119 l 474 -75 l 513 -4 q 401 101 433 25 q 313 6 361 36 q 204 -25 265 -25 q 67 42 115 -25 q 18 238 18 110 q 54 492 18 371 q 160 690 90 614 q 326 765 229 765 q 453 700 408 765 l 501 1056 l 732 1032 l 618 217 q 617 204 617 213 q 691 313 651 282 q 788 344 731 344 m 432 554 q 408 585 421 575 q 376 594 396 594 q 310 537 338 594 q 268 396 282 479 q 254 240 254 313 q 265 166 254 186 q 299 146 276 146 q 388 233 340 146 l 432 554 m 714 142 q 753 157 739 142 q 768 199 768 172 q 750 225 768 225 q 722 207 735 225 q 693 142 710 189 l 714 142 z "},"ḋ":{"ha":686,"x_min":18,"x_max":732,"o":"m 732 1032 l 588 0 l 382 0 l 385 85 q 305 2 347 29 q 204 -25 263 -25 q 67 42 115 -25 q 18 238 18 110 q 54 492 18 371 q 160 690 90 614 q 326 765 229 765 q 453 700 408 765 l 501 1056 l 732 1032 m 376 594 q 310 537 338 594 q 268 396 282 479 q 254 240 254 313 q 265 166 254 186 q 299 146 276 146 q 388 232 339 146 l 432 554 q 408 585 421 575 q 376 594 396 594 m 453 1113 q 366 1143 397 1113 q 335 1225 335 1174 q 377 1333 335 1290 q 482 1375 419 1375 q 569 1344 538 1375 q 600 1263 600 1314 q 558 1155 600 1197 q 453 1113 515 1113 z "},"ḍ":{"ha":686,"x_min":18,"x_max":732,"o":"m 732 1032 l 588 0 l 382 0 l 385 85 q 305 2 347 29 q 204 -25 263 -25 q 67 42 115 -25 q 18 238 18 110 q 54 492 18 371 q 160 690 90 614 q 326 765 229 765 q 453 700 408 765 l 501 1056 l 732 1032 m 376 594 q 310 537 338 594 q 268 396 282 479 q 254 240 254 313 q 265 166 254 186 q 299 146 276 146 q 388 232 339 146 l 432 554 q 408 585 421 575 q 376 594 396 594 m 293 -81 q 380 -111 349 -81 q 411 -193 411 -142 q 369 -301 411 -258 q 264 -343 326 -343 q 177 -312 208 -343 q 146 -231 146 -282 q 188 -123 146 -165 q 293 -81 231 -81 z "},"ƍ":{"ha":675,"x_min":-6,"x_max":657,"o":"m 231 -311 q 87 -283 146 -311 q -6 -206 28 -254 l 114 -99 q 222 -153 164 -153 q 276 -132 258 -153 q 294 -76 294 -111 q 278 -33 294 -51 q 214 14 263 -14 q 68 133 113 68 q 24 304 24 199 q 61 513 24 407 q 182 692 99 619 q 392 764 265 764 q 535 726 475 764 q 626 625 594 689 q 657 482 657 561 q 605 245 657 344 q 424 83 553 146 q 491 8 469 49 q 513 -75 513 -33 q 481 -189 513 -135 q 385 -277 449 -243 q 231 -311 321 -311 m 319 151 q 400 295 379 217 q 421 486 421 374 q 368 592 421 592 q 287 507 315 592 q 258 297 258 422 q 271 213 258 244 q 319 151 283 181 z "},"ʤ":{"ha":1208,"x_min":18,"x_max":1203,"o":"m 1179 579 l 944 290 q 1151 64 1151 263 q 1103 -135 1151 -50 q 969 -266 1054 -221 q 781 -311 885 -311 q 514 -164 599 -311 l 651 -53 q 715 -114 685 -96 q 783 -132 744 -132 q 878 -82 843 -132 q 914 58 914 -32 q 889 139 914 115 q 815 163 864 163 l 700 163 l 719 296 l 939 565 l 667 565 l 588 0 l 382 0 l 385 85 q 305 2 347 29 q 204 -25 263 -25 q 67 42 115 -25 q 18 238 18 110 q 54 492 18 371 q 160 690 90 614 q 326 765 229 765 q 453 700 408 765 l 501 1056 l 732 1032 l 692 740 l 1203 740 l 1179 579 m 432 554 q 408 585 421 575 q 376 594 396 594 q 310 537 338 594 q 268 396 282 479 q 254 240 254 313 q 265 166 254 186 q 299 146 276 146 q 388 232 339 146 l 432 554 z "},"ɗ":{"ha":685,"x_min":18,"x_max":903,"o":"m 739 1056 q 903 1003 838 1056 l 817 864 q 754 883 782 883 q 718 867 729 883 q 701 813 707 850 l 690 739 l 588 0 l 382 0 l 385 85 q 305 2 347 29 q 204 -25 263 -25 q 67 42 115 -25 q 18 238 18 110 q 54 492 18 371 q 160 690 90 614 q 326 765 229 765 q 453 700 408 765 l 458 739 l 468 811 q 552 988 482 919 q 739 1056 622 1056 m 432 554 q 408 585 419 575 q 376 594 396 594 q 310 537 338 594 q 268 396 282 479 q 254 240 254 313 q 265 166 254 186 q 299 146 276 146 q 388 232 339 146 l 432 554 z "},"ḏ":{"ha":686,"x_min":18,"x_max":732,"o":"m 732 1032 l 588 0 l 382 0 l 385 85 q 305 2 347 29 q 204 -25 263 -25 q 67 42 115 -25 q 18 238 18 110 q 54 492 18 371 q 160 690 90 614 q 326 765 229 765 q 453 700 408 765 l 501 1056 l 732 1032 m 376 594 q 310 537 338 594 q 268 396 282 479 q 254 240 254 313 q 265 166 254 186 q 299 146 276 146 q 388 232 339 146 l 432 554 q 408 585 421 575 q 376 594 396 594 m 124 -107 l 490 -107 l 465 -269 l 99 -269 l 124 -107 z "},"ɖ":{"ha":686,"x_min":18,"x_max":758,"o":"m 758 -253 q 568 -310 675 -310 q 405 -254 464 -310 q 346 -93 346 -199 q 349 -49 346 -79 l 356 0 l 364 64 q 297 -1 335 22 q 204 -25 258 -25 q 67 42 115 -25 q 18 238 18 110 q 54 492 18 371 q 160 690 90 614 q 326 765 229 765 q 453 700 408 765 l 501 1056 l 732 1032 l 588 0 l 578 -74 q 576 -90 576 -79 q 589 -127 576 -114 q 625 -140 601 -140 q 660 -135 646 -140 q 699 -118 674 -131 l 758 -253 m 299 146 q 388 232 339 146 l 432 554 q 408 585 419 575 q 376 594 396 594 q 310 537 338 594 q 268 396 282 479 q 254 240 254 313 q 265 166 254 186 q 299 146 276 146 z "},"ƌ":{"ha":685,"x_min":17,"x_max":731,"o":"m 586 0 l 381 0 l 383 85 q 303 2 346 29 q 203 -25 261 -25 q 65 43 114 -25 q 17 238 17 111 q 52 476 17 360 q 158 668 88 593 q 324 743 228 743 q 450 678 406 743 l 475 864 l 244 864 l 267 1032 l 731 1032 l 586 0 m 429 532 q 374 572 407 572 q 308 516 335 572 q 267 381 281 460 q 254 240 254 303 q 265 166 254 186 q 297 146 275 146 q 386 232 338 146 l 429 532 z "},"ǳ":{"ha":1224,"x_min":18,"x_max":1254,"o":"m 732 1032 l 588 0 l 382 0 l 385 85 q 305 2 347 29 q 204 -25 263 -25 q 67 42 115 -25 q 18 238 18 110 q 54 492 18 371 q 160 690 90 614 q 326 765 229 765 q 453 700 408 765 l 501 1056 l 732 1032 m 376 594 q 310 537 338 594 q 268 396 282 479 q 254 240 254 313 q 265 166 254 186 q 299 146 276 146 q 388 232 339 146 l 432 554 q 408 585 421 575 q 376 594 396 594 m 1254 740 l 1231 575 l 939 178 l 1188 178 l 1140 0 l 642 0 l 665 167 l 957 564 l 740 564 l 767 740 l 1254 740 z "},"ʣ":{"ha":1165,"x_min":18,"x_max":1196,"o":"m 1172 575 l 886 178 l 1129 178 l 1082 0 l 382 0 l 385 85 q 305 2 347 29 q 204 -25 263 -25 q 67 42 115 -25 q 18 238 18 110 q 54 492 18 371 q 160 690 90 614 q 326 765 229 765 q 453 700 408 765 l 501 1056 l 732 1032 l 692 740 l 1196 740 l 1172 575 m 432 554 q 408 585 421 575 q 376 594 396 594 q 310 537 338 594 q 268 396 282 479 q 254 240 254 313 q 265 166 254 186 q 299 146 276 146 q 388 232 339 146 l 432 554 m 610 163 l 899 564 l 667 564 l 610 163 z "},"ǆ":{"ha":1224,"x_min":18,"x_max":1288,"o":"m 732 1032 l 588 0 l 382 0 l 385 85 q 305 2 347 29 q 204 -25 263 -25 q 67 42 115 -25 q 18 238 18 110 q 54 492 18 371 q 160 690 90 614 q 326 765 229 765 q 453 700 408 765 l 501 1056 l 732 1032 m 376 594 q 310 537 338 594 q 268 396 282 479 q 254 240 254 313 q 265 166 254 186 q 299 146 276 146 q 388 232 339 146 l 432 554 q 408 585 421 575 q 376 594 396 594 m 1254 740 l 1231 575 l 939 178 l 1188 178 l 1140 0 l 642 0 l 665 167 l 957 564 l 740 564 l 767 740 l 1254 740 m 1211 1132 l 1288 1042 l 1094 846 l 956 846 l 819 1042 l 904 1132 l 1039 1003 l 1211 1132 z "},"ʥ":{"ha":1318,"x_min":18,"x_max":1314,"o":"m 1168 383 q 1274 344 1235 383 q 1314 232 1314 306 q 1240 58 1314 117 q 1047 0 1167 -1 l 1024 0 q 999 -136 1014 -42 l 992 -181 l 872 -178 q 904 0 892 -54 l 382 0 l 385 85 q 305 2 347 29 q 204 -25 263 -25 q 67 42 115 -25 q 18 238 18 110 q 54 492 18 371 q 160 690 90 614 q 326 765 229 765 q 453 700 408 765 l 501 1056 l 732 1032 l 692 740 l 1197 740 l 1174 592 l 869 178 l 956 178 q 1051 337 1001 290 q 1168 383 1100 383 m 432 554 q 408 585 421 575 q 376 594 396 594 q 310 537 338 594 q 268 396 282 479 q 254 240 254 313 q 265 166 254 186 q 299 146 276 146 q 388 232 339 146 l 432 554 m 667 564 l 611 171 l 899 564 l 667 564 m 1106 178 q 1168 232 1168 178 q 1143 263 1168 263 q 1075 178 1103 263 l 1106 178 z "},"e":{"ha":643,"x_min":21,"x_max":650,"o":"m 408 765 q 585 708 519 765 q 647 561 650 651 q 249 267 639 313 l 249 247 q 333 147 249 147 q 404 163 369 147 q 485 211 439 178 l 563 76 q 292 -25 442 -25 q 92 46 164 -25 q 21 257 21 117 q 64 514 21 399 q 194 697 107 629 q 408 765 282 765 m 263 407 q 385 460 346 415 q 424 561 424 504 q 382 610 424 610 q 308 552 338 610 q 263 407 278 494 z "},"é":{"ha":643,"x_min":21,"x_max":647,"o":"m 408 765 q 585 708 519 765 q 647 561 650 651 q 249 267 639 313 l 249 247 q 333 147 249 147 q 404 163 369 147 q 485 211 439 178 l 563 76 q 292 -25 442 -25 q 92 46 164 -25 q 21 257 21 117 q 64 514 21 399 q 194 697 107 629 q 408 765 282 765 m 263 407 q 385 460 346 415 q 424 561 424 504 q 382 610 424 610 q 308 552 338 610 q 263 407 278 494 m 532 1160 l 608 993 l 306 861 l 247 971 l 532 1160 z "},"ĕ":{"ha":643,"x_min":21,"x_max":651,"o":"m 408 765 q 585 708 519 765 q 647 561 650 651 q 249 267 639 313 l 249 247 q 333 147 249 147 q 404 163 369 147 q 485 211 439 178 l 563 76 q 292 -25 442 -25 q 92 46 164 -25 q 21 257 21 117 q 64 514 21 399 q 194 697 107 629 q 408 765 282 765 m 263 407 q 385 460 346 415 q 424 561 424 504 q 382 610 424 610 q 308 552 338 610 q 263 407 278 494 m 418 875 q 279 936 326 875 q 232 1094 232 997 q 233 1128 232 1117 l 353 1146 q 374 1067 356 1094 q 429 1039 393 1039 q 494 1068 467 1039 q 536 1149 521 1097 l 651 1122 q 572 944 631 1013 q 418 875 514 875 z "},"ě":{"ha":643,"x_min":21,"x_max":674,"o":"m 408 765 q 585 708 519 765 q 647 561 650 651 q 249 267 639 313 l 249 247 q 333 147 249 147 q 404 163 369 147 q 485 211 439 178 l 563 76 q 292 -25 442 -25 q 92 46 164 -25 q 21 257 21 117 q 64 514 21 399 q 194 697 107 629 q 408 765 282 765 m 263 407 q 385 460 346 415 q 424 561 424 504 q 382 610 424 610 q 308 552 338 610 q 263 407 278 494 m 597 1132 l 674 1042 l 481 846 l 342 846 l 206 1042 l 290 1132 l 425 1003 l 597 1132 z "},"ȩ":{"ha":643,"x_min":21,"x_max":650,"o":"m 408 765 q 585 708 519 765 q 647 561 650 651 q 249 267 639 313 l 249 247 q 333 147 249 147 q 404 163 369 147 q 485 211 439 178 l 563 76 q 356 -21 468 -4 l 349 -71 q 430 -109 401 -79 q 458 -189 458 -139 q 438 -272 458 -231 q 370 -342 418 -314 q 246 -369 322 -369 q 167 -357 203 -369 q 108 -324 132 -344 l 174 -225 q 242 -244 208 -244 q 282 -233 267 -244 q 297 -200 297 -222 q 274 -168 297 -178 q 197 -158 251 -158 l 231 -21 q 76 65 131 -4 q 21 256 21 135 q 64 513 21 397 q 194 697 107 628 q 408 765 281 765 m 263 407 q 385 460 346 415 q 424 561 424 504 q 382 610 424 610 q 308 552 338 610 q 263 407 278 494 z "},"ê":{"ha":643,"x_min":21,"x_max":668,"o":"m 408 765 q 585 708 519 765 q 647 561 650 651 q 249 267 639 313 l 249 247 q 333 147 249 147 q 404 163 369 147 q 485 211 439 178 l 563 76 q 292 -25 442 -25 q 92 46 164 -25 q 21 257 21 117 q 64 514 21 399 q 194 697 107 629 q 408 765 282 765 m 263 407 q 385 460 346 415 q 424 561 424 504 q 382 610 424 610 q 308 552 338 610 q 263 407 278 494 m 267 861 l 190 953 l 383 1149 l 522 1149 l 668 942 l 572 861 l 439 992 l 267 861 z "},"ế":{"ha":643,"x_min":21,"x_max":854,"o":"m 854 1228 l 624 1022 l 544 1093 l 743 1346 l 854 1228 m 364 1092 l 501 1092 l 650 894 l 558 815 l 418 933 l 253 815 l 169 906 l 364 1092 m 408 765 q 585 708 519 765 q 647 561 650 651 q 249 267 639 313 l 249 247 q 333 147 249 147 q 404 163 369 147 q 485 211 439 178 l 563 76 q 292 -25 442 -25 q 92 46 164 -25 q 21 257 21 117 q 64 514 21 399 q 194 697 107 629 q 408 765 282 765 m 263 407 q 385 460 346 415 q 424 561 424 504 q 382 610 424 610 q 308 552 338 610 q 263 407 278 494 z "},"ệ":{"ha":643,"x_min":21,"x_max":668,"o":"m 408 765 q 585 708 519 765 q 647 561 650 651 q 249 267 639 313 l 249 247 q 333 147 249 147 q 404 163 369 147 q 485 211 439 178 l 563 76 q 292 -25 442 -25 q 92 46 164 -25 q 21 257 21 117 q 64 514 21 399 q 194 697 107 629 q 408 765 282 765 m 263 407 q 385 460 346 415 q 424 561 424 504 q 382 610 424 610 q 308 552 338 610 q 263 407 278 494 m 267 861 l 190 953 l 383 1149 l 522 1149 l 668 942 l 572 861 l 439 992 l 267 861 m 278 -81 q 365 -111 333 -81 q 396 -193 396 -142 q 353 -301 396 -258 q 249 -343 311 -343 q 162 -312 193 -343 q 131 -231 131 -282 q 173 -123 131 -165 q 278 -81 215 -81 z "},"ề":{"ha":643,"x_min":21,"x_max":650,"o":"m 319 1088 l 221 1022 l 50 1238 l 192 1342 l 319 1088 m 253 815 l 169 906 l 364 1092 l 501 1092 l 650 894 l 558 815 l 418 933 l 253 815 m 408 765 q 585 708 519 765 q 647 561 650 651 q 249 267 639 313 l 249 247 q 333 147 249 147 q 404 163 369 147 q 485 211 439 178 l 563 76 q 292 -25 442 -25 q 92 46 164 -25 q 21 257 21 117 q 64 514 21 399 q 194 697 107 629 q 408 765 282 765 m 263 407 q 385 460 346 415 q 424 561 424 504 q 382 610 424 610 q 308 552 338 610 q 263 407 278 494 z "},"ể":{"ha":643,"x_min":21,"x_max":824,"o":"m 408 765 q 585 708 519 765 q 647 561 650 651 q 249 267 639 313 l 249 247 q 333 147 249 147 q 404 163 369 147 q 485 211 439 178 l 563 76 q 292 -25 442 -25 q 92 46 164 -25 q 21 257 21 117 q 64 514 21 399 q 194 697 107 629 q 408 765 282 765 m 263 407 q 385 460 346 415 q 424 561 424 504 q 382 610 424 610 q 308 552 338 610 q 263 407 278 494 m 256 815 l 172 906 l 367 1092 l 504 1092 l 653 894 l 561 815 l 421 933 l 256 815 m 588 1196 q 655 1213 635 1199 q 675 1256 675 1226 q 667 1281 675 1274 q 639 1289 658 1289 q 606 1285 621 1289 q 569 1271 592 1281 l 549 1368 q 679 1403 607 1403 q 785 1367 747 1403 q 824 1272 824 1331 q 792 1177 824 1214 q 706 1128 761 1140 l 696 1057 l 569 1057 l 588 1196 z "},"ễ":{"ha":643,"x_min":21,"x_max":694,"o":"m 390 1182 q 358 1169 372 1182 q 324 1126 343 1156 l 229 1181 q 308 1292 261 1247 q 404 1336 356 1336 q 449 1327 431 1336 q 489 1301 468 1318 q 512 1286 500 1293 q 536 1279 524 1279 q 565 1292 551 1279 q 596 1333 579 1304 l 694 1282 q 615 1170 663 1214 q 517 1126 567 1126 q 478 1135 496 1126 q 439 1158 461 1143 q 413 1175 426 1168 q 390 1182 400 1182 m 365 1088 l 503 1088 l 651 890 l 560 811 l 419 929 l 254 811 l 171 901 l 365 1088 m 408 765 q 585 708 519 765 q 647 561 650 651 q 249 267 639 313 l 249 247 q 333 147 249 147 q 404 163 369 147 q 485 211 439 178 l 563 76 q 292 -25 442 -25 q 92 46 164 -25 q 21 257 21 117 q 64 514 21 399 q 194 697 107 629 q 408 765 282 765 m 263 407 q 385 460 346 415 q 424 561 424 504 q 382 610 424 610 q 308 552 338 610 q 263 407 278 494 z "},"ȅ":{"ha":643,"x_min":21,"x_max":647,"o":"m 408 765 q 585 708 519 765 q 647 561 650 651 q 249 267 639 313 l 249 247 q 333 147 249 147 q 404 163 369 147 q 485 211 439 178 l 563 76 q 292 -25 442 -25 q 92 46 164 -25 q 21 257 21 117 q 64 514 21 399 q 194 697 107 629 q 408 765 282 765 m 263 407 q 385 460 346 415 q 424 561 424 504 q 382 610 424 610 q 308 552 338 610 q 263 407 278 494 m 308 1203 l 390 917 l 264 867 l 143 1135 l 308 1203 m 522 1201 l 596 915 l 471 872 l 358 1140 l 522 1201 z "},"ë":{"ha":643,"x_min":21,"x_max":689,"o":"m 408 765 q 585 708 519 765 q 647 561 650 651 q 249 267 639 313 l 249 247 q 333 147 249 147 q 404 163 369 147 q 485 211 439 178 l 563 76 q 292 -25 442 -25 q 92 46 164 -25 q 21 257 21 117 q 64 514 21 399 q 194 697 107 629 q 408 765 282 765 m 263 407 q 385 460 346 415 q 424 561 424 504 q 382 610 424 610 q 308 552 338 610 q 263 407 278 494 m 278 888 q 204 915 231 888 q 178 986 178 942 q 215 1079 178 1042 q 304 1117 251 1117 q 378 1090 351 1117 q 406 1018 406 1064 q 369 925 406 963 q 278 888 332 888 m 561 888 q 488 915 515 888 q 461 986 461 942 q 498 1079 461 1042 q 588 1117 535 1117 q 662 1090 635 1117 q 689 1018 689 1063 q 652 925 689 963 q 561 888 615 888 z "},"ė":{"ha":643,"x_min":21,"x_max":647,"o":"m 408 765 q 585 708 519 765 q 647 561 650 651 q 249 267 639 313 l 249 247 q 333 147 249 147 q 404 163 369 147 q 485 211 439 178 l 563 76 q 292 -25 442 -25 q 92 46 164 -25 q 21 257 21 117 q 64 514 21 399 q 194 697 107 629 q 408 765 282 765 m 263 407 q 385 460 346 415 q 424 561 424 504 q 382 610 424 610 q 308 552 338 610 q 263 407 278 494 m 419 871 q 333 901 364 871 q 301 983 301 932 q 344 1091 301 1049 q 449 1133 386 1133 q 535 1103 504 1133 q 567 1021 567 1072 q 524 913 567 956 q 419 871 482 871 z "},"ẹ":{"ha":643,"x_min":21,"x_max":647,"o":"m 408 765 q 585 708 519 765 q 647 561 650 651 q 249 267 639 313 l 249 247 q 333 147 249 147 q 404 163 369 147 q 485 211 439 178 l 563 76 q 292 -25 442 -25 q 92 46 164 -25 q 21 257 21 117 q 64 514 21 399 q 194 697 107 629 q 408 765 282 765 m 263 407 q 385 460 346 415 q 424 561 424 504 q 382 610 424 610 q 308 552 338 610 q 263 407 278 494 m 278 -81 q 365 -111 333 -81 q 396 -193 396 -142 q 353 -301 396 -258 q 249 -343 311 -343 q 162 -312 193 -343 q 131 -231 131 -282 q 173 -123 131 -165 q 278 -81 215 -81 z "},"è":{"ha":643,"x_min":21,"x_max":647,"o":"m 408 765 q 585 708 519 765 q 647 561 650 651 q 249 267 639 313 l 249 247 q 333 147 249 147 q 404 163 369 147 q 485 211 439 178 l 563 76 q 292 -25 442 -25 q 92 46 164 -25 q 21 257 21 117 q 64 514 21 399 q 194 697 107 629 q 408 765 282 765 m 263 407 q 385 460 346 415 q 424 561 424 504 q 382 610 424 610 q 308 552 338 610 q 263 407 278 494 m 376 1157 l 617 967 l 549 864 l 275 993 l 376 1157 z "},"ẻ":{"ha":643,"x_min":21,"x_max":647,"o":"m 408 765 q 585 708 519 765 q 647 561 650 651 q 249 267 639 313 l 249 247 q 333 147 249 147 q 404 163 369 147 q 485 211 439 178 l 563 76 q 292 -25 442 -25 q 92 46 164 -25 q 21 257 21 117 q 64 514 21 399 q 194 697 107 629 q 408 765 282 765 m 263 407 q 385 460 346 415 q 424 561 424 504 q 382 610 424 610 q 308 552 338 610 q 263 407 278 494 m 365 978 q 433 994 413 981 q 453 1038 453 1008 q 444 1063 453 1056 q 417 1071 436 1071 q 384 1067 399 1071 q 347 1053 369 1063 l 326 1150 q 457 1185 385 1185 q 563 1149 525 1185 q 601 1054 601 1113 q 570 959 601 996 q 483 910 539 922 l 474 839 l 347 839 l 365 978 z "},"ȇ":{"ha":643,"x_min":21,"x_max":647,"o":"m 408 765 q 585 708 519 765 q 647 561 650 651 q 249 267 639 313 l 249 247 q 333 147 249 147 q 404 163 369 147 q 485 211 439 178 l 563 76 q 292 -25 442 -25 q 92 46 164 -25 q 21 257 21 117 q 64 514 21 399 q 194 697 107 629 q 408 765 282 765 m 263 407 q 385 460 346 415 q 424 561 424 504 q 382 610 424 610 q 308 552 338 610 q 263 407 278 494 m 200 856 q 285 1034 224 965 q 444 1103 347 1103 q 583 1042 538 1103 q 629 883 629 981 q 628 853 629 864 l 503 835 q 428 940 499 940 q 363 911 390 940 q 318 831 335 882 l 200 856 z "},"ē":{"ha":643,"x_min":21,"x_max":647,"o":"m 408 765 q 585 708 519 765 q 647 561 650 651 q 249 267 639 313 l 249 247 q 333 147 249 147 q 404 163 369 147 q 485 211 439 178 l 563 76 q 292 -25 442 -25 q 92 46 164 -25 q 21 257 21 117 q 64 514 21 399 q 194 697 107 629 q 408 765 282 765 m 263 407 q 385 460 346 415 q 424 561 424 504 q 382 610 424 610 q 308 552 338 610 q 263 407 278 494 m 601 907 l 235 907 l 260 1069 l 626 1069 l 601 907 z "},"ę":{"ha":643,"x_min":21,"x_max":650,"o":"m 408 765 q 585 708 519 765 q 647 561 650 651 q 249 267 639 313 l 249 247 q 333 147 249 147 q 404 163 369 147 q 485 211 439 178 l 563 76 q 467 14 513 36 l 465 14 q 446 6 457 8 q 313 -142 313 -58 q 325 -176 313 -164 q 360 -187 338 -187 q 433 -176 392 -187 l 397 -319 q 311 -331 356 -331 q 193 -293 239 -331 q 147 -193 147 -256 q 251 -24 147 -87 q 81 58 142 -12 q 21 256 21 129 q 64 514 21 399 q 194 697 107 629 q 408 765 281 765 m 263 407 q 385 460 346 415 q 424 561 424 504 q 382 610 424 610 q 308 552 338 610 q 263 407 278 494 z "},"ɛ":{"ha":579,"x_min":6,"x_max":592,"o":"m 263 -25 q 77 34 149 -25 q 6 194 6 93 q 60 331 6 278 q 214 394 115 385 q 78 544 78 425 q 113 660 78 610 q 211 738 149 710 q 353 765 274 765 q 485 742 424 765 q 592 668 547 718 l 486 558 q 379 603 433 603 q 324 581 343 603 q 306 524 306 560 q 322 471 306 489 q 379 453 339 453 l 435 453 l 390 304 l 338 304 q 265 280 289 304 q 242 215 242 256 q 260 161 242 181 q 314 142 278 142 q 377 154 346 142 q 449 194 408 167 l 524 68 q 408 -1 475 24 q 263 -25 340 -25 z "},"ʚ":{"ha":676,"x_min":4,"x_max":653,"o":"m 269 -25 q 78 31 153 -25 q 4 188 4 86 q 58 329 4 274 q 208 394 113 385 q 113 444 144 410 q 82 535 82 479 q 119 651 82 599 q 222 735 156 704 q 376 765 289 765 q 581 685 510 765 q 653 465 653 606 q 556 103 653 232 q 269 -25 458 -25 m 294 142 q 401 242 369 142 q 432 471 432 342 q 417 572 432 542 q 369 603 401 603 q 324 580 339 603 q 308 517 308 557 q 363 453 308 453 l 379 453 l 335 304 l 322 304 q 259 278 281 304 q 238 208 238 251 q 253 159 238 176 q 294 142 268 142 z "},"ɜ":{"ha":576,"x_min":-31,"x_max":558,"o":"m 332 765 q 497 715 435 765 q 558 583 558 665 q 510 459 558 510 q 364 392 461 408 q 489 342 449 383 q 529 233 529 301 q 495 109 529 168 q 390 13 461 50 q 214 -25 319 -25 q -31 67 65 -25 l 83 197 q 147 154 119 167 q 204 142 175 142 q 269 169 247 142 q 292 244 292 197 q 274 291 292 278 q 222 304 257 304 l 136 304 l 175 453 l 228 453 q 297 478 274 453 q 321 546 321 504 q 308 589 321 575 q 271 603 296 603 q 215 592 242 603 q 154 560 189 582 l 72 681 q 332 765 192 765 z "},"ɞ":{"ha":667,"x_min":21,"x_max":651,"o":"m 299 -25 q 92 50 164 -25 q 21 267 21 125 q 69 533 21 421 q 206 706 118 646 q 410 765 293 765 q 584 716 517 765 q 651 582 651 667 q 606 459 651 508 q 472 393 560 410 q 585 343 549 383 q 621 238 621 303 q 588 111 621 171 q 483 13 556 51 q 299 -25 411 -25 m 311 142 q 372 170 353 142 q 392 247 392 199 q 377 291 392 278 q 331 304 363 304 l 297 304 l 342 453 l 354 453 q 401 477 382 453 q 419 546 419 501 q 374 603 419 603 q 276 501 310 603 q 242 258 242 400 q 258 168 242 194 q 311 142 274 142 z "},"ɝ":{"ha":890,"x_min":-31,"x_max":922,"o":"m 922 475 q 771 425 854 425 q 652 465 692 425 q 604 572 613 504 l 601 596 l 558 567 q 504 453 553 499 q 364 392 456 408 q 489 342 449 383 q 529 233 529 301 q 495 109 529 168 q 390 13 461 50 q 214 -25 319 -25 q -31 67 65 -25 l 83 197 q 147 154 119 167 q 204 142 175 142 q 269 169 247 142 q 292 244 292 197 q 274 291 292 278 q 222 304 257 304 l 136 304 l 175 453 l 228 453 q 297 478 274 453 q 321 546 321 504 q 308 589 321 575 q 271 603 296 603 q 215 592 242 603 q 154 560 189 582 l 72 681 q 332 765 192 765 q 447 744 397 765 q 525 686 497 724 l 611 740 l 794 740 l 781 643 l 779 629 q 791 594 779 606 q 822 582 803 582 q 883 596 849 582 l 922 475 z "},"ɘ":{"ha":651,"x_min":0,"x_max":628,"o":"m 351 765 q 562 681 496 765 q 628 461 628 596 q 581 201 628 311 q 448 33 535 92 q 240 -25 361 -25 q 0 81 90 -25 l 114 200 q 173 160 143 174 q 240 147 203 147 q 376 265 339 147 q 132 330 219 278 q 44 496 44 382 q 81 632 44 571 q 188 729 118 693 q 351 765 257 765 m 279 500 q 305 435 279 458 q 399 406 331 411 q 401 486 401 432 q 388 580 401 549 q 343 611 374 611 q 297 582 314 611 q 279 500 279 553 z "},"ʃ":{"ha":328,"x_min":-246,"x_max":543,"o":"m 379 1056 q 543 1003 476 1056 l 457 864 q 394 883 422 883 q 358 867 369 883 q 342 813 347 850 l 331 739 l 228 0 l 219 -58 q 124 -247 201 -185 q -71 -310 47 -310 q -172 -293 -131 -310 q -246 -249 -212 -276 l -151 -115 q -113 -135 -128 -129 q -78 -140 -99 -140 q -34 -124 -50 -140 q -15 -76 -18 -107 l -4 0 l 99 740 l 108 811 q 192 988 122 919 q 379 1056 263 1056 z "},"ʆ":{"ha":428,"x_min":-140,"x_max":644,"o":"m 481 1056 q 644 1003 579 1056 l 558 864 q 496 883 524 883 q 460 867 471 883 q 443 813 449 850 l 432 739 l 431 739 l 326 -8 l 325 -14 q 419 -61 375 -29 l 369 -154 q 301 -119 335 -135 q 32 -310 236 -310 q -96 -268 -51 -310 q -140 -151 -140 -226 q -88 -17 -140 -65 q 46 32 -36 32 q 100 28 85 32 l 199 740 l 200 740 l 210 811 q 294 988 224 919 q 481 1056 364 1056 m 21 -190 q 82 -106 69 -190 l 86 -76 q 46 -72 65 -72 q 0 -92 17 -72 q -17 -144 -17 -111 q 21 -190 -17 -190 z "},"ƪ":{"ha":547,"x_min":49,"x_max":619,"o":"m 619 -253 q 429 -310 536 -310 q 266 -254 325 -310 q 207 -93 207 -199 q 210 -49 207 -79 l 217 0 l 299 585 q 213 565 257 565 q 95 624 142 565 q 49 775 49 683 q 124 978 49 901 q 328 1056 200 1056 q 497 994 435 1056 q 558 822 558 933 q 554 765 558 794 l 449 0 l 439 -74 q 438 -90 438 -79 q 450 -127 438 -114 q 486 -140 463 -140 q 521 -135 507 -140 q 560 -118 535 -131 l 619 -253 m 285 726 q 318 732 303 726 l 332 829 q 333 853 333 838 q 301 894 333 894 q 257 862 271 894 q 243 781 243 829 q 253 739 243 751 q 285 726 264 726 z "},"ʅ":{"ha":608,"x_min":28,"x_max":579,"o":"m 579 33 q 389 -24 496 -24 q 226 32 285 -24 q 167 193 167 88 q 169 238 167 207 l 176 286 l 200 454 l 199 454 l 208 528 q 210 544 210 533 q 197 581 210 568 q 161 594 185 594 q 126 590 140 594 q 88 572 113 585 l 28 707 q 218 764 111 764 q 381 708 322 764 q 440 547 440 653 q 438 503 440 533 l 431 454 l 432 454 l 408 286 l 399 213 q 397 196 397 207 q 410 159 397 172 q 446 146 422 146 q 481 151 467 146 q 519 168 494 156 l 579 33 z "},"ɇ":{"ha":643,"x_min":21,"x_max":647,"o":"m 479 758 q 603 690 558 742 q 647 568 647 639 q 308 278 647 335 l 267 160 q 333 147 292 147 q 404 163 369 147 q 485 211 439 178 l 563 76 q 296 -25 442 -25 q 206 -15 244 -25 l 174 -104 l 108 -85 l 142 10 q 21 257 21 75 q 64 514 21 399 q 194 697 107 629 q 408 765 282 765 l 433 835 l 499 815 l 479 758 m 358 621 q 283 544 313 607 q 239 394 253 482 q 279 400 267 397 l 358 621 m 360 422 q 446 561 446 464 q 426 613 446 599 l 360 422 m 233 268 q 226 267 231 267 l 226 249 l 233 268 z "},"ẽ":{"ha":643,"x_min":21,"x_max":669,"o":"m 408 765 q 585 708 519 765 q 647 561 650 651 q 249 267 639 313 l 249 247 q 333 147 249 147 q 404 163 369 147 q 485 211 439 178 l 563 76 q 292 -25 442 -25 q 92 46 164 -25 q 21 257 21 117 q 64 514 21 399 q 194 697 107 629 q 408 765 282 765 m 263 407 q 385 460 346 415 q 424 561 424 504 q 382 610 424 610 q 308 552 338 610 q 263 407 278 494 m 489 876 q 451 885 468 876 q 410 913 433 894 q 396 923 407 915 q 376 934 385 931 q 360 938 368 938 q 327 923 342 938 q 293 876 313 908 l 196 935 q 277 1056 229 1008 q 374 1104 325 1104 q 419 1094 400 1104 q 461 1067 439 1085 q 508 1043 490 1043 q 538 1057 524 1043 q 569 1101 551 1071 l 669 1046 q 588 924 636 971 q 489 876 539 876 z "},"ǝ":{"ha":643,"x_min":-4,"x_max":622,"o":"m 351 765 q 551 694 479 765 q 622 483 622 624 q 579 226 622 342 q 449 43 536 111 q 235 -25 361 -25 q 58 32 124 -25 q -4 179 -7 89 q 394 474 4 428 l 394 493 q 310 593 394 593 q 239 578 274 593 q 158 529 204 563 l 81 664 q 351 765 201 765 m 261 131 q 335 188 306 131 q 381 333 365 246 q 258 281 297 325 q 219 179 219 236 q 261 131 219 131 z "},"ə":{"ha":643,"x_min":-7,"x_max":622,"o":"m 351 765 q 551 694 479 765 q 622 483 622 624 q 579 226 622 342 q 449 43 536 111 q 235 -25 361 -25 q 58 32 124 -25 q -4 179 -7 89 q 394 474 4 428 l 394 493 q 310 593 394 593 q 239 578 274 593 q 158 529 204 563 l 81 664 q 351 765 201 765 m 261 131 q 335 188 306 131 q 381 333 365 246 q 258 281 297 325 q 219 179 219 236 q 261 131 219 131 z "},"ɚ":{"ha":974,"x_min":-7,"x_max":1006,"o":"m 1006 475 q 854 425 938 425 q 735 465 775 425 q 688 572 696 504 l 685 596 l 617 551 q 622 472 622 519 q 576 221 619 333 q 447 42 533 108 q 235 -25 360 -25 q 58 32 124 -25 q -4 179 -7 89 q 394 474 4 428 l 394 493 q 310 593 394 593 q 239 578 274 593 q 158 529 204 563 l 81 664 q 353 765 201 765 q 484 740 428 765 q 575 665 540 715 l 694 740 l 878 740 l 864 643 l 863 629 q 874 594 863 606 q 906 582 886 582 q 967 596 932 582 l 1006 475 m 261 131 q 335 188 306 131 q 381 333 365 246 q 258 281 297 325 q 219 179 219 236 q 261 131 219 131 z "},"ʒ":{"ha":597,"x_min":-97,"x_max":592,"o":"m 568 579 l 333 290 q 540 64 540 263 q 492 -135 540 -50 q 358 -266 443 -221 q 169 -311 274 -311 q -97 -164 -12 -311 l 40 -53 q 103 -114 74 -96 q 172 -132 133 -132 q 267 -82 232 -132 q 303 58 303 -32 q 278 139 303 115 q 204 163 253 163 l 89 163 l 108 296 l 328 565 l 53 565 l 78 740 l 592 740 l 568 579 z "},"ǯ":{"ha":597,"x_min":-97,"x_max":613,"o":"m 568 579 l 333 290 q 540 64 540 263 q 492 -135 540 -50 q 358 -266 443 -221 q 169 -311 274 -311 q -97 -164 -12 -311 l 40 -53 q 103 -114 74 -96 q 172 -132 133 -132 q 267 -82 232 -132 q 303 58 303 -32 q 278 139 303 115 q 204 163 253 163 l 89 163 l 108 296 l 328 565 l 53 565 l 78 740 l 592 740 l 568 579 m 536 1132 l 613 1042 l 419 846 l 281 846 l 144 1042 l 229 1132 l 364 1003 l 536 1132 z "},"ʓ":{"ha":592,"x_min":-89,"x_max":588,"o":"m 564 579 l 336 303 q 485 234 433 292 q 536 72 536 176 q 472 -150 536 -57 q 296 -283 408 -243 l 319 -371 l 207 -406 l 185 -307 q 131 -310 151 -310 q -29 -260 31 -310 q -89 -119 -89 -210 q -65 -12 -89 -57 q 0 56 -40 33 q 86 79 40 79 q 185 40 151 79 q 244 -93 219 1 q 300 68 300 -43 q 274 148 300 124 q 189 172 247 172 l 85 172 l 103 296 l 326 565 l 49 565 l 74 740 l 588 740 l 564 579 m 146 -131 q 123 -57 133 -76 q 94 -37 113 -37 q 71 -51 79 -37 q 63 -86 63 -64 q 78 -119 63 -108 q 129 -131 93 -131 l 146 -131 z "},"ƹ":{"ha":599,"x_min":-43,"x_max":618,"o":"m 592 565 l 310 565 l 467 292 l 446 163 l 443 164 l 444 163 l 332 163 q 233 116 269 163 q 197 -12 197 69 q 220 -101 197 -72 q 286 -131 243 -131 q 361 -112 325 -131 q 444 -50 397 -93 l 546 -169 q 244 -310 428 -310 q 33 -233 110 -310 q -43 -28 -43 -156 q 36 197 -43 110 q 257 296 115 283 l 81 579 l 106 740 l 618 740 l 592 565 z "},"ƺ":{"ha":592,"x_min":-39,"x_max":585,"o":"m 132 -311 q 8 -231 54 -279 q -39 -119 -39 -182 q 17 15 -39 -32 q 182 93 72 61 q 286 140 257 117 q 315 206 315 164 q 299 247 315 235 q 239 258 282 258 l 104 258 l 124 382 l 313 575 l 43 575 l 69 740 l 585 740 l 561 589 l 358 386 l 371 386 q 503 341 454 386 q 551 214 551 296 q 483 40 551 101 q 296 -56 415 -22 q 211 -83 239 -71 q 174 -106 183 -94 q 165 -133 165 -117 q 194 -185 165 -160 l 132 -311 z "},"f":{"ha":426,"x_min":-112,"x_max":615,"o":"m 451 885 q 397 861 417 885 q 369 786 376 838 l 364 740 l 504 740 l 454 576 l 342 576 l 275 86 q 210 -115 258 -39 q 99 -233 163 -192 q -60 -310 35 -274 l -112 -140 q -6 -65 -40 -110 q 43 78 29 -19 l 110 576 l 32 576 l 56 740 l 132 740 l 140 800 q 230 985 156 914 q 428 1057 304 1057 q 533 1040 486 1057 q 615 996 581 1024 l 533 860 q 451 885 492 885 z "},"ḟ":{"ha":426,"x_min":-112,"x_max":615,"o":"m 451 885 q 397 861 417 885 q 369 786 376 838 l 364 740 l 504 740 l 454 576 l 342 576 l 275 86 q 210 -115 258 -39 q 99 -233 163 -192 q -60 -310 35 -274 l -112 -140 q -6 -65 -40 -110 q 43 78 29 -19 l 110 576 l 32 576 l 56 740 l 132 740 l 140 800 q 230 985 156 914 q 428 1057 304 1057 q 533 1040 486 1057 q 615 996 581 1024 l 533 860 q 451 885 492 885 m 426 1113 q 340 1143 371 1113 q 308 1225 308 1174 q 351 1333 308 1290 q 456 1375 393 1375 q 542 1344 511 1375 q 574 1263 574 1314 q 531 1155 574 1197 q 426 1113 489 1113 z "}}}
